<!-- Generator: Adobe Illustrator 24.0.1, SVG Export Plug-In  -->
<svg version="1.1" xmlns="http://www.w3.org/2000/svg" xmlns:xlink="http://www.w3.org/1999/xlink" x="0px" y="0px"
	 width="1515.8px" height="993.1px" viewBox="0 0 1515.8 993.1" style="enable-background:new 0 0 1515.8 993.1;"
	 xml:space="preserve">
<style type="text/css">
	.st0{fill:#49D6B1;}
</style>
<defs>
</defs>
<path id="path3929_2_" class="st0" d="M443.4,989.5c-2.2-2.4-7-3.6-14.2-3.7c-6,0-10.8-0.9-10.8-1.9c0-1-1.2-2-2.7-2.2
	c-13.1-2.2-19-3.9-19-5.6c0-1.1-3.7-2.1-8.4-2.2c-5.4-0.2-11.3-2.3-16.2-5.9c-4.3-3.1-7.8-5.2-7.8-4.6s-2.1-0.1-4.5-1.5
	c-3-1.7-4.1-4-3.3-6.7c0.7-2.3,0.3-4.2-0.7-4.2c-2.9-0.1-2.3-6.1,0.7-7c3.3-1,3.4-9.8,0.2-18.2c-3.5-9.2-4-23.2-0.9-26.6
	c1.9-2.2,1.8-2.9-0.8-3c-5.2-0.2-6.6-7.3-2.1-10.4c2.1-1.5,2.7-2.7,1.3-2.8c-1.4,0-2.6-1.6-2.5-3.5c0.1-1.9-2.3-7.9-5.3-13.3
	c-3-5.4-4.7-9.9-3.9-9.8s0-1.6-1.9-3.5c-1.8-1.9-3.3-4.8-3.2-6.4c0-1.6-1.3-5.7-3-9.2c-1.7-3.5-3.1-5.6-3.1-4.6c0,1-3-0.1-6.5-2.3
	c-3.5-2.3-6.4-4.8-6.4-5.6c0-0.8-2.6-2.7-5.9-4.1c-3.3-1.4-9.2-5.2-13.2-8.3c-9.1-7.1-14.6-7.3-26.8-0.9c-10,5.3-26.2,6.7-26,2.2
	c0.1-1.8-0.7-1.8-2.9-0.1c-2.2,1.7-4,1.5-7-0.8c-3.4-2.7-3.6-3.7-1-6.6c2.6-2.9,2.5-3.4-0.4-3.5c-2.2-0.1-3.1-1.6-2.5-4.4
	c0.5-2.4,0-4.9-1.1-5.7c-1.1-0.7-1.5-2.1-0.9-3.1c0.6-0.9-0.7-3.5-3-5.7c-3.6-3.5-5.7-3.8-15.8-2.1c-15.3,2.5-28.2-0.1-31.1-6.3
	c-2.1-4.7-2.3-4.7-7.7-0.9c-3.2,2.2-7.4,3.4-10.1,2.6c-3-0.8-7.1,0.7-11.8,4.4c-6.1,4.8-8,5.3-12.3,3.2c-7-3.5-14-10.1-13.9-13.2
	c0.1-2.5-4.6-5.4-8.8-5.5c-1.1,0-2.1,1.8-2.1,4.1c-0.1,4.3-8.1,7.6-10.1,4.1c-1.1-1.8,0.5-14.4,3.5-28.2c1.7-7.9,3.5-74.2,2.1-76.7
	c-0.7-1.2-0.2-2.1,0.9-2.1c1.2,0,2.9-1.9,3.7-4.3c2-5.8,6.5-5.5,4.8,0.3c-0.7,2.5-0.1,9.9,1.4,16.4c1.5,6.6,2.1,15.1,1.4,19
	c-2.6,14.5-3,19.1-1.2,19.2c1,0,1.9-3,2-6.7c0.2-5.1,1-6.5,3.4-5.5c2.2,0.9,3.7-0.4,4.8-4.1c1.2-4.1,2.5-5.1,5.6-4
	c5.5,1.9,5.2,0.3-2.1-11.1c-7.2-11.2-7.7-15.5-2.1-18.5c3.5-1.9,3.4-2.1-1-2.3c-5.8-0.3-6.1-1.6-1.2-6.1c2.8-2.6,3.9-2.8,5.2-0.5
	c1.2,2.1,3.1,1.6,7.5-2c3.2-2.6,5.9-5.6,6-6.5c0.1-2.9-15-1.8-16.2,1.1c-0.7,1.7-3.4,2.3-6.9,1.6c-3.6-0.8-5.2-0.4-4.4,1.1
	c0.7,1.3-0.2,2.3-2.1,2.2c-2-0.1-3.4-2-3.3-4.5c0.1-2.6-1.9-5.3-4.8-6.5c-3.6-1.5-5-4-5.2-9.4c-0.2-4.1-0.8-10.8-1.4-15.1
	c-0.7-4.2-1-14.4-0.8-22.5c0.2-8.1,0-14.8-0.6-14.8c-0.5,0-2.3,1.6-3.9,3.7c-1.6,2.1-3.4,3.2-3.9,2.6c-0.5-0.6-1.1-16.4-1.2-35.1
	c-0.4-39.2-6.5-73.8-13-73.5c-2.6,0.1-3.5-1.6-3.4-6.1c0.1-3.9-0.9-6.3-2.8-6.4c-3.8-0.1-5.2-6.3-6.1-26.9c-1-22-5.5-55.6-8.9-66.2
	c-1.5-4.8-2.7-11.4-2.6-14.5c0.1-3.2-2.6-9.1-6.2-13.4c-3.5-4.2-6.2-9.1-6.2-10.9c0.1-3.6-16.6-20.8-20.3-20.9
	c-2.9-0.1-7.2-9.7-7-15.7c0.1-2.3-0.7-4.3-1.8-4.3c-2.6-0.1-6.4-24.5-6.1-39c0.2-6.4-0.6-12.3-1.6-13c-1-0.7-1.8-3.2-1.7-5.5
	c0.1-2.3-1.3-4.3-3.2-4.4c-4.8-0.2-3.9-3,2.6-8.8c4.6-4.1,5.6-6.5,4.7-12c-0.7-4.6,0-7.7,2.1-9.3c1.8-1.4,2.7-4.4,2.2-6.8
	c-0.5-2.4,0.1-4.3,1.5-4.2c3.9,0.1,3-6.1-1.6-11c-2.3-2.5-4.2-5.4-4.2-6.5c0-1.1-1.2-2.5-2.6-3c-5.1-1.9,3.1-8.1,10.4-7.8
	c7.7,0.3,11,2.1,12.7,6.9c0.9,2.5,1.2,2.3,1.4-0.8c0.3-3.7,0.7-3.8,4-0.9c2.1,1.8,6.4,4.7,9.7,6.5c3.3,1.8,5.9,4,5.9,5
	c0,1,1.4,1.9,3.2,1.9s5.9,3.1,9.2,6.7c7.4,8.2,27.1,17,36.5,16.2c3.9-0.3,6.6,0,6.2,0.7c-0.5,0.7,4.2,4.8,10.2,9.2
	c6.1,4.4,12.9,9.7,15.2,11.8c9,8.6,36.4,13.9,60.9,11.8c12.7-1.1,15.7-0.7,19,2.5c2.9,2.8,6.1,3.5,12.5,2.7c6.5-0.8,8.9-0.3,9.8,2.2
	c1.3,3.8,7.8,4.7,7.9,1.1c0-1.7,1-1.6,3.2,0.3c4.9,4.4,18.1,7,25.6,5.1c3.9-1,8.2-0.9,10.2,0.3c3.8,2.3,15.7-2.4,15.8-6.2
	c0-1.3,1.4-1.8,3.1-1.1c1.9,0.8,3.6-0.5,4.4-3.4c1.4-4.7,1.4-4.7,5.4-0.2c2.2,2.5,6.4,6.6,9.3,9.3c3.5,3.2,5.7,8.1,6.5,14.5
	c0.6,5.3,2.1,11.1,3.2,13c1.4,2.4,1.7,1.2,0.9-3.8c-1.4-8.9,2.4-13.6,10.7-13.4c4.2,0.1,6.5,1.6,7.4,4.6c0.7,2.4,4.1,6.5,7.6,9.2
	c3.5,2.6,5.7,5.7,5,6.8c-0.7,1.1-0.3,2,1,2.1c3.8,0.1,2.8-3.8-2.5-9.4c-2.7-2.9-4.8-7.4-4.5-10c0.6-5.7,7.6-13.4,12.1-13.3
	c2.5,0.1,2.7-0.6,0.7-3.1c-2-2.6-1.7-3.6,1.6-5.2c5.4-2.7,13.7,4.4,13.3,11.4c-0.4,5.7-4.3,15.4-4.4,10.9c0-1.6-1-2.3-2.1-1.7
	c-2.5,1.4-0.8,10,2.1,10.1c1.1,0,1.5,1,0.7,2.1c-0.7,1.1-0.4,2.6,0.9,3.4c1.3,0.9,2.3-1.1,2.5-4.7c0.3-7.8,5.7-14.6,10.1-12.7
	c2.2,0.9,3.3,4.2,3.1,9.7c-0.1,4.6,0.3,10.5,0.9,13.2c0.9,4,0.3,4.9-3.5,4.8c-6.2-0.2-5.9,2.1,1.9,14.5c3.7,5.8,6.8,12.6,7,15.1
	c0.2,2.5,1,6.8,1.8,9.5c1.2,4.3,0.6,4.9-4.3,4.8c-3.5-0.1-5.8,1-5.8,2.9c0,1.7-2.6,4.9-5.6,7.2c-5,3.7-6.8,7.8-12.4,28.3
	c-1,3.7-0.7,4.8,1.3,3.7c1.5-0.9,2.2-2.9,1.7-4.5c-0.6-1.6,1.5-6.4,4.6-10.7c3.1-4.2,5.6-8.4,5.6-9.3c0.1-2.6,19-18.5,21.1-17.8
	c1.1,0.4,1.4-1.6,0.7-4.4c-0.7-2.8-1.1-6.9-1.1-9.1c0.1-2.5-1.1-3.7-2.9-3c-2.1,0.7-2.6-0.5-1.8-4.2c0.7-2.9,1.9-5.2,2.7-5.2
	c0.9,0,5.4,3.9,10.1,8.5c6.1,6,8.9,11.1,9.9,17.3c0.7,4.8,2.4,9.5,3.7,10.4c1.6,1.1,1.5,2.6-0.6,4.9c-2,2.3-2.2,3.4-0.5,3.4
	c1.4,0,2.3,0.8,2.1,1.7c-0.2,0.9,0.3,3.5,1.2,5.7c2,5-2,7.8-10.9,7.6l-6.3-0.2l5.1,4.7c5,4.6,6,9.4,6.2,30.1c0,3.9,0.8,7.1,1.7,7.2
	c4.4,0.1,0.7,4.3-5.7,6.4c-4,1.3-6,2.9-4.5,3.5c1.5,0.6,2.2,1.9,1.6,2.9c-0.6,0.9,0.3,3,2,4.5c3.6,3.2,4,12.3,0.6,14.2
	c-1.2,0.7-2.3,2.4-2.3,3.8c-0.1,4.1,6.6-5.5,6.8-9.6c0.1-2.1,1.1-3.8,2.1-3.8c2.2,0.1,8.6,17.5,8.9,24.1c0.1,2.4,1,3.9,1.9,3.4
	c1-0.6,1.8,0.3,1.8,1.9c0,1.6,1.6-1,3.5-5.6c3.1-7.6,3.1-9.5-0.1-18.6c-1.9-5.6-3.2-11.4-2.8-13c0.4-1.6-0.4-4.3-1.7-6
	c-3.4-4.4-0.1-8.2,6.1-6.8c2.9,0.6,5.8,0.3,6.6-0.9c1.5-2.2-4.5-9-10-11.3c-1.9-0.8-3.9-3.4-4.4-5.7c-1.1-5,8.5-22.8,11.2-20.4
	c1,0.9,0.7,0.1-0.6-1.8c-1.4-1.9-3-7.7-3.7-12.8c-1-7.9-0.4-10,3.6-13.6c2.6-2.3,4.9-5.6,4.9-7.4c0.1-1.8,1.1-3.2,2.3-3.1
	c1.2,0,1.7-2.2,1.1-5.2c-0.6-2.9-0.1-5.9,1.3-6.7s2.5-4.3,2.6-7.9c0.2-5.5,1.2-6.7,6.9-7.6c6.8-1.1,9.3-3.4,10.4-9.2
	c0.3-1.8,1.4-5.7,2.4-8.7c1.6-4.8,1.4-5.1-1.7-2.7c-3,2.3-4.2,1.8-7.9-3.2c-2.4-3.2-5.4-5.3-6.7-4.6c-1.3,0.7-2.3,0-2.2-1.6
	c0-1.6-2.3-5.6-5.2-9c-3.8-4.3-5.2-8.5-5-14.6c0.2-4.9-1.1-9.8-2.9-11.4c-1.8-1.6-2.7-3.5-2.1-4.5c0.6-0.9-0.3-2.9-2.1-4.5
	c-2.6-2.3-3.2-2.1-3.3,0.7c-0.1,1.9-1,3.5-2.1,3.5c-4.6-0.2-5.2,9-0.8,14c2.4,2.8,4.4,5.7,4.4,6.6c0,0.9,2.3,4.3,5.2,7.7
	c2.9,3.4,5.3,7.3,5.2,8.8c0,1.5,0.7,2.8,1.7,2.8c1,0,1.8,1.4,1.7,3c-0.2,5.3-7.1,1.1-11-6.8c-2.1-4.2-5.2-7.7-6.8-7.7
	c-1.7,0-3.5-1.5-4.1-3.3s-2.3-2.8-3.7-2.3c-4.1,1.3-6.9-1.9-9.2-10.6c-2.9-11-1.5-24.7,2.9-28.8c2.7-2.5,3.9-2.7,4.6-0.7
	c0.6,1.9,2,1.4,4.5-1.5c2.8-3.4,4.1-3.7,6.2-1.4c3.8,4,5.5,3.6,7-1.7c1.5-5-2.1-13-6-13.1c-1.3,0-4.1-2.1-6.2-4.6
	c-2.1-2.5-6.1-4.6-9-4.7c-2.8-0.1-5-0.9-4.8-1.8c1-5.3-0.4-9.3-3.3-9.4c-2.6-0.1-2.9,0.8-1.2,4.2c1.5,3,1.4,4.5-0.4,5
	c-1.4,0.4,1,3,5.3,5.8c8.4,5.3,9.5,8.6,4.7,14.7c-3.2,4.2-12.5,2.8-12.4-1.9c0-1.3-2.5-0.2-5.6,2.5c-3.1,2.7-5.7,6.7-5.8,8.8
	c-0.1,2.1-1.3,4.2-2.7,4.6c-1.4,0.4,0.8,2.5,5,4.7c6.7,3.4,7.9,5.5,10.4,17.1c1.5,7.3,2.1,14,1.4,14.9c-0.8,0.9,0.2,5.1,2.3,9.4
	l3.7,7.8l0.2-7.1c0.3-9.3,6.3-9.4,12-0.2c2.3,3.7,6.9,7.9,10.2,9.4c7.7,3.5,11.5,11.9,10.6,23.1c-1,12.6-3.3,16.3-10.1,16.1
	c-7.8-0.2-11-4.1-10.8-12.6c0.2-6.8-6.2-13-8.1-7.8c-1.1,3-9.3,2.7-9.2-0.3c0.1-3-5.3-8.8-8.3-8.9c-1.3,0-2.3-3.2-2.1-7
	c0.1-3.8-1.4-8.8-3.3-11.1c-2.8-3.3-2.9-4.1-0.4-4.1s2.5-0.3,0.3-1.8c-2.3-1.5-2.2-3,0.2-7.9c2.6-5.3,2.5-6.3-1.2-9.2
	c-2.6-2-4.5-2.4-5-1c-1.5,4-7,2.2-6.9-2.2c0.1-2.3-2.8-6.4-6.3-9.1c-7.7-5.9-8.1-13-1.4-25.2c2.6-4.6,4.7-9.7,4.7-11.1
	c0-1.5,2-4,4.4-5.5c4.6-3,8.3-20.3,4.9-22.5c-1-0.7-1.8-3.2-1.7-5.6c0.1-2.4,1.1-3.7,2.3-3c1.2,0.8,2-0.9,1.8-4.2
	c-0.4-7.2-3.2-7.3-5.2-0.3c-2.5,8.6-6.2,6.4-4.5-2.7c1.6-8.5,5.4-12.2,10.2-10.2c2,0.8,2.5,0,1.7-2.3c-0.7-1.9-1.2-5.2-1.3-7.2
	c0-2.3-0.5-2.6-1.2-1c-1.9,4.3-11.3,2.9-12.7-1.9c-1.4-5.1,1.2-15.5,3.9-15.4c1.1,0,2-1.3,2-2.9c0.1-4.4,9.7-2.9,10.5,1.7
	c0.4,2.3-0.7,3.8-2.8,3.7c-4-0.1-4.4,1.8-1.2,6.5c1.9,2.8,2.1,2.8,1.1-0.5c-0.7-2.5,0-3.8,2.1-3.8c1.8,0.1,3.2,0.9,3.2,1.8
	c0,0.9,2.8,3.5,6.4,5.8c6.3,4,8.7,10.5,3.8,10.3c-1.3,0-1.9,1.4-1.3,3.1c0.6,1.8-0.1,3.6-1.5,4.2s-0.2,0.9,2.8,0.8
	c4-0.2,5.4,0.8,5.1,3.6c-0.2,2.1,0.4,3.3,1.4,2.7c1-0.6,2.4-0.1,3.1,1.1c0.7,1.2,2.5,1.7,4.1,1.2c3.4-1.2,2.6-11.9-1.4-20.4
	c-3.1-6.5-0.9-9,7.9-8.8c3.8,0.1,4.8-0.8,4-3.3c-0.7-2-0.3-2.8,0.9-2c4.7,3.1,1.9-3.2-3.7-8.2c-8.1-7.3-9.7-10.6-6.6-14
	c2-2.2,1.9-4.1-0.1-7.6c-2.1-3.5-2.1-5.6-0.1-8.5c2.1-3.2,1.9-4.4-1.4-6.6c-5.8-3.9-8.8-3.5-15.8,2.1c-6.5,5.3-9.4,12.9-3,7.9
	c2.8-2.2,3.4-1.9,3.2,2c-0.2,5.6-3.9,5.9-9.2,0.7c-2.1-2.1-3.9-2.8-4-1.6c0,1.2,2.8,4.4,6.3,7.2c3.5,2.8,6.3,7,6.3,9.4
	c-0.2,4.6-3.4,5.7-5.6,1.9c-0.7-1.2-2.4-1.6-3.7-0.9c-1.4,0.8-1.8,0.4-0.8-1.1c0.9-1.4,0.7-2.5-0.4-2.5c-1.1,0-3.6-3.6-5.5-7.8
	c-1.9-4.3-4.4-7.8-5.6-7.8c-3.1-0.1-1.1-9.3,2.2-10.4c1.5-0.4,2.7,0.9,2.6,3.1c-0.2,5.3,3.4,1.4,5.3-5.8c1.2-4.5,0.4-6.2-3.8-8.7
	c-2.9-1.7-5.3-4.7-5.2-6.7s-3.9-8-8.8-13.4c-8.6-9.4-8.8-9.8-4-11.4c7-2.3,6.7-8-0.4-6.9c-3.8,0.6-5.9-0.3-6.8-3
	c-2.1-6,2.6-10.9,9.5-9.9c5.1,0.7,5.7,0.4,3.5-2.4c-2-2.6-2-3.7,0.3-5c1.6-0.9,69.4,0.2,150.6,2.5s151.9,5.3,155.2,4.8
	c22.5-0.9,38.3-1.9,64.8-1.7c26.5,0.2,60.5,0.3,75.6,0.2c15.1-0.1,41.6-0.3,58.9-0.4s32.1-0.4,32.9-0.8c0.8-0.4,24.5-0.1,52.8,0.6
	c28.3,0.7,54.9,0.4,59.2-0.7c4.2-1.1,15.6-1.7,25.2-1.4c9.6,0.3,29.1-0.1,43.4-0.8c14.2-0.7,37.4-1.4,51.5-1.6s34.6-0.5,45.4-0.7
	c10.9-0.3,30.1-0.7,42.7-1c12.7-0.3,30.9-1.2,40.6-2c9.7-0.8,35.7-1.9,57.9-2.5s41.1-1.5,42.1-2c4.2-2.4,56,0.6,64.2,3.8
	c7.8,3,8.5,4,8.6,11.9c0.2,8.1,1.4,38.7,4.4,105.1c0.7,15.7,1.5,36.9,1.8,47.2c0.3,10.2,0.9,22.6,1.3,27.4c0.4,4.8,0.8,22.1,1,38.4
	s0.9,39,1.7,50.4c0.8,11.5,2.9,53.9,4.6,94.4c5.7,133.4,7,161,8.6,183.2c0.9,12.1,1.8,28.9,2,37.3c0.3,8.5,1.4,36.1,2.5,61.4
	c1.1,25.3,2.1,56.1,2,68.4c0,16.7,0.9,24,3.7,29.1c2.1,3.8,4.8,6.9,6,6.9c1.9,0.1,6.1,12.8,10.4,31.5c0.5,2.1,1.8,3.9,2.9,3.9
	c3.4,0.1,2,8.5-3,17.7l-4.8,8.7l6.3,6.8l6.3,6.8l-4.7,5.1c-5,5.4-9.4,6.3-33,7.3c-9.1,0.4-15.3-0.3-16.1-1.8
	c-0.8-1.4-1.9-1.6-2.8-0.3c-1.6,2.3-76.6,6.1-126.5,6.4c-18.1,0.1-43.7,0.8-57,1.5c-18.7,1-143.4,4.3-163.9,4.4
	c-2.1,0-3.9,0.7-3.9,1.6c0,0.9-4.7,5-10.5,9.1c-13.2,9.5-25.1,12.5-35.1,8.8c-5.1-1.9-8.6-2-11.6-0.5c-2.4,1.2-13.6,3.9-25.1,6
	c-18.9,3.5-21.4,3.5-27.3,0.3c-5.8-3.1-7.3-3.2-13.2-0.4c-3.7,1.7-11.4,6.9-17.1,11.7c-6.6,5.4-12.2,8.3-15.3,7.9
	c-2.7-0.4-8.4,0.8-12.7,2.5c-4.3,1.7-11.7,3.8-16.5,4.5c-4.8,0.7-15.2,4.4-23,8.2c-7.9,3.8-16,6.8-18.1,6.8
	c-2.1-0.1-7.3,3.3-11.6,7.4s-10.2,7.8-13.1,8.1c-2.9,0.3-7.8,1.4-10.8,2.6c-6.8,2.5-28.1,5.1-34.1,4.1c-2.4-0.4-6.5-3.2-9.2-6.2
	c-6.6-7.4-20.2-7.9-29.8-1.1c-3.8,2.7-12.9,7-20.2,9.7c-7.3,2.6-15.4,6.5-18.1,8.7c-5.1,4.2-6.7,4.3-24.6,2.3
	c-10.9-1.2-12.2-0.9-21.7,6.9c-5.6,4.5-11,8.2-12,8.1c-4.8-0.2-8.7-3.3-8.6-6.9c0.2-7.6-2.5-11.3-10.8-14.9c-4.6-2-8.3-4.3-8.3-5.1
	c0.1-2.3-17.2-2.9-18.7-0.7c-0.8,1.2-2.8,1.1-5.2-0.2c-2.1-1.2-4.5-1.6-5.3-0.9c-0.8,0.7-3.2-0.4-5.5-2.6
	c-4.8-4.6-10.7-6.1-15.4-3.9c-1.8,0.9-8.3,2.1-14.3,2.7c-6,0.6-12.1,2-13.5,3.2c-3,2.4-16.2,1.4-16.2-1.2c0.1-2.9-8.7-2.2-16.8,1.3
	c-5.7,2.5-7.3,4.3-6.5,7.4c0.9,3-0.7,4.9-6.2,7.3c-4,1.8-11.8,5.4-17.4,8c-5.5,2.6-10.8,4.3-11.7,3.7c-0.9-0.6-2.9-0.2-4.4,0.9
	c-1.5,1.1-5.7,2.6-9.3,3.4c-3.6,0.7-8.5,3.2-10.7,5.5s-5,3.5-6.1,2.8c-1.1-0.7-2-0.5-2.1,0.5C464.2,994.5,446.9,993.3,443.4,989.5
	L443.4,989.5z M115.2,599.3c0.1-4.4,6.7-8.5,18.7-11.9c6.6-1.9,12.4-4.2,12.9-5.3c0.5-1.1-4.5-3.5-11.1-5.3
	c-6.6-1.9-12.9-4.8-14-6.5c-1.2-1.7-3.2-4.9-4.6-7.2c-2.4-3.9-2.7-3.9-5-0.4c-1.4,2.1-3.9,3.7-5.7,3.7c-4-0.1-4.3,6.5-0.5,12.1
	c1.6,2.3,2.4,5.5,1.7,7.1c-0.7,1.6,0.4,4.8,2.4,7.2c2,2.3,3,5.3,2.1,6.5c-0.8,1.2-0.5,2.3,0.8,2.4
	C114.1,601.6,115.2,600.6,115.2,599.3L115.2,599.3z M117.3,582.8c-0.7-0.8-0.8-2.3-0.1-3.3c1.5-2.2,5.3-0.2,5.2,2.8
	C122.3,584.7,119.3,584.9,117.3,582.8L117.3,582.8z M389.9,541.1c3-3.1,5-6.5,4.4-7.5s0-1.9,1.4-1.9c3.6,0.1,8.9-5.4,9-9.5
	c0.1-1.9,2.2-7.6,4.8-12.5c2.6-4.9,4.7-9.2,4.7-9.6c0.1-2.4-8.8,8.1-9.5,11.2c-1.6,7.2-6.3,5.5-9.9-3.6c-2.3-5.7-5-9.1-7.4-9.2
	c-4.5-0.2-4.6-0.7-1.1-11.9c1.5-4.7,4.8-10.3,7.5-12.5c4.8-4,4.8-4-2.1-0.5c-11.1,5.6-21.3,30.9-12.6,31.2c1.4,0,2,1.3,1.4,2.8
	c-0.7,1.7,0.9,2.9,4.1,3.2c6.2,0.6,11.6,4.8,11.4,9.1c0,1.7-1.6,3-3.4,2.9c-2.3-0.1-3.4,2.2-3.5,7.3c-0.3,10.1-5.6,14.1-11.3,8.6
	c-2.4-2.3-3.7-5.5-3-7.2c0.9-2,0.2-2.7-1.8-2c-3.9,1.4-9.1-4.6-10.9-12.5c-0.7-3.3-2.2-6.1-3.3-6.1c-3.7-0.1-1.6-11,2.9-15.2
	c4.5-4.3,5.8-12.8,3.1-20.4c-1.3-3.7-1.7-3.5-4.2,1.4c-2.3,4.6-2.2,5.3,0.5,4.4c2.3-0.8,2.8-0.1,1.8,2.3c-0.8,1.9-2.5,3.5-3.7,3.4
	c-1.2,0-1.6,1.6-0.9,3.6c1,2.9,0.7,3.1-1.6,1.1c-2.4-2.1-2.8-0.6-2.3,8.9c0.3,6.3,0.6,15.2,0.7,19.8c0.1,6,0.9,7.9,3.2,7.2
	c3.8-1.3,8.9,3,8.8,7.5c-0.2,5.3,6.3,11.6,12.1,11.8C382,546.6,386.8,544.1,389.9,541.1L389.9,541.1z M342,537.7
	c-0.7-1.9-2.2-3.5-3.5-3.5c-1.4,0-1.3,1.5,0.3,4.3C341.7,543.5,343.9,542.9,342,537.7L342,537.7z M332.1,529.6
	c4.1-2.5,0.6-2.6-5.5-0.2c-2.9,1.1-3.3,1.8-1.2,2C327.3,531.6,330.3,530.8,332.1,529.6z M348.5,530.2c0.8-1.2-0.6-2.2-3.1-2.3
	c-2.5-0.1-4.5,0.8-4.6,2c0,1.2,1.4,2.2,3.1,2.3C345.7,532.3,347.7,531.4,348.5,530.2z M379.1,523.5c0.7-1.8,0.4-3.3-0.8-3.3
	c-1.2,0-2.2,1.4-2.2,3.2c-0.1,1.8,0.3,3.3,0.8,3.3C377.3,526.7,378.4,525.2,379.1,523.5z M438.2,499.2c0-1.7-1.1-3.5-2.5-4.1
	c-1.6-0.6-1.9-2.5-0.7-5.1c1-2.3,2.2-7.5,2.6-11.6l0.8-7.4l-3.3,5.8c-2.8,5-3.8,5.4-6.7,2.8c-3-2.6-3.3-2.5-2.1,0.9
	c1,3,0.2,3.8-4.1,3.7c-3.9-0.1-5.4-1.4-5.3-4.6c0.1-2.4-0.7-4.4-1.8-4.4c-3.5-0.1-4.7,11.7-1.8,17.5c1.6,3.1,2.9,4.8,3,3.8
	c0.1-1-0.8-3.7-2-6.1c-1.7-3.4-1.4-4.3,1.1-4.2c3.4,0.1,9.9,6,9.8,8.9c0,1.6,7.9,6.5,11.3,7C437.4,502.3,438.2,500.9,438.2,499.2
	L438.2,499.2z M453.7,478.4c-2.8-1.8-10.5,1.2-10.6,4.2c0,1.1,2.9,0.9,6.5-0.3C453.8,480.9,455.3,479.5,453.7,478.4z M304,467.1
	c-0.9-4,0.6-8.2,6.9-19.7c2.9-5.2,2.6-6-1.3-4.7c-1.9,0.7-3,1.7-2.4,2.3c0.5,0.6-1.1,5.4-3.5,10.8c-5.4,11.6-6.1,18.4-1.7,16.9
	C303.7,472,304.6,469.8,304,467.1L304,467.1z M315.3,472.2c-5.9-2.8-9.4-2.9-5.5-0.2c1.8,1.2,4.7,2.2,6.5,2.2
	C318.5,474.2,318.2,473.5,315.3,472.2z M350,465.5c-1.8-3.5-2.1-3.5-3.5-0.2c-0.9,2.1-0.6,3.1,0.7,2.3c1.2-0.7,2.2-0.1,2.1,1.4
	c0,1.5,0.5,2.1,1.2,1.4C351.4,469.8,351.1,467.6,350,465.5L350,465.5L350,465.5z M417.8,467.2c-0.5-3.3-1.4-4.8-2-3.3
	c-1,2.8,0.4,9.3,2.1,9.3C418.3,473.2,418.3,470.5,417.8,467.2z M454.3,470.2c-0.3-3.2-3.6-9.9-3.8-7.6c-0.1,1.4-0.8,3.9-1.5,5.6
	c-0.8,1.8,0.1,3.1,2.1,3.2C452.9,471.4,454.4,470.9,454.3,470.2L454.3,470.2z M339.2,457.1c-1.5-1.6-2.5-1.8-2.6-0.4
	c0,1.2,0.6,2.9,1.3,3.8s1.9,1,2.6,0.4C341.2,460.3,340.6,458.6,339.2,457.1z M420.7,454.7c0.7-1.8,0.4-3.3-0.8-3.3
	c-1.2,0-2.2,1.4-2.2,3.2c-0.1,1.8,0.7,1.8,1.2,1.8C419.4,456.4,414.7,459.3,420.7,454.7L420.7,454.7z M318.6,437.2
	c0.8-1.2,0.4-2.2-0.8-2.2c-1.2,0-2.8,0.9-3.6,2.1c-0.8,1.2-0.4,2.2,0.8,2.2C316.2,439.3,317.8,438.4,318.6,437.2z M323.1,427
	c3.4-8.3,8.9-15.9,14.1-19c3-1.8,4.9-4.2,4.3-5.2c-1.6-2.7,16.2-12.7,23.8-13.4c8.3-0.8,10.7-2.3,10.8-6.8c0.1-2.8-0.4-3-1.8-0.9
	c-2.4,3.5-13.5,0.8-13.4-3.3c0-1.5,1.7-6.3,3.6-10.5c1.9-4.3,3.5-11.5,3.5-16c0-4.8-0.5-6.4-1.2-3.9c-0.7,2.4-2.6,5.1-4.3,6
	c-1.7,0.9-3.1,2.6-3.2,3.9s1,1.6,2.4,0.8c1.8-1,1.8-0.2-0.1,3c-1.4,2.4-3.5,4.7-4.7,5c-1.2,0.4-3.3,5.7-4.7,11.8
	c-2,9.1-4.6,13.2-13.9,22.2c-6.3,6-11.5,12.4-11.5,14.1c0,1.7-0.9,3.1-1.8,3.1c-0.9,0-2.9,2.9-4.4,6.4c-1.5,3.6-1.9,6.5-0.9,6.5
	C320.8,430.7,322.3,429,323.1,427L323.1,427z M391,399.9c0.1-2.5,1-61.4-2.1-3.2c-0.1,1.4-2.3,2.7-2.3,4.4c-0.1,1.7,0.9,3.2,2.1,3.2
	C389.9,404.4,390.9,402.4,391,399.9z M407.3,383.9c-1.8-3.5-2.1-3.2-1.9,1.8c0.1,3.2,1,5,2.1,4C408.5,388.7,408.4,386.1,407.3,383.9
	z M420,175.2c0-1-0.9-2.5-2.1-3.2c-1.2-0.8-2.2-0.9-2.2-0.4s-0.7,2.6-1.5,4.5c-1.1,2.5-0.5,3.1,2.1,2.2
	C418.3,177.6,420,176.2,420,175.2z M424.2,427.7c-0.9-1.6-1-3.4-0.3-4.1c2-1.9,4.1,1.1,2.9,4.2C426.1,430,425.6,430,424.2,427.7
	L424.2,427.7L424.2,427.7z M458,290.5c0-1.2,1.6-2.1,3.4-2.1c1.8,0.1,3.3,1.1,3.2,2.3c0,1.2-1.6,2.1-3.4,2.1
	C459.4,292.7,457.9,291.7,458,290.5z M356.6,171.1c0.2-5.4-6-8.7-15.1-8.1c-7.2,0.5-11.1-0.7-18.1-5.4c-16.8-11.4-19.8-15.6-19-25.7
	c0.4-5,0-11.3-0.9-13.9c-1.5-4.4-0.9-4.8,6.9-4.8c6.3,0,8.5,0.8,8.5,3.2c-0.1,1.8,0.9,3.3,2.1,3.3c1.2,0,5.9,4.1,10.4,9.1
	c4.5,5,9.3,9.1,10.7,9.1c4.2,0.1,2.5,7-2,8c-6.3,1.4-7.2,7.9-1.6,10.8c4.4,2.3,5.1,1.8,7.7-6.1c1.6-4.7,3.4-9.9,4.1-11.6
	c0.9-2.1,0.2-2.6-2.1-1.8c-2.1,0.7-4.5-0.6-6.1-3.5c-1.5-2.6-3.9-4.7-5.5-4.7c-3.4-0.1-3.4-1.3-0.3-6.7c1.9-3.3,1.7-4.2-1-4.3
	c-6-0.2-3.4-9.9,4.8-17.3c4.3-3.9,7.6-8.1,7.4-9.4c-0.2-1.3,3.4-2.8,7.9-3.5c4.5-0.6,8.2-0.4,8.2,0.7s0.7,1.7,1.6,1.5
	s6.7,3,12.8,7.2c11.8,8,12.8,12.7,3.3,14.8c-3.2,0.7-5.3,2.7-5.4,5.3c-0.1,2.3-1.7,4.1-3.5,4c-1.9-0.1-2.9-0.9-2.3-1.8
	c0.6-0.9-0.8-3-3.2-4.6c-3.9-2.6-4.2-2.5-3,1.8c1,3.6-0.4,6.2-6,10.9c-4.1,3.4-6.3,6.2-4.9,6.2c1.4,0,3.2-1,4-2.3c1-1.4,3,0,5.3,3.9
	c2.8,4.6,3.2,7.2,1.5,10.2c-1.6,2.8-1.6,5,0.2,7.3c1.4,1.8,3.1,2.8,3.7,2.2s0-2.5-1.4-4.4c-2.1-2.7-1.8-3.8,1.7-5.8
	c3.7-2.1,4-3.6,2.3-10.9c-2.5-10.7-0.8-12.2,7.5-7c6.9,4.4,8,6.5,4.2,8.6c-1.2,0.7-1.7,2.2-1.1,3.4c0.7,1.1-0.6,2-2.8,2
	c-3.2-0.1-3.4,0.3-0.9,2c2.6,1.8,2.5,2.9-0.9,7.7c-2.3,3.4-3.8,8.8-3.5,13.5c0.4,7.6,0.1,7.9-7.8,8.5
	C359.7,173.2,356.6,172.5,356.6,171.1L356.6,171.1z M346.8,121.8c-1.5-1.7-3.6-2.6-4.6-2.1c-1.1,0.6-0.6,2,1,3
	C347.6,125.8,349.8,125.3,346.8,121.8z M359.4,106.6c-0.6-1.8-1.5-3.3-2-3.4c-0.5,0-0.9,1.4-1,3.3c-0.1,1.8,0.9,3.3,2,3.4
	C359.6,109.9,360.1,108.4,359.4,106.6z M419.3,129.3c0-1.2,1.1-2.2,2.3-2.1c1.2,0,2.2,1.1,2.1,2.3c0,1.2-1.1,2.2-2.3,2.1
	C420.2,131.5,419.2,130.5,419.3,129.3z M296.1,100.2c-0.6-1.8-0.5-4.8,0.2-6.6c1.2-2.7,2.1-2.8,5.7-0.4c5.7,3.8,5.5,10.6-0.4,10.5
	C299.3,103.6,296.7,102.1,296.1,100.2z M329.1,96.9c0.7-1.8,0.5-3.3-0.5-3.3c-1,0-2.3-1.4-2.9-2.9c-1.1-3.1,10.7-4.8,12.3-1.7
	c1.8,3.2-3.1,11.4-6.7,11.3C329,100.2,328.2,98.9,329.1,96.9z M355.4,76c0-2.3,0.5-3.6,1.2-2.8c0.7,0.7,0.7,2.6,0,4.2
	C355.9,79.1,355.4,78.5,355.4,76L355.4,76L355.4,76z M324.4,13.1c0-1.6-0.9-3-2.1-3c-1.2,0-2.2-1.1-2.1-2.3s4.6-2,10.2-1.9
	c8.3,0.3,9.8,0.9,8.6,3.7c-0.8,1.9-1.5,4.2-1.5,5.1c0,0.9-3,1.6-6.6,1.4C326.8,16.1,324.3,14.9,324.4,13.1z"/>
</svg>
