<!-- Generator: Adobe Illustrator 24.0.1, SVG Export Plug-In  -->
<svg version="1.1" xmlns="http://www.w3.org/2000/svg" xmlns:xlink="http://www.w3.org/1999/xlink" x="0px" y="0px"
	 width="157.92px" height="186.88px" viewBox="0 0 157.92 186.88" style="enable-background:new 0 0 157.92 186.88;"
	 xml:space="preserve">
<style type="text/css">
	.st0{fill:#49D6B1;}
</style>
<defs>
</defs>
<g>
	<path d="M126.06,186.88H31.86c-9.24,0-16.99-6.99-17.94-16.18L0.1,63.8C-1,53.17,7.34,43.92,18.03,43.92h121.86
		c10.69,0,19.03,9.25,17.94,19.88l-13.83,106.89C143.05,179.89,135.3,186.88,126.06,186.88z"/>
	<g>
		<path d="M135.21,31.45h-11.54V16.27c0-2.61-2.12-4.73-4.73-4.73H38.98c-2.61,0-4.73,2.12-4.73,4.73v15.18H22.71V16.27
			C22.71,7.3,30.01,0,38.98,0h79.97c8.97,0,16.27,7.3,16.27,16.27V31.45z"/>
	</g>
	<circle class="st0" cx="78.96" cy="115.4" r="30.48"/>
</g>
</svg>
