<!-- Generator: Adobe Illustrator 24.0.1, SVG Export Plug-In  -->
<svg version="1.1" xmlns="http://www.w3.org/2000/svg" xmlns:xlink="http://www.w3.org/1999/xlink" x="0px" y="0px"
	 width="311.786px" height="260.783px" viewBox="0 0 311.786 260.783" enable-background="new 0 0 311.786 260.783"
	 xml:space="preserve">
<defs>
</defs>
<g>
	<path d="M258.079,54.279c-4.517-0.68-8.737,2.414-9.426,6.931l-10.685,70.047l-135.893,14.898L74.7,30.792
		c-0.885-3.73-4.216-6.363-8.049-6.363h-31.08c-4.569,0-8.273,3.704-8.273,8.273s3.704,8.273,8.273,8.273h24.54l34.715,146.299
		c0.885,3.73,4.216,6.363,8.05,6.363H232.25c4.569,0,8.273-3.704,8.273-8.273c0-4.569-3.704-8.273-8.273-8.273H109.415
		l-3.491-14.711l140.165-15.367c3.726-0.408,6.712-3.271,7.277-6.977l11.644-76.331C265.699,59.189,262.596,54.968,258.079,54.279z"
		/>
	<circle cx="121.65" cy="223.862" r="16.819"/>
	<circle cx="215.432" cy="223.862" r="16.819"/>
	<path fill="#49D6B1" d="M135.805,90.006l-22.531,1.119c-3.166,0.157-6.108-1.758-6.547-4.308l-3.449-20.05
		c-0.49-2.851,1.918-5.191,5.349-5.191h24.342c3.123,0,5.821,2.201,6.053,4.884l1.637,18.932
		C140.867,87.809,138.705,89.862,135.805,90.006z"/>
	<path fill="#49D6B1" d="M141.244,127.276l-20.361,2.257c-2.85,0.316-5.47-1.111-5.831-3.212l-2.827-16.432
		c-0.4-2.324,1.779-4.403,4.843-4.615l21.831-1.511c2.813-0.195,5.231,1.462,5.422,3.675l1.356,15.688
		C145.851,125.136,143.875,126.985,141.244,127.276z"/>
	<path fill="#49D6B1" d="M182.47,87.819l-19.14,0.951c-2.68,0.133-4.964-1.648-5.08-4.004l-0.903-18.439
		c-0.128-2.61,2.116-4.75,4.986-4.75h20.442c2.633,0,4.702,2.023,4.646,4.492l-0.4,17.49
		C186.97,85.799,184.942,87.696,182.47,87.819z"/>
	<path fill="#49D6B1" d="M182.093,122.821l-17.541,1.945c-2.448,0.271-4.526-1.089-4.622-3.06l-0.752-15.353
		c-0.106-2.163,1.938-4.083,4.543-4.263l18.628-1.29c2.409-0.167,4.306,1.391,4.259,3.457l-0.336,14.699
		C186.23,120.847,184.366,122.569,182.093,122.821z"/>
	<path fill="#49D6B1" d="M223.509,85.945l-16.46,0.818c-2.298,0.114-4.08-1.55-3.961-3.74l0.932-17.068
		c0.131-2.406,2.231-4.378,4.667-4.378h17.409c2.25,0,3.842,1.871,3.577,4.157l-1.881,16.252
		C227.55,84.075,225.641,85.839,223.509,85.945z"/>
	<path fill="#49D6B1" d="M220.947,119.616l-15.268,1.693c-2.125,0.236-3.78-1.062-3.679-2.917l0.786-14.405
		c0.11-2.023,2.034-3.806,4.277-3.961l16.082-1.113c2.085-0.144,3.579,1.325,3.355,3.263l-1.6,13.826
		C224.693,117.785,222.931,119.396,220.947,119.616z"/>
</g>
<rect fill="none" width="311.786" height="260.783"/>
</svg>
