<!-- Generator: Adobe Illustrator 24.0.1, SVG Export Plug-In  -->
<svg version="1.1" xmlns="http://www.w3.org/2000/svg" xmlns:xlink="http://www.w3.org/1999/xlink" x="0px" y="0px"
	 width="235.66px" height="157.58px" viewBox="0 0 235.66 157.58" style="enable-background:new 0 0 235.66 157.58;"
	 xml:space="preserve">
<style type="text/css">
	.st0{fill:#49D6B1;}
</style>
<defs>
</defs>
<g>
	<path d="M235.66,13.37v130.85c0,7.38-5.98,13.36-13.37,13.36H13.36C5.98,157.58,0,151.59,0,144.22V13.37C0,5.98,5.98,0,13.36,0
		h208.93C229.68,0,235.66,5.98,235.66,13.37z"/>
	<path class="st0" d="M175.01,36.22H30.23c-5.01,0-9.06-4.06-9.06-9.06v0c0-5.01,4.06-9.06,9.06-9.06h144.77
		c5.01,0,9.06,4.06,9.06,9.06v0C184.07,32.16,180.01,36.22,175.01,36.22z"/>

		<text transform="matrix(1 0 0 1 22.0445 109.8024)" class="st0" style="font-family:'FuturaPT-Heavy'; font-size:71.9164px; letter-spacing:2;">www</text>
	<circle class="st0" cx="205.67" cy="27.16" r="9.32"/>
</g>
</svg>
