<!-- Generator: Adobe Illustrator 24.0.1, SVG Export Plug-In  -->
<svg version="1.1" xmlns="http://www.w3.org/2000/svg" xmlns:xlink="http://www.w3.org/1999/xlink" x="0px" y="0px"
	 width="242.173px" height="260.783px" viewBox="0 0 242.173 260.783" enable-background="new 0 0 242.173 260.783"
	 xml:space="preserve">
<defs>
</defs>
<g>
	<path d="M215.429,52.608c0,94.523-76.615,170.988-170.988,170.988c-4.164,0-7.703-2.874-8.622-6.855l-7.109-30.791l-1.74-7.533
		c-0.958-4.164,1.218-8.439,5.161-10.172l41.276-17.686c3.61-1.551,7.814-0.515,10.316,2.541l5.122,6.256v0.007l13.157,16.07
		c28.856-13.522,52.035-37.034,65.303-65.303l-15.881-12.994l-6.452-5.285c-3.063-2.463-4.092-6.705-2.541-10.316l17.686-41.276
		c1.694-3.903,5.969-6.08,10.133-5.122l6.419,1.479v0.007l31.905,7.364C212.594,44.906,215.429,48.477,215.429,52.608z"/>
	<path fill="#49D6B1" d="M88.844,159.356v0.007c-16.533,20.514-36.825,28.582-60.135,26.588l-1.74-7.533
		c-0.958-4.164,1.218-8.439,5.161-10.172l41.276-17.686c3.61-1.551,7.814-0.515,10.316,2.541L88.844,159.356z"/>
	<path fill="#49D6B1" d="M151.423,97.136l-6.452-5.285c-3.063-2.463-4.092-6.705-2.541-10.316l17.686-41.276
		c1.694-3.903,5.969-6.08,10.133-5.122l6.419,1.479v0.007C180.063,60.786,172.269,81.17,151.423,97.136z"/>
</g>
<rect fill="none" width="242.173" height="260.783"/>
</svg>
