<!-- Generator: Adobe Illustrator 24.0.1, SVG Export Plug-In  -->
<svg version="1.1" xmlns="http://www.w3.org/2000/svg" xmlns:xlink="http://www.w3.org/1999/xlink" x="0px" y="0px"
	 width="3316.952px" height="1729.91px" viewBox="0 0 3316.952 1729.91" enable-background="new 0 0 3316.952 1729.91"
	 xml:space="preserve">
<defs>
</defs>
<linearGradient id="SVGID_1_" gradientUnits="userSpaceOnUse" x1="4006.3726" y1="685.8373" x2="4006.3726" y2="902.093" gradientTransform="matrix(-1 0 0 -1 4646.3906 1032.0824)">
	<stop  offset="0" style="stop-color:#FFFFFF;stop-opacity:0"/>
	<stop  offset="0.0716" style="stop-color:#EDFCFF;stop-opacity:0.0287"/>
	<stop  offset="0.2007" style="stop-color:#D2F9FF;stop-opacity:0.0804"/>
	<stop  offset="0.3425" style="stop-color:#BEF6FF;stop-opacity:0.1373"/>
	<stop  offset="0.5017" style="stop-color:#AFF4FF;stop-opacity:0.2011"/>
	<stop  offset="0.6924" style="stop-color:#A7F2FF;stop-opacity:0.2775"/>
	<stop  offset="0.9981" style="stop-color:#A4F2FF;stop-opacity:0.4"/>
</linearGradient>
<path fill="url(#SVGID_1_)" d="M152.115,267.478c0,40.621,101.128,73.55,225.875,73.55c31.479,0,61.452-2.098,88.677-5.886
	c21.948,18.822,77.819,32.198,143.276,32.198c49.63,0,93.749-7.69,121.75-19.613c35.938,7.855,79.185,12.438,125.72,12.438
	c124.747,0,225.875-32.93,225.875-73.55c0-7.902-3.829-15.513-10.912-22.647c33.93-9.159,55.546-22.992,55.546-38.472
	c0-27.576-68.599-49.931-153.22-49.931c-0.574,0-1.147,0.001-1.72,0.004c-13.784-36.321-108.884-64.438-224.155-64.438
	c-90.615,0-168.766,17.375-204.749,42.451c-23.817-4.97-52.133-7.852-82.513-7.852c-84.621,0-153.22,22.355-153.22,49.931
	c0,0.609,0.035,1.215,0.102,1.819C217.727,207.03,152.115,234.759,152.115,267.478z"/>
<linearGradient id="SVGID_2_" gradientUnits="userSpaceOnUse" x1="1942.0533" y1="686.8678" x2="1942.0533" y2="933.9955" gradientTransform="matrix(-1 0 0 -1 4646.3906 1032.0824)">
	<stop  offset="0" style="stop-color:#FFFFFF;stop-opacity:0"/>
	<stop  offset="0.0716" style="stop-color:#EDFCFF;stop-opacity:0.0287"/>
	<stop  offset="0.2007" style="stop-color:#D2F9FF;stop-opacity:0.0804"/>
	<stop  offset="0.3425" style="stop-color:#BEF6FF;stop-opacity:0.1373"/>
	<stop  offset="0.5017" style="stop-color:#AFF4FF;stop-opacity:0.2011"/>
	<stop  offset="0.6924" style="stop-color:#A7F2FF;stop-opacity:0.2775"/>
	<stop  offset="0.9981" style="stop-color:#A4F2FF;stop-opacity:0.4"/>
</linearGradient>
<path fill="url(#SVGID_2_)" d="M2146.782,255.203c0,46.42,115.564,84.05,258.12,84.05c35.973,0,70.225-2.397,101.337-6.726
	c25.082,21.509,88.928,36.795,163.729,36.795c56.716,0,107.132-8.788,139.13-22.413c41.068,8.976,90.489,14.213,143.667,14.213
	c142.556,0,258.12-37.631,258.12-84.05c0-9.03-4.375-17.728-12.47-25.88c38.774-10.466,63.476-26.275,63.476-43.964
	c0-31.513-78.392-57.059-175.093-57.059c-0.656,0-1.311,0.002-1.966,0.004c-15.751-41.506-124.428-73.637-256.155-73.637
	c-103.55,0-192.859,19.855-233.979,48.512c-27.217-5.68-59.575-8.973-94.293-8.973c-96.701,0-175.094,25.546-175.094,57.059
	c0,0.696,0.04,1.389,0.116,2.079C2221.761,186.126,2146.782,217.813,2146.782,255.203z"/>
<linearGradient id="SVGID_3_" gradientUnits="userSpaceOnUse" x1="4106.2617" y1="1315.4033" x2="4106.2617" y2="1099.1476" gradientTransform="matrix(1 0 0 1 -3092.5911 -1080.2887)">
	<stop  offset="0" style="stop-color:#FFFFFF;stop-opacity:0"/>
	<stop  offset="0.0716" style="stop-color:#EDFCFF;stop-opacity:0.0287"/>
	<stop  offset="0.2007" style="stop-color:#D2F9FF;stop-opacity:0.0804"/>
	<stop  offset="0.3425" style="stop-color:#BEF6FF;stop-opacity:0.1373"/>
	<stop  offset="0.5017" style="stop-color:#AFF4FF;stop-opacity:0.2011"/>
	<stop  offset="0.6924" style="stop-color:#A7F2FF;stop-opacity:0.2775"/>
	<stop  offset="0.9981" style="stop-color:#A4F2FF;stop-opacity:0.4"/>
</linearGradient>
<path fill="url(#SVGID_3_)" d="M1501.574,99.863c0-40.621-101.128-73.55-225.875-73.55c-31.479,0-61.452,2.098-88.677,5.886
	C1165.073,13.376,1109.203,0,1043.746,0c-49.631,0-93.749,7.69-121.75,19.613c-35.938-7.855-79.185-12.438-125.72-12.438
	c-124.747,0-225.875,32.93-225.875,73.55c0,7.902,3.829,15.513,10.912,22.647c-33.93,9.159-55.546,22.992-55.546,38.472
	c0,27.576,68.599,49.931,153.22,49.931c0.574,0,1.147-0.001,1.72-0.004c13.784,36.321,108.884,64.438,224.155,64.438
	c90.614,0,168.766-17.375,204.749-42.451c23.817,4.97,52.133,7.852,82.513,7.852c84.621,0,153.22-22.355,153.22-49.931
	c0-0.609-0.035-1.215-0.102-1.819C1435.962,160.311,1501.574,132.582,1501.574,99.863z"/>
<linearGradient id="SVGID_4_" gradientUnits="userSpaceOnUse" x1="5388.1587" y1="1590.6797" x2="5388.1587" y2="1343.5519" gradientTransform="matrix(1 0 0 1 -3092.5911 -1080.2887)">
	<stop  offset="0" style="stop-color:#FFFFFF;stop-opacity:0"/>
	<stop  offset="0.0716" style="stop-color:#EDFCFF;stop-opacity:0.0287"/>
	<stop  offset="0.2007" style="stop-color:#D2F9FF;stop-opacity:0.0804"/>
	<stop  offset="0.3425" style="stop-color:#BEF6FF;stop-opacity:0.1373"/>
	<stop  offset="0.5017" style="stop-color:#AFF4FF;stop-opacity:0.2011"/>
	<stop  offset="0.6924" style="stop-color:#A7F2FF;stop-opacity:0.2775"/>
	<stop  offset="0.9981" style="stop-color:#A4F2FF;stop-opacity:0.4"/>
</linearGradient>
<path fill="url(#SVGID_4_)" d="M2853.122,355.831c0-46.42-115.564-84.05-258.12-84.05c-35.972,0-70.224,2.397-101.336,6.726
	c-25.082-21.509-88.928-36.795-163.729-36.795c-56.716,0-107.132,8.788-139.13,22.413c-41.068-8.976-90.489-14.213-143.667-14.213
	c-142.556,0-258.12,37.631-258.12,84.05c0,9.03,4.375,17.728,12.47,25.88c-38.774,10.466-63.476,26.275-63.476,43.964
	c0,31.513,78.392,57.059,175.094,57.059c0.656,0,1.311-0.002,1.966-0.004c15.751,41.506,124.428,73.637,256.154,73.637
	c103.551,0,192.859-19.855,233.979-48.512c27.217,5.68,59.575,8.973,94.293,8.973c96.701,0,175.094-25.546,175.094-57.059
	c0-0.696-0.04-1.389-0.116-2.079C2778.144,424.908,2853.122,393.221,2853.122,355.831z"/>
<linearGradient id="SVGID_5_" gradientUnits="userSpaceOnUse" x1="1622.8849" y1="1729.91" x2="1622.8849" y2="791.1162">
	<stop  offset="0" style="stop-color:#FFFFFF;stop-opacity:0"/>
	<stop  offset="0.2012" style="stop-color:#F3FFFB;stop-opacity:0.2012"/>
	<stop  offset="0.7014" style="stop-color:#D9FFF1;stop-opacity:0.7014"/>
	<stop  offset="1" style="stop-color:#CFFFEE"/>
</linearGradient>
<path fill="url(#SVGID_5_)" d="M75.422,969.37c1047.078-218.354,2063.07-256.235,3094.925,0v760.54h-3090L75.422,969.37z"/>
<g>
	<g>
		<g>
			<circle fill="#49D6B1" cx="2239.95" cy="925.182" r="15.879"/>
			<path fill="#49D6B1" d="M2261.011,970.816v40.787h-42.118v-40.787c0-11.534,9.357-21.063,21.055-21.063
				c5.767,0,11.032,2.341,14.854,6.141C2258.632,959.701,2261.011,964.967,2261.011,970.816z"/>
		</g>
		<g>
			<path d="M2142.173,1063.55c0,19.545-15.85,35.387-35.394,35.387s-35.387-15.842-35.387-35.387c0-2.723,0.307-5.37,0.89-7.914
				c3.598-15.737,17.675-27.473,34.497-27.473c16.822,0,30.906,11.736,34.504,27.473
				C2141.866,1058.179,2142.173,1060.827,2142.173,1063.55z"/>
		</g>
		<circle cx="2281.84" cy="1083.352" r="15.587"/>
		<path d="M2305.052,872.546l-0.29,183.09h-149.01c-3.8-23.61-24.31-41.68-48.97-41.68c-13.65,0-26.04,5.54-35.01,14.49
			l-0.38-155.89h21.78v102.49h190.1v-102.5H2305.052z"/>
		<polygon points="2087.523,796.568 2071.299,872.547 2045.983,872.547 2062.129,796.568 		"/>
		<polygon points="2136.13,872.549 2110.775,872.549 2118.848,796.565 2144.242,796.565 		"/>
		<rect x="2175.567" y="796.563" width="25.394" height="75.989"/>
		<polygon points="2289.005,796.568 2305.23,872.547 2330.546,872.547 2314.4,796.568 		"/>
		<polygon points="2240.398,872.549 2265.754,872.549 2257.681,796.565 2232.286,796.565 		"/>
	</g>
	<g>
		<circle fill="#49D6B1" cx="2023.403" cy="1017.063" r="17.025"/>
		<path fill="#49D6B1" d="M2045.804,1130.656h-44.981v-64.669c0-12.365,10.036-22.58,22.58-22.58l0,0
			c12.365,0,22.58,10.036,22.58,22.58v64.669H2045.804z"/>
	</g>
	<g>
		<circle fill="#49D6B1" cx="2201.245" cy="1025.14" r="13.538"/>
		<path fill="#49D6B1" d="M2219.058,1098.813h-35.768v-34.77c0-9.833,7.98-17.955,17.955-17.955l0,0
			c9.833,0,17.955,7.98,17.955,17.955v34.77H2219.058z"/>
	</g>
	<path d="M2352.315,984.764h-62.986v-9.492h62.986c2.621,0,4.746,2.125,4.746,4.746l0,0
		C2357.061,982.639,2354.936,984.764,2352.315,984.764z"/>
</g>
<g>
	<g>
		<polygon fill="#49D6B1" points="968.46,1128.082 765.229,1128.082 787.857,1089.234 945.832,1089.234 		"/>
		<polygon fill="#49D6B1" points="952.663,1072.723 781.026,1072.723 803.654,1033.576 930.035,1033.576 		"/>
		<polygon fill="#49D6B1" points="936.865,1017.365 796.824,1017.365 819.452,977.918 914.237,977.918 		"/>
		<polygon fill="#49D6B1" points="921.068,962.006 812.621,962.006 835.249,922.261 898.44,922.261 		"/>
		<polygon fill="#49D6B1" points="905.27,906.648 828.419,906.648 851.047,866.603 882.642,866.603 		"/>
		<polygon fill="#49D6B1" points="889.472,851.289 844.216,851.289 866.844,810.945 866.844,810.945 		"/>
	</g>
	<rect x="839.628" y="1146.335" width="54.432" height="39.238"/>
</g>
<g>
	<polygon fill="#49D6B1" points="739.07,921.485 622.566,921.485 635.538,899.215 726.099,899.215 	"/>
	<polygon fill="#49D6B1" points="727.75,890.178 633.886,890.178 646.858,867.694 714.779,867.694 	"/>
	<polygon fill="#49D6B1" points="716.43,858.871 645.206,858.871 658.178,836.172 703.458,836.172 	"/>
	<polygon fill="#49D6B1" points="705.11,827.563 656.526,827.563 669.498,804.65 692.138,804.65 	"/>
	<polygon fill="#49D6B1" points="693.79,796.256 667.846,796.256 680.818,773.129 680.818,773.129 	"/>
	<rect x="665.216" y="930.403" width="31.204" height="22.494"/>
</g>
<g>
	<polygon fill="#49D6B1" points="2592.374,1116.169 2436.799,1116.169 2462.894,1077.321 2566.28,1077.321 	"/>
	<polygon fill="#49D6B1" points="2578.584,1061.556 2450.589,1061.556 2475.817,1022.334 2553.356,1022.334 	"/>
	<polygon fill="#49D6B1" points="2564.794,1006.943 2464.379,1006.943 2488.74,967.347 2540.433,967.347 	"/>
	<polygon fill="#49D6B1" points="2551.004,952.33 2478.169,952.33 2501.663,912.36 2527.51,912.36 	"/>
	<polygon fill="#49D6B1" points="2537.215,897.717 2491.959,897.717 2514.587,857.373 2514.587,857.373 	"/>
	<rect x="2488.108" y="1131.725" width="54.432" height="39.238"/>
</g>
<g>
	<polygon fill="#49D6B1" points="1970.599,888.631 1870.184,888.631 1881.406,863.557 1959.378,863.557 	"/>
	<polygon fill="#49D6B1" points="1964.666,855.315 1876.118,855.315 1887.904,830.08 1952.88,830.08 	"/>
	<polygon fill="#49D6B1" points="1958.732,821.999 1882.052,821.999 1894.401,796.602 1946.382,796.602 	"/>
	<polygon fill="#49D6B1" points="1952.798,788.682 1887.985,788.682 1900.899,763.125 1939.885,763.125 	"/>
	<polygon fill="#49D6B1" points="1946.865,755.366 1893.919,755.366 1907.396,729.648 1933.387,729.648 	"/>
	<polygon fill="#49D6B1" points="1940.931,722.05 1899.853,722.05 1913.894,696.171 1926.89,696.171 	"/>
	<polygon fill="#49D6B1" points="1934.997,688.733 1905.787,688.733 1920.392,662.694 1920.392,662.694 	"/>
	<rect x="1902.825" y="897.999" width="35.133" height="25.326"/>
</g>
<path fill="none" stroke="#000000" stroke-width="18" stroke-miterlimit="10" d="M2244.931,778.275"/>
<g>
	<polygon points="1144.11,857.719 1179.772,857.719 1213.104,714.355 1177.442,714.355 	"/>
	<polygon points="1237.297,857.719 1272.959,857.719 1306.47,714.355 1270.808,714.355 	"/>
	<polygon points="1330.573,857.719 1366.235,857.719 1399.747,714.355 1364.085,714.355 	"/>
	<polygon points="1423.85,857.719 1459.512,857.719 1493.023,714.355 1457.361,714.355 	"/>
	<polygon points="1119.917,714.355 1086.406,857.719 1050.744,857.719 1084.076,714.355 	"/>
	<rect x="1187.682" y="929.446" width="50.621" height="145.447"/>
	<rect x="1086.406" y="857.719" width="35.662" height="218.209"/>
	<polygon points="1330.573,929.441 1458.436,929.634 1458.436,1025.539 1330.573,1025.346 	"/>
	<g>
		<circle fill="#49D6B1" cx="1423.939" cy="979.483" r="17.025"/>
		<path fill="#49D6B1" d="M1446.161,1025.539h-44.622c1.434-11.111,10.932-19.713,22.401-19.713c6.272,0,11.828,2.509,15.949,6.631
			C1443.294,1015.862,1445.623,1020.521,1446.161,1025.539z"/>
	</g>
	<g>
		<circle fill="#49D6B1" cx="1238.387" cy="1013.023" r="17.025"/>
		<path fill="#49D6B1" d="M1260.788,1126.615h-44.981v-64.669c0-12.365,10.036-22.58,22.58-22.58l0,0
			c12.365,0,22.58,10.036,22.58,22.58v64.669H1260.788z"/>
	</g>
</g>
<g>
	<path fill="#49D6B1" d="M1839.668,1104.492c-4.675,29.889-19.522,58.17-45.335,82.778l-77.095,73.511
		c-15.469,14.749-36.021,22.978-57.395,22.978h-230.144c-10.571,0-14.734-13.701-5.951-19.582l269.848-180.695
		c20.061-13.434,28.961-32.694,25.551-51.992c-3.119-17.674-16.149-32.567-35.2-41.662l-59.479-28.385
		c-19.35-9.238-33.083-20.247-41.116-32.372c-7.009-10.591-9.155-21.647-6.687-31.939c2.304-9.589,8.624-18.565,17.981-26.089
		c9.41-7.57,21.594-13.628,36.209-18.221l37.75-11.848c10.24-3.216,14.745-7.92,14.571-13c-0.55-15.969-65.332-33.909-65.332-33.909
		c43.31-2.743,76.365,7.499,76.365,7.499c11.975,2.827,22.11,6.537,30.099,11.107c7.846,4.488,13.381,9.754,15.827,15.303
		c2.573,5.849,1.728,12.027-2.723,17.839c-5.004,6.522-14.129,12.342-27.271,17.136l-39.209,14.309
		c-12.192,4.451-19.268,11.601-19.066,19.874c0.209,8.789,8.534,17.3,23.262,23.097l55.559,21.878
		c22.065,8.684,41.774,20.352,58.716,35.23c17.256,15.154,31.385,33.704,40.391,54.153
		C1839.78,1054.146,1843.588,1079.397,1839.668,1104.492z"/>
</g>
<g>
	<polygon fill="#49D6B1" points="3316.952,1392.425 2756.705,1392.425 2819.083,1285.333 3254.573,1285.333 	"/>
	<polygon fill="#49D6B1" points="3262.516,1241.874 2811.141,1241.874 2873.52,1133.751 3200.137,1133.751 	"/>
	<polygon fill="#49D6B1" points="3208.08,1091.323 2865.577,1091.323 2927.956,982.169 3145.701,982.169 	"/>
	<polygon fill="#49D6B1" points="3153.643,940.772 2920.013,940.772 2982.392,830.587 3091.265,830.587 	"/>
	<polygon fill="#49D6B1" points="3099.207,790.221 2974.45,790.221 3036.828,679.005 3036.828,679.005 	"/>
	<rect x="2961.802" y="1435.308" width="150.053" height="108.167"/>
</g>
<g>
	<polygon fill="#49D6B1" points="426.499,1411.757 0,1411.757 47.663,1305.258 378.836,1305.258 	"/>
	<polygon fill="#49D6B1" points="401.296,1270.251 25.203,1270.251 75.26,1163.068 351.238,1163.068 	"/>
	<polygon fill="#49D6B1" points="376.093,1128.745 50.405,1128.745 102.858,1020.879 323.641,1020.879 	"/>
	<polygon fill="#49D6B1" points="350.891,987.239 75.608,987.239 130.456,878.689 296.043,878.689 	"/>
	<polygon fill="#49D6B1" points="325.688,845.733 100.811,845.733 158.054,736.5 268.445,736.5 	"/>
	<polygon fill="#49D6B1" points="300.485,704.227 126.013,704.227 185.652,594.31 240.847,594.31 	"/>
	<polygon fill="#49D6B1" points="275.283,562.721 151.216,562.721 213.249,452.121 213.249,452.121 	"/>
	<rect x="138.638" y="1451.544" width="149.223" height="107.569"/>
</g>
</svg>
