<!-- Generator: Adobe Illustrator 24.0.1, SVG Export Plug-In  -->
<svg version="1.1" xmlns="http://www.w3.org/2000/svg" xmlns:xlink="http://www.w3.org/1999/xlink" x="0px" y="0px" width="252.2px"
	 height="166.3px" viewBox="0 0 252.2 166.3" style="enable-background:new 0 0 252.2 166.3;" xml:space="preserve">
<style type="text/css">
	.st0{fill:#49D6B1;}
	.st1{fill:none;}
</style>
<defs>
</defs>
<g>
	<path class="st0" d="M201.1,20l49-20l2.1,46.8l-15.4-9C163.8,140.2,74.3,166.3,0,161.3c0,0,15.6-3.7,40.3-9.3
		c44.9-10.1,121.4-41.5,177-123.6L201.1,20z"/>
</g>
<g>
	<polygon points="103.2,165.1 108,144.5 108,144.5 112.7,124.2 115.1,114.2 94.1,114.2 89,135.9 85.2,152.4 85.2,152.4 82.1,165.4
		"/>
	<polygon points="177.4,82 171.5,107.5 158.3,164.2 137.2,164.5 146.4,125.1 152.7,97.8 156.4,82 	"/>
	<polygon points="55.6,134.1 52.1,149.1 49.6,159.8 48.1,166 27.1,166.3 28.1,161.7 29.8,154.4 34.6,134.1 	"/>
	<polygon points="244.4,29.9 241.9,40.7 213.3,163.3 192.3,163.6 215.1,65.5 223.5,29.9 	"/>
</g>
<line class="st1" x1="103.2" y1="165.1" x2="82.1" y2="165.4"/>
</svg>
