<!-- Generator: Adobe Illustrator 24.0.1, SVG Export Plug-In  -->
<svg version="1.1" xmlns="http://www.w3.org/2000/svg" xmlns:xlink="http://www.w3.org/1999/xlink" x="0px" y="0px" width="407.5px"
	 height="407.5px" viewBox="0 0 407.5 407.5" style="enable-background:new 0 0 407.5 407.5;" xml:space="preserve">
<style type="text/css">
	.st0{fill:#49D6B1;}
</style>
<defs>
</defs>
<polygon points="90.7,141.2 110.6,141.2 129.3,61.3 109.4,61.3 "/>
<polygon points="142.8,141.2 162.7,141.2 181.3,61.3 161.4,61.3 "/>
<path d="M44.5,116.2c7.8-14.3,17.6-27.5,29.1-39.3l-15,64.3H38.7L44.5,116.2z"/>
<polygon points="233.4,61.3 214.7,141.2 194.8,141.2 213.5,61.3 "/>
<polygon points="255.6,141.2 270.2,126.7 266.8,141.2 "/>
<polygon points="285.4,61.3 273.2,113.8 273.2,113.8 247.3,139.7 265.6,61.3 "/>
<polygon points="328.6,99.4 318.9,141.2 298.9,141.2 302.7,125.4 "/>
<path d="M321.5,65.5l-6.4,6.4l2.3-9.8C318.8,63.2,320.2,64.3,321.5,65.5z"/>
<path d="M337.5,61.3l-5.9,25.2l-26,26l6.5-27.7l19.6-19.6c-1.4-1.3-2.9-2.6-4.3-3.9H337.5z"/>
<path d="M358.6,108.7c5.3,8.6,9.9,17.6,13.6,26.9l-1.3,5.7H351L358.6,108.7z"/>
<path d="M380.1,101.8l-5.2,22.4c-4.1-8.7-8.8-17.1-14.1-25l4.5-19.4C370.7,86.8,375.6,94.1,380.1,101.8z"/>
<path d="M78.5,141.2v167.2l-13.1,13.1c-2.4-2.8-4.7-5.6-6.9-8.6V141.2H78.5z"/>
<polygon points="182.6,173.4 182.6,204.4 161.5,225.5 110.6,225.5 110.6,173.4 "/>
<polygon points="181.4,215.5 182.6,214.3 182.6,225.5 171.4,225.5 172.8,224.1 "/>
<polygon points="129.4,257.6 110.6,276.4 110.6,257.6 "/>
<polygon points="160.5,257.6 110.6,307.5 110.6,286.2 139.3,257.6 "/>
<polygon points="182.6,257.6 182.6,309.7 118.4,309.7 170.4,257.6 "/>
<polygon points="244.7,173.4 214.8,203.4 214.8,182.1 223.5,173.4 "/>
<polygon points="286.7,173.4 286.7,225.5 214.8,225.5 214.8,213.2 254.6,173.4 "/>
<rect x="214.8" y="257.4" width="26" height="52.1"/>
<rect x="260.7" y="257.4" width="26" height="52.1"/>
<path d="M382.9,173.4c1.7,10,2.6,20.1,2.6,30.4c0,7.3-0.4,14.6-1.3,21.7h-65.3v-52.1H382.9z"/>
<path d="M390.9,173.4v5.5c-0.2-1.8-0.5-3.7-0.8-5.5H390.9z"/>
<path d="M377.4,257.6c-5.9,18.8-14.7,36.4-26,52.1h-32.5v-52.1H377.4z"/>
<g>
	<path class="st0" d="M143.4,333.9c0,7.8-6.3,14.1-14.1,14.1s-14.1-6.3-14.1-14.1c0-7.8,6.3-14.1,14.1-14.1S143.4,326.1,143.4,333.9
		z"/>
	<path class="st0" d="M147.8,374.3v2.3c-11.4-3.7-22.3-8.5-32.8-14.3c3.4-4,8.5-6.6,14.2-6.6c5.1,0,9.8,2.1,13.1,5.4
		C145.8,364.6,147.8,369.2,147.8,374.3z"/>
	<path class="st0" d="M147.8,384v15.7c-13-3.7-25.4-8.7-37.2-14.8v-10.6c0-2.1,0.3-4.1,1-5.9C123,374.8,135.1,380.1,147.8,384z"/>
</g>
<g>
	<path class="st0" d="M223.3,277.4c0,4.7-3.8,8.4-8.4,8.4h-0.1c-4.6,0-8.3-3.8-8.3-8.4s3.7-8.4,8.3-8.4h0.1
		C219.5,268.9,223.3,272.7,223.3,277.4z"/>
	<path class="st0" d="M225.9,301.5v21.6h-22.2v-21.6c0-6.1,4.9-11,11-11.1h0.1c3.1,0,5.8,1.2,7.9,3.2
		C224.7,295.7,225.9,298.5,225.9,301.5z"/>
</g>
<g>
	<path class="st0" d="M373.5,200.4c0,4.1-3.3,7.4-7.4,7.4H366c-4.1,0-7.3-3.3-7.3-7.4c0-4.1,3.3-7.4,7.3-7.4h0.1
		C370.1,193,373.5,196.3,373.5,200.4z"/>
	<path class="st0" d="M375.8,221.7v3.7h-19.5v-3.7c0-5.4,4.3-9.7,9.7-9.8h0.1c2.7,0,5.1,1.1,6.9,2.9
		C374.7,216.6,375.8,219,375.8,221.7z"/>
</g>
<g>

		<ellipse transform="matrix(0.9951 -9.853793e-02 9.853793e-02 0.9951 -27.257 27.0977)" class="st0" cx="260.7" cy="289.5" rx="10.4" ry="10.4"/>
	<path class="st0" d="M274.3,318.1v27.5h-27.2v-27.5c0-6.9,5.6-12.6,12.6-12.6h2.1c3.6,0,6.9,1.5,9.2,4
		C273,311.7,274.3,314.7,274.3,318.1z"/>
</g>
<g>
	<circle class="st0" cx="181.6" cy="305" r="11"/>
	<path class="st0" d="M196,336.4v28h-28.8v-28c0-0.8,0.1-1.6,0.2-2.4c1.1-6.8,7.1-12,14.2-12c4,0,7.6,1.6,10.2,4.2
		c2.1,2.1,3.5,4.8,4,7.8C195.9,334.8,196,335.6,196,336.4z"/>
</g>
<g>
	<path class="st0" d="M95.9,291.1l-16.6,16.6c-0.3-0.1-0.5-0.2-0.8-0.4c-3.8-2.1-6.4-6.2-6.4-10.9c0-4.7,2.6-8.8,6.4-10.9
		c1.8-1,3.9-1.6,6.1-1.6C89.6,283.9,93.9,286.9,95.9,291.1z"/>
	<path class="st0" d="M96.3,300.6c-1.2,3.6-4.1,6.4-7.6,7.6L96.3,300.6z"/>
	<path class="st0" d="M101,362v2.1H78.2c-3.5-2.7-6.8-5.5-10.1-8.5v-26.9l10.4-10.4l2.6-2.6h7.3c3.8,0,7.2,1.7,9.5,4.4l-19.5,19.5
		l-2.7,2.7c0.9,0.8,1.8,1.7,2.7,2.5C85.5,351.1,93.1,356.8,101,362z"/>
	<path class="st0" d="M101,328.3v25.3c-5.2-3.6-10.2-7.4-15-11.5l15-15C101,327.5,101,327.9,101,328.3z"/>
</g>
<g>
	<circle class="st0" cx="336.5" cy="288.2" r="7.5"/>
	<path class="st0" d="M346.3,309.6L346.3,309.6l-19.6,0.1v-0.1c0-5.4,4.4-9.8,9.8-9.8c2.7,0,5.2,1.1,6.9,2.9
		C345.2,304.4,346.3,306.9,346.3,309.6z"/>
</g>
<g>
	<path class="st0" d="M182.6,193.3v11l-6.8,6.8c-2.1-1.9-3.4-4.6-3.4-7.6C172.4,197.9,177,193.3,182.6,193.3z"/>
	<path class="st0" d="M182.6,215.4v10h-9.9v-0.1c0-0.4,0-0.8,0.1-1.2l8.6-8.6C181.8,215.5,182.2,215.4,182.6,215.4z"/>
</g>
<g>
	<g>
		<path class="st0" d="M96.3,300.6l-7.6,7.6l-7.6,7.5h7.3c3.8,0,7.2,1.7,9.5,4.4l12.7-12.7v-21.2L96.3,300.6z M96.3,300.6l-7.6,7.6
			l-7.6,7.5h7.3c3.8,0,7.2,1.7,9.5,4.4l12.7-12.7v-21.2L96.3,300.6z M182.6,214.3l-1.2,1.2l-8.6,8.6l-1.3,1.3l-32.1,32.1l-28.7,28.7
			l-14.3,14.3l-7.6,7.6l-7.6,7.5h7.3c3.8,0,7.2,1.7,9.5,4.4l116.8-116.8v-21.2L182.6,214.3z M182.6,214.3l-1.2,1.2l-8.6,8.6
			l-1.3,1.3l-32.1,32.1l-28.7,28.7l-14.3,14.3l-7.6,7.6l-7.6,7.5l-2.6,2.6v21.2L98,320.2l116.8-116.8v-21.2L182.6,214.3z
			 M182.6,214.3l-1.2,1.2l-8.6,8.6l-1.3,1.3l-32.1,32.1l-28.7,28.7l-14.3,14.3l-7.6,7.6l-7.6,7.5l-2.6,2.6v21.2L98,320.2
			l116.8-116.8v-21.2L182.6,214.3z M182.6,214.3l-1.2,1.2l-8.6,8.6l-1.3,1.3l-32.1,32.1l-28.7,28.7l-14.3,14.3l-7.6,7.6l-7.6,7.5
			l-2.6,2.6v21.2L98,320.2l116.8-116.8v-21.2L182.6,214.3z M182.6,214.3l-1.2,1.2l-8.6,8.6l-1.3,1.3l-32.1,32.1l-28.7,28.7
			l-14.3,14.3l-7.6,7.6l-7.6,7.5l-2.6,2.6v21.2L98,320.2l116.8-116.8v-21.2L182.6,214.3z M270.2,126.7L270.2,126.7l-14.6,14.6
			l-32.1,32.1l-8.7,8.7l-32.1,32.2l-1.2,1.2l-8.6,8.6l-1.3,1.3l-32.1,32.1l-28.7,28.7l-14.3,14.3l-7.6,7.6l-7.6,7.5l-2.6,2.6v21.2
			L98,320.2l207.7-207.7l6.5-27.7L270.2,126.7z M270.2,126.7L270.2,126.7l-14.6,14.6l-32.1,32.1l-8.7,8.7l-32.1,32.2l-1.2,1.2
			l-8.6,8.6l-1.3,1.3l-32.1,32.1l-28.7,28.7l-14.3,14.3l-7.6,7.6l-7.6,7.5l-2.6,2.6v21.2L98,320.2l207.7-207.7l6.5-27.7L270.2,126.7
			z M270.2,126.7L270.2,126.7l-14.6,14.6l-32.1,32.1l-8.7,8.7l-32.1,32.2l-1.2,1.2l-8.6,8.6l-1.3,1.3l-32.1,32.1l-28.7,28.7
			l-14.3,14.3l-7.6,7.6l-7.6,7.5h7.3c3.8,0,7.2,1.7,9.5,4.4l207.7-207.7l6.5-27.7L270.2,126.7z M270.2,126.7L270.2,126.7l-14.6,14.6
			l-32.1,32.1l-8.7,8.7l-32.1,32.2l-1.2,1.2l-8.6,8.6l-1.3,1.3l-32.1,32.1l-28.7,28.7l-14.3,14.3l-7.6,7.6l-7.6,7.5h7.3
			c3.8,0,7.2,1.7,9.5,4.4l207.7-207.7l6.5-27.7L270.2,126.7z M270.2,126.7L270.2,126.7l-14.6,14.6l-32.1,32.1l-8.7,8.7l-32.1,32.2
			l-1.2,1.2l-8.6,8.6l-1.3,1.3l-32.1,32.1l-28.7,28.7l-14.3,14.3l-7.6,7.6l-7.6,7.5h7.3c3.8,0,7.2,1.7,9.5,4.4l207.7-207.7l6.5-27.7
			L270.2,126.7z M270.2,126.7L270.2,126.7l-14.6,14.6l-32.1,32.1l-8.7,8.7l-32.1,32.2l-1.2,1.2l-8.6,8.6l-1.3,1.3l-32.1,32.1
			l-28.7,28.7l-14.3,14.3l-7.6,7.6l-7.6,7.5h7.3c3.8,0,7.2,1.7,9.5,4.4l207.7-207.7l6.5-27.7L270.2,126.7z M380.1,101.8
			c-4.4-7.7-9.4-15-14.8-22C328.1,31.3,269.5,0,203.8,0c-34.8,0-69.2,8.9-99.3,25.8c-17.3,9.7-32.8,21.7-46.3,35.4
			c-0.4,0.4-0.7,0.8-1.1,1.1C21,99.9,0,150.4,0,203.8c0,35.7,9.2,69.3,25.5,98.6c6.2,11.1,13.3,21.6,21.4,31.3
			c3.7,4.5,7.6,8.8,11.7,12.9c2.2,2.3,4.5,4.5,6.9,6.7c0.9,0.8,1.8,1.6,2.6,2.4c3.3,2.9,6.6,5.8,10.1,8.5
			C88.3,372,99.2,379,110.6,385c11.8,6.1,24.2,11,37.2,14.8c17.8,5.1,36.5,7.8,55.9,7.8c73.6,0,138.2-39.2,174-97.8
			c4.9-8.1,9.3-16.5,13.1-25.3c10.7-24.7,16.6-52,16.6-80.6C407.5,166.6,397.5,131.8,380.1,101.8z M65.1,331.7
			c-2.3-2.4-4.5-4.9-6.6-7.5c-4.3-5.2-8.4-10.6-12.1-16.3c-1.4-2.1-2.7-4.2-4-6.4c-1.7-2.9-3.4-5.8-5-8.7c-3-5.5-5.7-11.3-8.1-17.1
			c-9.2-22.2-14.3-46.5-14.3-72c0-39.5,12.4-77.3,34.4-108.6c0,0,0,0,0,0C57.3,84,66.3,73.6,76.5,64.3h0
			c10.6-9.7,22.4-18.2,35.2-25.4c28-15.6,59.8-23.9,92-23.9c47.2,0,90.5,17.5,123.6,46.3c1.5,1.3,2.9,2.6,4.3,3.9l-19.6,19.6
			l-41.9,41.9l0,0l-14.6,14.5l-32.1,32.1l-8.7,8.7l-32.1,32.2l-1.2,1.2l-8.6,8.6l-1.3,1.3l-32.1,32.1l-28.7,28.7l-14.3,14.3
			l-7.6,7.6l-7.6,7.5l-2.6,2.6 M384.7,257.6c-5.6,18.7-14,36.2-24.8,52.1c-34,50-91.3,82.8-156.2,82.8c-19.5,0-38.2-3-55.9-8.5
			c-12.7-3.9-24.8-9.2-36.2-15.6c-3.6-2-7.2-4.2-10.6-6.4c-7.9-5.2-15.4-10.9-22.5-17.2c-0.9-0.8-1.8-1.6-2.7-2.5l2.7-2.7L98,320.2
			L342.3,75.8c6.7,7.3,12.9,15.1,18.5,23.4c5.3,7.9,10,16.3,14.1,25c7.2,15.4,12.4,31.9,15.2,49.2c0.3,1.8,0.6,3.7,0.8,5.5
			c1.1,8.1,1.6,16.4,1.6,24.9C392.5,222.5,389.8,240.5,384.7,257.6z M270.2,126.7L270.2,126.7l-14.6,14.6l-32.1,32.1l-8.7,8.7
			l-32.1,32.2l-1.2,1.2l-8.6,8.6l-1.3,1.3l-32.1,32.1l-28.7,28.7l-14.3,14.3l-7.6,7.6l-7.6,7.5h7.3c3.8,0,7.2,1.7,9.5,4.4
			l207.7-207.7l6.5-27.7L270.2,126.7z M270.2,126.7L270.2,126.7l-14.6,14.6l-32.1,32.1l-8.7,8.7l-32.1,32.2l-1.2,1.2l-8.6,8.6
			l-1.3,1.3l-32.1,32.1l-28.7,28.7l-14.3,14.3l-7.6,7.6l-7.6,7.5h7.3c3.8,0,7.2,1.7,9.5,4.4l207.7-207.7l6.5-27.7L270.2,126.7z
			 M270.2,126.7L270.2,126.7l-14.6,14.6l-32.1,32.1l-8.7,8.7l-32.1,32.2l-1.2,1.2l-8.6,8.6l-1.3,1.3l-32.1,32.1l-28.7,28.7
			l-14.3,14.3l-7.6,7.6l-7.6,7.5h7.3c3.8,0,7.2,1.7,9.5,4.4l207.7-207.7l6.5-27.7L270.2,126.7z M270.2,126.7L270.2,126.7l-14.6,14.6
			l-32.1,32.1l-8.7,8.7l-32.1,32.2l-1.2,1.2l-8.6,8.6l-1.3,1.3l-32.1,32.1l-28.7,28.7l-14.3,14.3l-7.6,7.6l-7.6,7.5l-2.6,2.6v21.2
			L98,320.2l207.7-207.7l6.5-27.7L270.2,126.7z M182.6,214.3l-1.2,1.2l-8.6,8.6l-1.3,1.3l-32.1,32.1l-28.7,28.7l-14.3,14.3l-7.6,7.6
			l-7.6,7.5l-2.6,2.6v21.2L98,320.2l116.8-116.8v-21.2L182.6,214.3z M182.6,214.3l-1.2,1.2l-8.6,8.6l-1.3,1.3l-32.1,32.1l-28.7,28.7
			l-14.3,14.3l-7.6,7.6l-7.6,7.5l-2.6,2.6v21.2L98,320.2l116.8-116.8v-21.2L182.6,214.3z M182.6,214.3l-1.2,1.2l-8.6,8.6l-1.3,1.3
			l-32.1,32.1l-28.7,28.7l-14.3,14.3l-7.6,7.6l-7.6,7.5l-2.6,2.6v21.2L98,320.2l116.8-116.8v-21.2L182.6,214.3z M182.6,214.3
			l-1.2,1.2l-8.6,8.6l-1.3,1.3l-32.1,32.1l-28.7,28.7l-14.3,14.3l-7.6,7.6l-7.6,7.5l-2.6,2.6v21.2L98,320.2l116.8-116.8v-21.2
			L182.6,214.3z"/>
	</g>
</g>
</svg>
