<!-- Generator: Adobe Illustrator 24.0.1, SVG Export Plug-In  -->
<svg version="1.1" xmlns="http://www.w3.org/2000/svg" xmlns:xlink="http://www.w3.org/1999/xlink" x="0px" y="0px" width="172px"
	 height="172px" viewBox="0 0 172 172" style="enable-background:new 0 0 172 172;" xml:space="preserve">
<style type="text/css">
	.st0{fill:#49D6B1;}
</style>
<defs>
</defs>
<g>
	<path d="M172,16.13C172,102.29,102.16,172,16.13,172c-3.8,0-7.02-2.62-7.86-6.25l-6.48-28.07l-1.59-6.87
		c-0.87-3.8,1.11-7.69,4.7-9.27l37.63-16.12c3.29-1.41,7.12-0.47,9.4,2.32l4.67,5.7v0.01l11.99,14.65
		c26.3-12.33,47.43-33.76,59.53-59.53l-14.48-11.84l-5.88-4.82c-2.79-2.25-3.73-6.11-2.32-9.4l16.12-37.63
		c1.54-3.56,5.44-5.54,9.24-4.67l5.85,1.35v0.01l29.08,6.71C169.41,9.11,172,12.36,172,16.13z"/>
	<path class="st0" d="M56.61,113.44L56.61,113.44c-15.07,18.71-33.57,26.06-54.82,24.24l-1.59-6.87c-0.87-3.8,1.11-7.69,4.7-9.27
		l37.63-16.12c3.29-1.41,7.12-0.47,9.4,2.32L56.61,113.44z"/>
	<path class="st0" d="M113.65,56.72l-5.88-4.82c-2.79-2.25-3.73-6.11-2.32-9.4l16.12-37.63c1.54-3.56,5.44-5.54,9.24-4.67l5.85,1.35
		v0.01C139.76,23.59,132.65,42.17,113.65,56.72z"/>
</g>
</svg>
