<!-- Generator: Adobe Illustrator 24.0.1, SVG Export Plug-In  -->
<svg version="1.1" xmlns="http://www.w3.org/2000/svg" xmlns:xlink="http://www.w3.org/1999/xlink" x="0px" y="0px"
	 width="311.786px" height="260.783px" viewBox="0 0 311.786 260.783" enable-background="new 0 0 311.786 260.783"
	 xml:space="preserve">
<defs>
</defs>
<g>
	<path d="M270.572,65.579v127.35c0,7.18-5.823,13.003-13.009,13.003H54.218c-7.18,0-13.003-5.823-13.003-13.003V65.579
		c0-7.184,5.823-13.009,13.003-13.009h203.346C264.748,52.57,270.572,58.393,270.572,65.579z"/>
	<path fill="#49D6B1" d="M211.542,87.822H70.639c-4.872,0-8.822-3.95-8.822-8.822l0,0c0-4.872,3.95-8.822,8.822-8.822h140.903
		c4.872,0,8.822,3.95,8.822,8.822l0,0C220.365,83.873,216.414,87.822,211.542,87.822z"/>
	<g>
		<path fill="#FFFFFF" d="M84.645,159.436h-6.298L62.809,128.22h11.058l8.049,16.587l7.909-17.007h5.319l7.909,17.007l8.049-16.587
			h11.059l-15.539,31.215h-6.299l-7.839-17.777L84.645,159.436z"/>
		<path fill="#FFFFFF" d="M147.078,159.436h-6.298l-15.537-31.215H136.3l8.049,16.587l7.908-17.007h5.319l7.908,17.007l8.049-16.587
			h11.059l-15.537,31.215h-6.299l-7.839-17.777L147.078,159.436z"/>
		<path fill="#FFFFFF" d="M209.511,159.436h-6.298l-15.537-31.215h11.058l8.049,16.587l7.909-17.007h5.319l7.908,17.007
			l8.049-16.587h11.059l-15.538,31.215h-6.299l-7.839-17.777L209.511,159.436z"/>
	</g>
	<circle fill="#49D6B1" cx="241.387" cy="79.001" r="9.075"/>
</g>
<rect fill="none" width="311.786" height="260.783"/>
</svg>
