<!-- Generator: Adobe Illustrator 24.0.1, SVG Export Plug-In  -->
<svg version="1.1" xmlns="http://www.w3.org/2000/svg" xmlns:xlink="http://www.w3.org/1999/xlink" x="0px" y="0px"
	 width="311.786px" height="260.783px" viewBox="0 0 311.786 260.783" enable-background="new 0 0 311.786 260.783"
	 xml:space="preserve">
<defs>
</defs>
<g>
	<path d="M285.633,57.216v144.076c0,8.123-6.588,14.711-14.717,14.711H40.864c-8.123,0-14.711-6.588-14.711-14.711V57.216
		c0-8.128,6.588-14.717,14.711-14.717h230.053C279.045,42.499,285.633,49.087,285.633,57.216z"/>
	<path fill="#49D6B1" d="M218.851,82.381H59.442c-5.512,0-9.981-4.469-9.981-9.981v0c0-5.512,4.469-9.981,9.981-9.981h159.409
		c5.512,0,9.981,4.469,9.981,9.981v0C228.832,77.913,224.363,82.381,218.851,82.381z"/>
	<g>
		<path fill="#49D6B1" d="M75.287,163.4h-7.125l-17.578-35.315h12.51l9.106,18.765l8.948-19.241h6.018l8.948,19.241l9.106-18.765
			h12.511L100.151,163.4h-7.126l-8.869-20.112L75.287,163.4z"/>
		<path fill="#49D6B1" d="M145.92,163.4h-7.125l-17.578-35.315h12.51l9.106,18.765l8.947-19.241h6.018l8.947,19.241l9.106-18.765
			h12.511L170.784,163.4h-7.126l-8.869-20.112L145.92,163.4z"/>
		<path fill="#49D6B1" d="M216.553,163.4h-7.125l-17.578-35.315h12.51l9.106,18.765l8.948-19.241h6.018l8.947,19.241l9.106-18.765
			h12.511L241.417,163.4h-7.126l-8.869-20.112L216.553,163.4z"/>
	</g>
	<circle fill="#49D6B1" cx="252.616" cy="72.401" r="10.267"/>
</g>
<rect fill="none" width="311.786" height="260.783"/>
</svg>
