<!-- Generator: Adobe Illustrator 24.0.1, SVG Export Plug-In  -->
<svg version="1.1" xmlns="http://www.w3.org/2000/svg" xmlns:xlink="http://www.w3.org/1999/xlink" x="0px" y="0px"
	 width="337.37px" height="140.7px" viewBox="0 0 337.37 140.7" style="enable-background:new 0 0 337.37 140.7;"
	 xml:space="preserve">
<style type="text/css">
	.st0{fill:#49D6B1;}
</style>
<defs>
</defs>
<g>
	<path d="M115.29,119.13H53.9c-6.66,0-12.05-5.4-12.05-12.05s5.4-12.05,12.05-12.05h61.39c6.66,0,12.05,5.4,12.05,12.05
		S121.95,119.13,115.29,119.13z"/>
	<path d="M59.27,73.33H12.05C5.4,73.33,0,67.93,0,61.27s5.4-12.05,12.05-12.05h47.22c6.66,0,12.05,5.4,12.05,12.05
		S65.92,73.33,59.27,73.33z"/>
	<path d="M337.37,83.56v7.97c0,15.8-11.71,28.77-26.61,30.11c0.02-0.42-139.09-0.38-139.06,0.08
		c-15.44-0.77-27.74-13.99-27.74-30.19V78.01c0-1.58,0.12-3.14,0.35-4.69h-38.33c-6.66,0-12.05-5.39-12.05-12.05
		c0-6.65,5.39-12.05,12.05-12.05h49.2c0.13-0.31,0.25-0.62,0.37-0.93l9.07-24.18H67.37c-6.66,0-12.05-5.4-12.05-12.05
		C55.32,5.4,60.71,0,67.37,0h181.84c8.79,0,17.11,4.11,22.65,11.19l25.13,32.12c1.11,1.41,2.32,2.71,3.64,3.88
		c3.78,3.38,8.35,5.7,13.3,6.73c6.81,1.41,12.67,5.22,16.83,10.48S337.37,76.35,337.37,83.56z"/>
	<path class="st0" d="M296.99,43.32h-33.95c-8.14,0-15.51-4.8-18.8-12.24L230.49,0h18.72c8.79,0,17.11,4.11,22.65,11.19
		L296.99,43.32z"/>
	<path class="st0" d="M219.84,119.82c0,0.52-0.02,1.04-0.06,1.55c-0.79,10.8-9.81,19.32-20.81,19.32
		c-11.01,0-20.03-8.52-20.81-19.32c-0.05-0.51-0.06-1.03-0.06-1.55c0-11.53,9.35-20.88,20.88-20.88
		C210.49,98.95,219.84,108.29,219.84,119.82z"/>
	<path class="st0" d="M302.62,119.82c0,0.52-0.02,1.04-0.06,1.55c-0.79,10.8-9.81,19.32-20.81,19.32
		c-11.01,0-20.03-8.52-20.81-19.32c-0.05-0.51-0.06-1.03-0.06-1.55c0-11.53,9.35-20.88,20.88-20.88
		C293.27,98.95,302.62,108.29,302.62,119.82z"/>
</g>
</svg>
