<!-- Generator: Adobe Illustrator 24.0.1, SVG Export Plug-In  -->
<svg version="1.1" xmlns="http://www.w3.org/2000/svg" xmlns:xlink="http://www.w3.org/1999/xlink" x="0px" y="0px"
	 width="503.057px" height="260.783px" viewBox="0 0 503.057 260.783" enable-background="new 0 0 503.057 260.783"
	 xml:space="preserve">
<defs>
</defs>
<g>
	<rect x="97.636" fill="none" width="405.421" height="260.783"/>
	<g>
		<path d="M127.327,192.859H59.526c-7.35,0-13.309-5.959-13.309-13.309s5.959-13.309,13.309-13.309h67.801
			c7.35,0,13.309,5.959,13.309,13.309S134.677,192.859,127.327,192.859z"/>
		<path d="M65.452,142.278H13.309C5.959,142.278,0,136.319,0,128.969s5.959-13.309,13.309-13.309h52.144
			c7.35,0,13.309,5.959,13.309,13.309C78.762,136.319,72.802,142.278,65.452,142.278z"/>
		<path d="M372.58,153.58v8.802c0,17.449-12.932,31.773-29.387,33.252c0.022-0.464-153.607-0.42-153.573,0.088
			c-17.051-0.85-30.635-15.45-30.635-33.341V147.45c0-1.745,0.133-3.468,0.387-5.18H117.04c-7.355,0-13.308-5.952-13.308-13.308
			c0-7.344,5.953-13.308,13.308-13.308h54.335c0.144-0.342,0.276-0.685,0.409-1.027l10.017-26.704h-107.4
			c-7.355,0-13.308-5.963-13.308-13.308c0-7.355,5.952-13.319,13.308-13.319h200.818c9.707,0,18.896,4.539,25.014,12.358
			l27.753,35.472c1.226,1.557,2.562,2.993,4.02,4.285c4.175,3.733,9.222,6.295,14.688,7.432c7.521,1.557,13.993,5.765,18.587,11.574
			C369.874,138.229,372.58,145.618,372.58,153.58z"/>
		<path fill="#49D6B1" d="M327.988,109.136h-37.491c-8.986,0-17.126-5.299-20.762-13.516l-15.187-34.317h20.676
			c9.707,0,18.898,4.541,25.012,12.354L327.988,109.136z"/>
		<path fill="#49D6B1" d="M242.782,193.628c0,0.577-0.017,1.145-0.069,1.713c-0.869,11.932-10.83,21.342-22.986,21.342
			s-22.117-9.41-22.986-21.342c-0.052-0.568-0.069-1.136-0.069-1.713c0-12.733,10.322-23.055,23.055-23.055
			C232.46,170.573,242.782,180.895,242.782,193.628z"/>
		<path fill="#49D6B1" d="M334.204,193.628c0,0.577-0.017,1.145-0.069,1.713c-0.869,11.932-10.83,21.342-22.986,21.342
			s-22.117-9.41-22.986-21.342c-0.052-0.568-0.069-1.136-0.069-1.713c0-12.733,10.322-23.055,23.055-23.055
			C323.881,170.573,334.204,180.895,334.204,193.628z"/>
	</g>
</g>
</svg>
