<!-- Generator: Adobe Illustrator 24.0.1, SVG Export Plug-In  -->
<svg version="1.1" xmlns="http://www.w3.org/2000/svg" xmlns:xlink="http://www.w3.org/1999/xlink" x="0px" y="0px" width="263.6px"
	 height="192.5px" viewBox="0 0 263.6 192.5" style="enable-background:new 0 0 263.6 192.5;" xml:space="preserve">
<style type="text/css">
	.st0{fill:#49D6B1;}
	.st1{fill:none;}
</style>
<defs>
</defs>
<g>
	<path class="st0" d="M201.6,2.9l62-2.9l-19.4,65.3L230.5,44c-39.9,45.9-110.9,95-188.1,139.4c-5.3,3.1-2.1-5.7-7.5-2.7
		c2,6.1-20.2,12-35,11.8c12.4-7.2,24.7-14.7,36.6-22.3C114.6,120.7,181,65.4,216.8,24C217.4,23.2,201.6,2.9,201.6,2.9z"/>
</g>
<g>
	<polygon points="195.1,60.9 166,189.6 143.4,190.1 172.7,60.9 	"/>
	<polygon points="260.5,36.5 225.1,188.4 202.5,188.8 238.2,36.5 	"/>
	<polygon points="108.9,190.8 127.1,113.6 104.6,113.6 86.2,191.2 	"/>
	<polygon points="55.5,163.8 49.1,192 26.5,192.5 33.2,163.8 	"/>
</g>
<line class="st1" x1="108.9" y1="190.8" x2="86.2" y2="191.2"/>
</svg>
