<!-- Generator: Adobe Illustrator 24.0.1, SVG Export Plug-In  -->
<svg version="1.1" xmlns="http://www.w3.org/2000/svg" xmlns:xlink="http://www.w3.org/1999/xlink" x="0px" y="0px" width="295.5px"
	 height="183.7px" viewBox="0 0 295.5 183.7" style="enable-background:new 0 0 295.5 183.7;" xml:space="preserve">
<style type="text/css">
	.st0{fill:#49D6B1;}
</style>
<defs>
</defs>
<g>
	<polygon class="st0" points="274.4,72.2 272.2,130.5 210.7,104.9 232.9,92.6 190.2,31.4 0,129.2 7.1,98.1 198.1,0 255.8,82.5 	"/>
</g>
<g>
	<polygon points="90.2,183.7 112.7,183.7 142.5,52.1 120.1,52.1 	"/>
	<polygon points="149,183.7 171.5,183.7 207.9,27.7 185.5,27.7 	"/>
	<polygon points="31.6,183.7 54,183.7 74.9,88.1 52.4,88.1 	"/>
	<polygon points="226.3,104.8 207.7,183.7 230.2,183.7 248.8,104.8 	"/>
	<polygon points="266.4,183.7 288.9,183.7 295.5,155 273.1,155 	"/>
</g>
</svg>
