<!-- Generator: Adobe Illustrator 24.0.1, SVG Export Plug-In  -->
<svg version="1.1" xmlns="http://www.w3.org/2000/svg" xmlns:xlink="http://www.w3.org/1999/xlink" x="0px" y="0px"
	 width="239.51px" height="59.76px" viewBox="0 0 239.51 59.76" style="enable-background:new 0 0 239.51 59.76;"
	 xml:space="preserve">
<style type="text/css">
	.st0{fill:#FFFFFF;}
</style>
<defs>
</defs>
<g>
	<polygon class="st0" points="18.81,28.91 26.01,28.91 32.75,0 25.56,0 	"/>
	<polygon class="st0" points="37.63,28.91 44.82,28.91 51.56,0 44.37,0 	"/>
	<polygon class="st0" points="13.94,0 7.19,28.91 0,28.91 6.74,0 	"/>
	<polygon class="st0" points="70.38,0 63.64,28.91 56.44,28.91 63.19,0 	"/>
	<rect x="26.01" y="40.53" class="st0" width="7.2" height="18.82"/>
	<rect x="7.19" y="28.91" class="st0" width="7.2" height="30.43"/>
	<rect x="44.82" y="40.53" class="st0" width="18.82" height="18.82"/>
</g>
<g>
	<path class="st0" d="M103.86,35.15h16.4V20.15h7.56v38.8h-7.56V41.67h-16.4v17.28H96.3v-38.8h7.56V35.15z"/>
	<path class="st0" d="M158.94,36.49c2.5,2.27,4.25,5.76,4.25,9.89c0,4.07-1.75,7.56-4.25,9.83c-2.15,1.98-5.41,3.55-10.18,3.55
		c-4.77,0-8.03-1.57-10.18-3.55c-2.5-2.27-4.25-5.76-4.25-9.83c0-4.13,1.74-7.62,4.25-9.89c2.15-1.98,5.41-3.55,10.18-3.55
		C153.54,32.94,156.79,34.51,158.94,36.49z M155.86,46.38c0-3.96-3.02-7.15-7.1-7.15c-4.07,0-7.1,3.2-7.1,7.15
		c0,3.84,2.97,7.1,7.1,7.1C152.9,53.48,155.86,50.22,155.86,46.38z"/>
	<path class="st0" d="M168.66,33.76h7.1v2.85c2.68-3.37,5.99-3.66,7.5-3.66c5.29,0,7.33,3.32,7.97,4.6c1.22-1.98,3.72-4.6,8.08-4.6
		c3.9,0,5.82,1.8,6.81,3.08c1.63,2.15,1.75,4.3,1.75,7.1v15.82h-7.1V45.22c0-2.97-0.64-4.3-1.16-4.94
		c-0.93-1.16-2.21-1.28-2.91-1.28c-1.92,0-3.14,0.87-3.9,2.21c-0.93,1.51-0.99,3.55-0.99,4.89v12.85h-7.1V45.22
		c0-2.97-0.64-4.3-1.16-4.94c-0.93-1.16-2.21-1.28-2.91-1.28c-1.92,0-3.14,0.87-3.9,2.21c-0.93,1.51-0.99,3.55-0.99,4.89v12.85h-7.1
		V33.76z"/>
	<path class="st0" d="M239.34,51.91c-0.76,1.86-3.61,7.85-12.39,7.85c-4.07,0-7.15-1.16-9.66-3.55c-2.79-2.62-3.96-5.88-3.96-9.83
		c0-5,2.04-8.08,3.84-9.89c2.97-2.91,6.46-3.55,9.48-3.55c5.12,0,8.08,2.04,9.83,4.13c2.68,3.2,3.02,7.15,3.02,9.89v0.58h-18.85
		c0,1.51,0.41,3.14,1.22,4.25c0.76,1.05,2.33,2.38,5.06,2.38c2.68,0,4.71-1.28,5.88-3.32L239.34,51.91z M232.83,43.01
		c-0.58-3.43-3.37-5.06-5.99-5.06c-2.62,0-5.35,1.69-5.93,5.06H232.83z"/>
</g>
</svg>
