<!-- Generator: Adobe Illustrator 24.0.1, SVG Export Plug-In  -->
<svg version="1.1" xmlns="http://www.w3.org/2000/svg" xmlns:xlink="http://www.w3.org/1999/xlink" x="0px" y="0px" width="407.5px"
	 height="407.5px" viewBox="0 0 407.5 407.5" style="enable-background:new 0 0 407.5 407.5;" xml:space="preserve">
<style type="text/css">
	.st0{fill:#49D6B1;}
	.st1{fill:#FFFFFF;}
</style>
<defs>
</defs>
<g>
	<polygon points="133.4,82.6 108.4,154.9 108.4,172.9 90.3,172.9 90.3,154.9 115.5,82.6 	"/>
	<polygon points="180.5,82.6 155.4,154.9 155.4,172.9 137.4,172.9 137.4,154.9 162.5,82.6 	"/>
	<path d="M61.3,154.9h0.1v161.7c-3.2-4-6.2-8.2-9.1-12.5c-1.4-2-2.7-4.1-3.9-6.1c-1.6-2.7-3.2-5.5-4.8-8.4c-0.1-0.2-0.2-0.3-0.3-0.5
		V154.9l25.1-72.3h18L61.3,154.9z"/>
	<polygon points="202.4,154.9 202.5,154.9 202.5,172.9 184.5,172.9 184.5,154.9 209.5,82.6 227.6,82.6 	"/>
	<polygon points="245.7,172.4 245.7,172.9 245.2,172.9 	"/>
	<polygon points="270.8,82.6 252.9,134.1 227.7,159.3 227.7,154.9 252.8,82.6 	"/>
	<polygon points="275.5,152.5 303.1,124.9 292.7,154.9 292.7,172.9 274.7,172.9 274.7,154.9 	"/>
	<path d="M356.9,106L340,154.9v18h-18v-18l22.8-65.7C349.2,94.6,353.2,100.2,356.9,106z"/>
	<path d="M155.6,197.7v34.3c-0.2,0-0.5,0-0.8,0l-11.8,11.8c0,0.2,0,0.5,0,0.7v0.1H90.6v-47H155.6z"/>
	<polygon points="155.6,241.2 155.6,244.8 152.1,244.8 	"/>
	<polygon points="250.1,197.7 250.1,244.8 185.1,244.8 185.1,242.9 230.3,197.7 	"/>
	<rect x="185.1" y="267.1" width="25.7" height="47"/>
	<rect x="224.4" y="267.1" width="25.7" height="47"/>
	<rect x="275.1" y="197.7" width="65.1" height="47"/>
	<rect x="275.1" y="267.1" width="65.1" height="47"/>
</g>
<g>
	<path class="st0" d="M134.7,328.9c0,5.8-4.7,10.4-10.4,10.4s-10.4-4.7-10.4-10.4c0-5.8,4.7-10.4,10.4-10.4S134.7,323.1,134.7,328.9
		z"/>
	<path class="st0" d="M138,357.6v15.6c-9.5-3.7-18.6-8.2-27.4-13.4v-2.2c0-6.9,5.6-12.6,12.6-12.6h2.3
		C132.4,345,138,350.6,138,357.6z"/>
</g>
<g>
	<path class="st0" d="M193.5,279.9c0,4.7-3.8,8.4-8.4,8.4s-8.4-3.8-8.4-8.4c0-4.6,3.8-8.4,8.4-8.4S193.5,275.2,193.5,279.9z"/>
	<path class="st0" d="M196.2,304v21.6H174V304c0-6.1,5-11.1,11.1-11.1c3.1,0,5.8,1.2,7.9,3.2C194.9,298.2,196.2,301,196.2,304z"/>
</g>
<g>
	<path class="st0" d="M234.8,300c0,5.7-4.6,10.3-10.3,10.3c-5.7,0-10.4-4.6-10.4-10.3c0-5.7,4.6-10.3,10.4-10.3
		C230.1,289.7,234.8,294.3,234.8,300z"/>
	<path class="st0" d="M238,328.6v27.5h-27.2v-27.5c0-6.9,5.6-12.6,12.6-12.6h2.1C232.4,316.1,238,321.7,238,328.6z"/>
</g>
<g>
	<circle class="st0" cx="320.9" cy="224.4" r="7.1"/>
	<path class="st0" d="M330.2,244.7L330.2,244.7l-18.6,0.1v-0.1c0-5.2,4.2-9.3,9.3-9.3c2.6,0,4.9,1,6.6,2.7
		C329.2,239.8,330.2,242.1,330.2,244.7z"/>
</g>
<g>
	<circle class="st0" cx="294.9" cy="289.7" r="8.5"/>
	<path class="st0" d="M306,314v0.1h-22.3V314c0-6.2,5-11.1,11.1-11.1c3.1,0,5.9,1.2,7.9,3.3C304.8,308.1,306,310.9,306,314z"/>
</g>
<g>
	<path class="st0" d="M155.6,207.8v19.1c-5.3,0-9.6-4.3-9.6-9.5C146.1,212,150.4,207.8,155.6,207.8z"/>
	<path class="st0" d="M154.9,232.1l-11.8,11.8C143.5,237.5,148.5,232.5,154.9,232.1z"/>
	<polygon class="st0" points="155.6,241.2 155.6,244.8 152.1,244.8 	"/>
</g>
<polygon points="119.9,267.1 95.8,291.2 90.6,296.4 90.6,267.1 "/>
<path d="M93.2,314.1h-2.6v-0.3C91.5,313.8,92.3,313.9,93.2,314.1z"/>
<path d="M99.9,299c0,5.2-4.2,9.4-9.3,9.5v-2.3l9.1-9.1C99.8,297.8,99.9,298.4,99.9,299z"/>
<polygon points="155.6,272.4 155.6,314.1 113.9,314.1 "/>
<g>
	<path class="st0" d="M95.8,291.2l-5.2,5.2l-8.1,8.1c-1.1-1.5-1.7-3.4-1.7-5.5c0-5.3,4.3-9.5,9.5-9.5h0.2
		C92.5,289.5,94.3,290.2,95.8,291.2z"/>
	<path class="st0" d="M99.9,299c0,5.2-4.2,9.4-9.3,9.5h-0.2c-0.6,0-1.3-0.1-1.9-0.2l2.1-2.1l9.1-9.1C99.8,297.8,99.9,298.4,99.9,299
		z"/>
	<path class="st0" d="M93.2,314.1h-2.6v-0.3C91.5,313.8,92.3,313.9,93.2,314.1z"/>
	<path class="st0" d="M102.9,326.4v24.4h-5.9c-3.8-2.8-7.5-5.7-11.1-8.8l16.9-16.9C102.9,325.6,102.9,326,102.9,326.4z"/>
</g>
<g>
	<circle class="st0" cx="155.6" cy="298.2" r="9.6"/>
	<path class="st0" d="M168.2,325.5v24.4h-25.1v-24.4c0-5,2.9-9.4,7.2-11.4c1.6-0.8,3.4-1.2,5.4-1.2c3.5,0,6.6,1.4,8.9,3.7
		C166.8,318.9,168.2,322,168.2,325.5z"/>
</g>
<path class="st0" d="M99.7,297.2l-9.1,9.1l-2.1,2.1c0.6,0.1,1.2,0.2,1.9,0.2h0.2c5.2-0.1,9.3-4.4,9.3-9.5
	C99.9,298.4,99.8,297.8,99.7,297.2z M90.6,313.8v0.3h2.6C92.3,313.9,91.5,313.8,90.6,313.8z M152.1,244.8h3.5v-3.5L152.1,244.8z
	 M152.1,244.8h3.5v-3.5L152.1,244.8z"/>
<path class="st0" d="M203.8,0c-34.8,0-69.1,8.9-99.3,25.8C40,61.8,0,130,0,203.8c0,35.7,9.2,69.3,25.5,98.6
	c6.2,11.1,13.3,21.6,21.4,31.3c17.5,21.1,39.2,38.6,63.8,51.3c0.3,0.1,0.5,0.3,0.8,0.4c27.7,14.1,59.1,22.1,92.3,22.1
	c112.4,0,203.8-91.4,203.8-203.8S316.1,0,203.8,0z M51.5,315.2c-1.8-2.4-3.4-4.8-5.1-7.2c-1.1-1.6-2.1-3.2-3.1-4.9
	c-0.3-0.5-0.6-1-0.9-1.5c-1.7-2.8-3.4-5.8-5-8.7c-3-5.5-5.7-11.3-8.1-17.1c-9.2-22.2-14.3-46.5-14.3-72
	c0-68.3,37.1-131.5,96.7-164.8c28-15.6,59.8-23.9,92-23.9c49.3,0,94.3,19,128,50.1l-21.8,21.8l-14.3,14.3l-48,48l-20,20l-72,72v3.5
	h-3.5l-52.4,52.4c0.1,0.6,0.2,1.2,0.2,1.9c0,5.2-4.2,9.4-9.3,9.5h-0.2c-0.6,0-1.3-0.1-1.9-0.2l-23.3,23.3
	C60.3,326.5,55.8,321,51.5,315.2z M93.2,314.1h-2.6v-0.3C91.5,313.8,92.3,313.9,93.2,314.1z M203.8,392.5
	c-23.1,0-45.2-4.2-65.7-11.8c-9.5-3.5-18.7-7.8-27.4-12.8c-8.8-5-17.2-10.7-25.1-17.1c-2.7-2.1-5.2-4.4-7.8-6.6
	c-0.7-0.6-1.4-1.2-2-1.8L342.4,75.8c2.1,2.2,4.1,4.5,6,6.8c4.1,4.8,7.9,9.9,11.4,15.1c20.6,30.2,32.7,66.8,32.7,106.1
	C392.5,307.8,307.8,392.5,203.8,392.5z"/>
<path class="st1" d="M142.2,244.8h0.8v-0.1c0-0.2,0-0.5,0-0.7L142.2,244.8z M142.2,244.8h0.8v-0.1c0-0.2,0-0.5,0-0.7L142.2,244.8z
	 M142.2,244.8h0.8v-0.1c0-0.2,0-0.5,0-0.7L142.2,244.8z M142.2,244.8h0.8v-0.1c0-0.2,0-0.5,0-0.7L142.2,244.8z M142.2,244.8h0.8
	v-0.1c0-0.2,0-0.5,0-0.7L142.2,244.8z M154.9,232.1c0.2,0,0.5,0,0.8,0v-0.7L154.9,232.1z M142.2,244.8h0.8v-0.1c0-0.2,0-0.5,0-0.7
	L142.2,244.8z M142.2,244.8h0.8v-0.1c0-0.2,0-0.5,0-0.7L142.2,244.8z M142.2,244.8h0.8v-0.1c0-0.2,0-0.5,0-0.7L142.2,244.8z
	 M142.2,244.8h0.8v-0.1c0-0.2,0-0.5,0-0.7L142.2,244.8z M142.2,244.8h0.8v-0.1c0-0.2,0-0.5,0-0.7L142.2,244.8z M142.2,244.8h0.8
	v-0.1c0-0.2,0-0.5,0-0.7L142.2,244.8z M142.2,244.8h0.8v-0.1c0-0.2,0-0.5,0-0.7L142.2,244.8z"/>
<g>
	<path class="st1" d="M245.2,172.9h0.5v-0.5L245.2,172.9z M245.2,172.9h0.5v-0.5L245.2,172.9z M245.2,172.9h0.5v-0.5L245.2,172.9z
		 M245.2,172.9h0.5v-0.5L245.2,172.9z M245.2,172.9h0.5v-0.5L245.2,172.9z M75.8,342.3c0.7,0.6,1.3,1.2,2,1.8v-3.9L75.8,342.3z
		 M245.2,172.9h0.5v-0.5L245.2,172.9z M245.2,172.9h0.5v-0.5L245.2,172.9z M245.2,172.9h0.5v-0.5L245.2,172.9z"/>
</g>
</svg>
