<!-- Generator: Adobe Illustrator 24.0.1, SVG Export Plug-In  -->
<svg version="1.1" xmlns="http://www.w3.org/2000/svg" xmlns:xlink="http://www.w3.org/1999/xlink" x="0px" y="0px"
	 width="813.22px" height="148.87px" viewBox="0 0 813.22 148.87" style="enable-background:new 0 0 813.22 148.87;"
	 xml:space="preserve">
<style type="text/css">
	.st0{fill:#FFFFFF;}
</style>
<defs>
</defs>
<path class="st0" d="M211.15,90.49l13.82,32.77l10.18-32.77h11.72l10.27,32.77l13.65-32.77h14.19l-20.72,56.43H253.1L241,115.6
	l-9.71,31.32h-11.36L196.9,90.49H211.15z"/>
<path class="st0" d="M332.12,92.15h12.73V147h-12.73v-5.74c-5.22,4.88-10.83,7.32-16.84,7.32c-7.58,0-13.86-2.74-18.81-8.22
	c-4.92-5.59-7.38-12.58-7.38-20.95c0-8.22,2.46-15.07,7.38-20.56c4.92-5.48,11.07-8.22,18.47-8.22c6.38,0,12.11,2.63,17.18,7.88
	V92.15z M302.04,119.41c0,5.26,1.41,9.54,4.22,12.84c2.89,3.34,6.53,5.01,10.92,5.01c4.69,0,8.49-1.61,11.38-4.84
	c2.89-3.34,4.34-7.58,4.34-12.73c0-5.14-1.44-9.38-4.34-12.73c-2.89-3.27-6.65-4.9-11.26-4.9c-4.35,0-8,1.65-10.92,4.96
	C303.49,110.36,302.04,114.49,302.04,119.41z"/>
<path class="st0" d="M409.1,51.88v46.63c5.07-5.26,10.81-7.88,17.23-7.88c7.4,0,13.55,2.76,18.47,8.28
	c4.92,5.48,7.38,12.32,7.38,20.5c0,8.45-2.48,15.43-7.43,20.95c-4.92,5.48-11.13,8.22-18.64,8.22c-6.34,0-12.01-2.44-17.01-7.32V147
	h-12.67V51.88H409.1z M439.23,119.97c0-5.26-1.43-9.54-4.28-12.84c-2.89-3.38-6.51-5.07-10.87-5.07c-4.66,0-8.45,1.63-11.38,4.9
	c-2.89,3.23-4.34,7.43-4.34,12.61c0,5.33,1.43,9.59,4.28,12.78c2.85,3.27,6.61,4.9,11.27,4.9c4.39,0,8.03-1.63,10.92-4.9
	C437.76,129.06,439.23,124.93,439.23,119.97z"/>
<path class="st0" d="M478.25,92.15v31.48c0,9.09,3.58,13.63,10.76,13.63c7.17,0,10.76-4.54,10.76-13.63V92.15h12.67v31.76
	c0,4.39-0.55,8.19-1.63,11.38c-1.05,2.85-2.87,5.43-5.46,7.72c-4.28,3.72-9.72,5.57-16.33,5.57c-6.57,0-12-1.86-16.28-5.57
	c-2.63-2.29-4.49-4.86-5.57-7.72c-1.05-2.55-1.58-6.34-1.58-11.38V92.15H478.25z"/>
<path class="st0" d="M560.3,101.5l-10.48,5.58c-1.65-3.38-3.7-5.07-6.14-5.07c-1.16,0-2.16,0.39-2.98,1.15
	c-0.83,0.77-1.24,1.76-1.24,2.96c0,2.1,2.44,4.19,7.32,6.25c6.72,2.89,11.24,5.56,13.57,8c2.33,2.44,3.49,5.73,3.49,9.86
	c0,5.29-1.95,9.72-5.86,13.29c-3.79,3.38-8.37,5.07-13.74,5.07c-9.2,0-15.71-4.49-19.54-13.46l10.81-5.01
	c1.5,2.63,2.65,4.3,3.43,5.01c1.54,1.43,3.38,2.14,5.52,2.14c4.28,0,6.42-1.95,6.42-5.86c0-2.25-1.65-4.35-4.95-6.31
	c-1.28-0.64-2.56-1.26-3.83-1.86c-1.28-0.6-2.57-1.22-3.89-1.86c-3.68-1.8-6.27-3.6-7.77-5.41c-1.92-2.29-2.87-5.24-2.87-8.84
	c0-4.77,1.63-8.71,4.9-11.83c3.34-3.12,7.39-4.67,12.16-4.67C551.67,90.63,556.89,94.25,560.3,101.5z"/>
<rect x="575.23" y="92.15" class="st0" width="12.67" height="54.85"/>
<path class="st0" d="M603.95,92.15h12.73v5.07c4.43-4.39,9.42-6.59,14.98-6.59c6.38,0,11.36,2.01,14.92,6.03
	c3.08,3.42,4.62,8.99,4.62,16.73V147h-12.73v-30.64c0-5.41-0.75-9.14-2.25-11.21c-1.46-2.1-4.13-3.15-8-3.15
	c-4.2,0-7.19,1.39-8.95,4.17c-1.73,2.74-2.59,7.53-2.59,14.36V147h-12.73V92.15z"/>
<path class="st0" d="M717.14,122.56h-39.31c0.34,4.51,1.8,8.09,4.39,10.76c2.59,2.63,5.91,3.94,9.97,3.94
	c3.16,0,5.76-0.75,7.83-2.25c2.03-1.5,4.34-4.28,6.93-8.33l10.7,5.97c-1.65,2.82-3.4,5.23-5.24,7.24c-1.84,2.01-3.81,3.66-5.91,4.95
	c-2.1,1.3-4.37,2.24-6.81,2.84c-2.44,0.6-5.09,0.9-7.94,0.9c-8.18,0-14.76-2.63-19.71-7.88c-4.95-5.29-7.43-12.31-7.43-21.06
	c0-8.67,2.4-15.69,7.21-21.06c4.84-5.29,11.26-7.94,19.26-7.94c8.07,0,14.45,2.57,19.15,7.71c4.65,5.11,6.98,12.18,6.98,21.23
	L717.14,122.56z M704.13,112.2c-1.77-6.76-6.02-10.14-12.78-10.14c-1.54,0-2.98,0.23-4.34,0.7c-1.35,0.47-2.58,1.15-3.69,2.03
	c-1.11,0.88-2.06,1.94-2.84,3.18c-0.79,1.24-1.39,2.65-1.8,4.22H704.13z"/>
<path class="st0" d="M762.87,101.5l-10.48,5.58c-1.65-3.38-3.7-5.07-6.14-5.07c-1.17,0-2.16,0.39-2.98,1.15
	c-0.83,0.77-1.24,1.76-1.24,2.96c0,2.1,2.44,4.19,7.32,6.25c6.72,2.89,11.25,5.56,13.57,8c2.33,2.44,3.49,5.73,3.49,9.86
	c0,5.29-1.95,9.72-5.86,13.29c-3.79,3.38-8.37,5.07-13.74,5.07c-9.2,0-15.71-4.49-19.54-13.46l10.81-5.01
	c1.5,2.63,2.65,4.3,3.44,5.01c1.54,1.43,3.38,2.14,5.52,2.14c4.28,0,6.42-1.95,6.42-5.86c0-2.25-1.65-4.35-4.95-6.31
	c-1.28-0.64-2.55-1.26-3.83-1.86c-1.28-0.6-2.57-1.22-3.89-1.86c-3.68-1.8-6.27-3.6-7.77-5.41c-1.91-2.29-2.87-5.24-2.87-8.84
	c0-4.77,1.63-8.71,4.9-11.83c3.34-3.12,7.4-4.67,12.16-4.67C754.24,90.63,759.45,94.25,762.87,101.5z"/>
<path class="st0" d="M809.67,101.5l-10.48,5.58c-1.65-3.38-3.7-5.07-6.14-5.07c-1.17,0-2.16,0.39-2.98,1.15
	c-0.83,0.77-1.24,1.76-1.24,2.96c0,2.1,2.44,4.19,7.32,6.25c6.72,2.89,11.25,5.56,13.57,8c2.33,2.44,3.49,5.73,3.49,9.86
	c0,5.29-1.95,9.72-5.86,13.29c-3.79,3.38-8.37,5.07-13.74,5.07c-9.2,0-15.71-4.49-19.54-13.46l10.81-5.01
	c1.5,2.63,2.65,4.3,3.44,5.01c1.54,1.43,3.38,2.14,5.52,2.14c4.28,0,6.42-1.95,6.42-5.86c0-2.25-1.65-4.35-4.95-6.31
	c-1.28-0.64-2.55-1.26-3.83-1.86c-1.28-0.6-2.57-1.22-3.89-1.86c-3.68-1.8-6.27-3.6-7.77-5.41c-1.91-2.29-2.87-5.24-2.87-8.84
	c0-4.77,1.63-8.71,4.9-11.83c3.34-3.12,7.4-4.67,12.16-4.67C801.03,90.63,806.25,94.25,809.67,101.5z"/>
<rect x="575.24" y="68.66" transform="matrix(1 -2.499489e-03 2.499489e-03 1 -0.1851 1.4538)" class="st0" width="12.66" height="12.25"/>
<rect x="361.87" y="131.65" transform="matrix(1 -2.499473e-03 2.499473e-03 1 -0.3491 0.9265)" class="st0" width="17.28" height="16.99"/>
<polygon class="st0" points="44.43,68.28 61.43,68.28 81.36,0.01 64.36,0.01 "/>
<polygon class="st0" points="88.87,68.28 105.85,68.28 125.78,0.01 108.79,0.01 "/>
<polygon class="st0" points="150.29,68.28 149.75,148.87 133.29,148.87 133.29,68.28 153.22,0 170.2,0 "/>
<polygon class="st0" points="17,68.28 16.46,148.87 0,148.87 0,68.28 19.93,0 36.92,0 "/>
<rect x="44.58" y="106.61" class="st0" width="17.2" height="42.26"/>
<rect x="88.83" y="106.49" transform="matrix(1 -2.458865e-03 2.458865e-03 1 -0.2827 0.2399)" class="st0" width="17.2" height="17.2"/>
</svg>
