<!-- Generator: Adobe Illustrator 24.0.1, SVG Export Plug-In  -->
<svg version="1.1" xmlns="http://www.w3.org/2000/svg" xmlns:xlink="http://www.w3.org/1999/xlink" x="0px" y="0px" width="631.5px"
	 height="108.53px" viewBox="0 0 631.5 108.53" style="enable-background:new 0 0 631.5 108.53;" xml:space="preserve">
<style type="text/css">
	.st0{fill:#2AAD9D;}
	.st1{fill:#FFFFFF;}
</style>
<defs>
</defs>
<path class="st0" d="M577.21,108.53H54.29C24.31,108.53,0,84.22,0,54.29l0,0C0,24.31,24.31,0,54.29,0h522.92
	c29.98,0,54.29,24.31,54.29,54.29l0,0C631.45,84.22,607.19,108.53,577.21,108.53z"/>
<g>
	<g>
		<path class="st1" d="M82.17,54.29c0,1.19-0.95,2.14-2.14,2.14H60.29v19.73c0,1.19-0.95,2.14-2.14,2.14
			c-1.19,0-2.14-0.95-2.14-2.14V56.43H36.32c-1.19,0-2.14-0.95-2.14-2.14c0-1.19,0.95-2.14,2.14-2.14h19.69V32.41
			c0-1.19,0.95-2.14,2.14-2.14c1.19,0,2.14,0.95,2.14,2.14v19.73h19.73C81.22,52.14,82.17,53.1,82.17,54.29z"/>
	</g>
</g>
<g>
	<path class="st1" d="M124.64,67.54h-17.02l-3.72,8.87h-8.91l18.11-42.13h6.43l17.64,42.13h-8.87L124.64,67.54z M122.26,60.87
		l-6.01-15.16l-6.01,15.16H122.26z"/>
	<path class="st1" d="M162.01,30.36h7.67v46.04h-7.72v-3.53c-2.76,3.96-6.43,4.43-8.39,4.43c-8.39,0-13.97-6.58-13.97-14.59
		c0-8.1,5.48-14.54,13.58-14.54c2.1,0,6.2,0.38,8.77,4.43V30.36H162.01z M147.57,62.68c0,4.34,3.15,7.77,7.58,7.77
		c4.43,0,7.58-3.43,7.58-7.77s-3.15-7.72-7.58-7.72C150.76,55,147.57,58.34,147.57,62.68z"/>
	<path class="st1" d="M198,30.36h7.72v46.04H198v-3.53c-2.76,3.96-6.43,4.43-8.39,4.43c-8.39,0-13.97-6.58-13.97-14.59
		c0-8.1,5.48-14.54,13.58-14.54c2.1,0,6.2,0.38,8.77,4.43V30.36z M183.6,62.68c0,4.34,3.15,7.77,7.58,7.77
		c4.43,0,7.58-3.43,7.58-7.77s-3.15-7.72-7.58-7.72C186.75,55,183.6,58.34,183.6,62.68z"/>
	<path class="st1" d="M238.42,57.15l-14.49-22.88h9.72l9.06,14.63l9.06-14.63h9.72l-14.82,22.88v19.26h-8.2V57.15H238.42z"/>
	<path class="st1" d="M285.13,52c2.72,2.48,4.62,6.24,4.62,10.72c0,4.43-1.91,8.2-4.62,10.68c-2.34,2.14-5.86,3.86-11.06,3.86
		c-5.2,0-8.72-1.72-11.06-3.86c-2.72-2.48-4.62-6.24-4.62-10.68c0-4.48,1.91-8.29,4.62-10.72c2.34-2.14,5.86-3.86,11.06-3.86
		C279.22,48.14,282.79,49.86,285.13,52z M281.79,62.77c0-4.29-3.29-7.77-7.72-7.77s-7.72,3.48-7.72,7.77c0,4.15,3.24,7.72,7.72,7.72
		C278.55,70.45,281.79,66.92,281.79,62.77z"/>
	<path class="st1" d="M303.38,49.05v15.49c0,1.43,0.14,3.43,1.62,4.81c0.95,0.81,2.48,1.38,3.91,1.38c1.43,0,2.96-0.57,3.91-1.38
		c1.53-1.38,1.62-3.34,1.62-4.81V49.05h7.77v16.73c0,2.48-0.33,5.77-3.34,8.39c-2.53,2.19-6.58,3.1-9.91,3.1s-7.39-0.91-9.91-3.1
		c-3.05-2.67-3.34-5.96-3.34-8.39V49.05H303.38z"/>
	<path class="st1" d="M329.55,49.05h7.72v4.1c1.19-2.34,2.86-3.48,3.43-3.81c1.19-0.76,2.72-1.19,4.53-1.19
		c1.33,0,2.38,0.33,3.29,0.62l-1,7.2c-1-0.71-2-1-3.62-1c-1.43,0-3.62,0.33-5.1,2.19c-1.43,1.81-1.53,4.15-1.53,6.05v13.16h-7.72
		L329.55,49.05L329.55,49.05z"/>
	<path class="st1" d="M378.55,34.27c2.34,0,6.86,0,10.3,2.67c2.48,1.91,3.91,5.2,3.91,8.72c0,5.43-3.62,7.63-4.72,8.29
		c2.76,0.43,4.43,1.62,5.48,2.67c2.53,2.38,3.05,5.67,3.05,7.91c0,2.48-0.71,5.96-3.62,8.53c-3.15,2.76-7.01,3.43-10.68,3.43h-14.16
		V34.27H378.55z M376.35,51.76h2.34c1.29,0,6.39-0.14,6.39-5.48c0-3.86-2.96-5.29-6.34-5.29h-2.38L376.35,51.76L376.35,51.76z
		 M376.35,69.68h3.53c1.53,0,3.81-0.05,5.62-1.14c2-1.19,2.57-3.24,2.57-4.86c0-1.33-0.43-3.62-3.1-4.81
		c-1.76-0.81-3.86-0.81-5.62-0.81h-3.05v11.63H376.35z"/>
	<path class="st1" d="M410.72,49.05v15.49c0,1.43,0.14,3.43,1.62,4.81c0.95,0.81,2.48,1.38,3.91,1.38c1.43,0,2.96-0.57,3.91-1.38
		c1.53-1.38,1.62-3.34,1.62-4.81V49.05h7.72v16.73c0,2.48-0.33,5.77-3.34,8.39c-2.53,2.19-6.58,3.1-9.91,3.1
		c-3.34,0-7.39-0.91-9.91-3.1c-3.05-2.67-3.34-5.96-3.34-8.39V49.05H410.72z"/>
	<path class="st1" d="M451.76,55.58c-1.81-1.72-3.67-1.81-4.48-1.81c-1.81,0-2.96,0.91-2.96,2.19c0,0.71,0.33,1.76,2.48,2.48
		l1.81,0.57c2.14,0.71,5.39,1.76,6.96,3.91c0.81,1.14,1.38,2.76,1.38,4.53c0,2.48-0.81,4.91-3.05,6.96c-2.19,2-4.86,2.91-8.2,2.91
		c-5.67,0-8.91-2.72-10.63-4.53l4.05-4.67c1.53,1.76,3.81,3.15,6.05,3.15c2.14,0,3.81-1.1,3.81-2.96c0-1.72-1.38-2.38-2.38-2.76
		l-1.76-0.62c-1.95-0.71-4.24-1.57-5.86-3.29c-1.29-1.33-2.1-3.05-2.1-5.24c0-2.67,1.29-4.86,2.86-6.2
		c2.14-1.72,4.91-1.95,7.15-1.95c2,0,5.24,0.24,8.72,2.91L451.76,55.58z"/>
	<path class="st1" d="M466.25,32.89c2.53,0,4.62,2.1,4.62,4.62c0,2.53-2.1,4.62-4.62,4.62s-4.62-2.1-4.62-4.62
		C461.63,34.94,463.72,32.89,466.25,32.89z M470.06,49.05v27.36h-7.72V49.05H470.06z"/>
	<path class="st1" d="M477.4,49.05h7.72v3.53c1.43-2,4.05-4.43,8.48-4.43c2.38,0,5.96,0.71,8.1,3.34c1.91,2.34,2.14,5.05,2.14,7.72
		v17.21h-7.72V61.49c0-1.53-0.05-3.91-1.43-5.39c-1.19-1.29-2.86-1.38-3.62-1.38c-2,0-3.62,0.71-4.72,2.38
		c-1.14,1.76-1.19,3.72-1.19,5.29v13.97h-7.72V49.05H477.4z"/>
	<path class="st1" d="M537.98,68.78c-0.81,2-3.91,8.53-13.44,8.53c-4.43,0-7.77-1.29-10.49-3.86c-3.05-2.86-4.29-6.39-4.29-10.68
		c0-5.43,2.19-8.77,4.15-10.72c3.24-3.15,7.01-3.86,10.3-3.86c5.58,0,8.77,2.19,10.68,4.48c2.91,3.48,3.29,7.77,3.29,10.72v0.62
		h-20.45c0,1.62,0.43,3.43,1.33,4.62c0.81,1.14,2.53,2.57,5.48,2.57c2.91,0,5.1-1.38,6.39-3.62L537.98,68.78z M530.93,59.1
		c-0.62-3.72-3.67-5.48-6.53-5.48c-2.86,0-5.81,1.81-6.43,5.48H530.93z"/>
	<path class="st1" d="M559.05,55.58c-1.81-1.72-3.67-1.81-4.48-1.81c-1.81,0-2.96,0.91-2.96,2.19c0,0.71,0.33,1.76,2.48,2.48
		l1.81,0.57c2.14,0.71,5.39,1.76,6.96,3.91c0.81,1.14,1.38,2.76,1.38,4.53c0,2.48-0.81,4.91-3.05,6.96c-2.19,2-4.86,2.91-8.2,2.91
		c-5.67,0-8.91-2.72-10.63-4.53l4.05-4.67c1.53,1.76,3.81,3.15,6.05,3.15c2.14,0,3.81-1.1,3.81-2.96c0-1.72-1.38-2.38-2.38-2.76
		l-1.76-0.62c-1.95-0.71-4.24-1.57-5.86-3.29c-1.29-1.33-2.1-3.05-2.1-5.24c0-2.67,1.29-4.86,2.86-6.2
		c2.14-1.72,4.91-1.95,7.15-1.95c2,0,5.24,0.24,8.72,2.91L559.05,55.58z"/>
	<path class="st1" d="M583.31,55.58c-1.81-1.72-3.67-1.81-4.48-1.81c-1.81,0-2.96,0.91-2.96,2.19c0,0.71,0.33,1.76,2.48,2.48
		l1.81,0.57c2.14,0.71,5.39,1.76,6.96,3.91c0.81,1.14,1.38,2.76,1.38,4.53c0,2.48-0.81,4.91-3.05,6.96c-2.19,2-4.86,2.91-8.2,2.91
		c-5.67,0-8.91-2.72-10.63-4.53l4.05-4.67c1.53,1.76,3.81,3.15,6.05,3.15c2.14,0,3.81-1.1,3.81-2.96c0-1.72-1.38-2.38-2.38-2.76
		l-1.76-0.62c-1.95-0.71-4.24-1.57-5.86-3.29c-1.29-1.33-2.1-3.05-2.1-5.24c0-2.67,1.29-4.86,2.86-6.2
		c2.14-1.72,4.91-1.95,7.15-1.95c2,0,5.24,0.24,8.72,2.91L583.31,55.58z"/>
</g>
</svg>
