<!-- Generator: Adobe Illustrator 24.0.1, SVG Export Plug-In  -->
<svg version="1.1" xmlns="http://www.w3.org/2000/svg" xmlns:xlink="http://www.w3.org/1999/xlink" x="0px" y="0px" width="194.7px"
	 height="190.2px" viewBox="0 0 194.7 190.2" style="enable-background:new 0 0 194.7 190.2;" xml:space="preserve">
<style type="text/css">
	.st0{fill:#49D6B1;}
</style>
<defs>
</defs>
<g>
	<polygon points="52.1,80 72,80 90.6,0 70.7,0 	"/>
	<polygon points="104.1,80 124,80 142.7,0 122.8,0 	"/>
	<polygon points="38.6,0 19.9,80 0,80 18.6,0 	"/>
	<polygon points="194.7,0 176.1,80 156.2,80 174.8,0 	"/>
	<rect x="72" y="112.1" width="19.9" height="52.1"/>
	<rect x="19.9" y="80" width="19.9" height="84.2"/>
	<rect x="124" y="112.1" width="52.1" height="52.1"/>
</g>
<g>
	<circle class="st0" cx="90.1" cy="138.5" r="9.5"/>
	<path class="st0" d="M102.6,190.2H77.5v-24.4c0-6.9,5.6-12.6,12.6-12.6h0c6.9,0,12.6,5.6,12.6,12.6V190.2z"/>
</g>
<g>
	<circle class="st0" cx="154.8" cy="138.5" r="9.5"/>
	<path class="st0" d="M167.2,164.2h-24.9c0.8-6.2,6.1-11,12.5-11c3.5,0,6.6,1.4,8.9,3.7C165.6,158.8,166.9,161.4,167.2,164.2z"/>
</g>
</svg>
