<!-- Generator: Adobe Illustrator 24.0.1, SVG Export Plug-In  -->
<svg version="1.1" xmlns="http://www.w3.org/2000/svg" xmlns:xlink="http://www.w3.org/1999/xlink" x="0px" y="0px"
	 width="206.87px" height="188.12px" viewBox="0 0 206.87 188.12" style="enable-background:new 0 0 206.87 188.12;"
	 xml:space="preserve">
<style type="text/css">
	.st0{fill:#49D6B1;}
</style>
<defs>
</defs>
<g>
	<path d="M200.76,25.97c-3.93-0.59-7.6,2.1-8.2,6.03l-9.3,60.94L65.05,105.89L41.24,5.54C40.47,2.29,37.57,0,34.23,0H7.2
		C3.22,0,0,3.22,0,7.2s3.22,7.2,7.2,7.2h21.35l30.2,127.27c0.77,3.24,3.67,5.54,7,5.54h112.55c3.97,0,7.2-3.22,7.2-7.2
		s-3.22-7.2-7.2-7.2H71.44l-3.04-12.8l121.93-13.37c3.24-0.36,5.84-2.85,6.33-6.07l10.13-66.4
		C207.39,30.24,204.69,26.57,200.76,25.97z"/>
	<circle cx="82.08" cy="173.49" r="14.63"/>
	<circle cx="163.66" cy="173.49" r="14.63"/>
	<path class="st0" d="M94.39,57.05l-19.6,0.97c-2.75,0.14-5.31-1.53-5.7-3.75l-3-17.44c-0.43-2.48,1.67-4.52,4.65-4.52h21.18
		c2.72,0,5.06,1.91,5.27,4.25l1.42,16.47C98.8,55.14,96.92,56.92,94.39,57.05z"/>
	<path class="st0" d="M99.12,89.47l-17.71,1.96c-2.48,0.27-4.76-0.97-5.07-2.79l-2.46-14.29c-0.35-2.02,1.55-3.83,4.21-4.01
		l18.99-1.31c2.45-0.17,4.55,1.27,4.72,3.2l1.18,13.65C103.13,87.61,101.41,89.22,99.12,89.47z"/>
	<path class="st0" d="M134.99,55.14l-16.65,0.83c-2.33,0.12-4.32-1.43-4.42-3.48l-0.79-16.04c-0.11-2.27,1.84-4.13,4.34-4.13h17.78
		c2.29,0,4.09,1.76,4.04,3.91l-0.35,15.21C138.9,53.39,137.14,55.04,134.99,55.14z"/>
	<path class="st0" d="M134.66,85.59l-15.26,1.69c-2.13,0.24-3.94-0.95-4.02-2.66l-0.65-13.36c-0.09-1.88,1.69-3.55,3.95-3.71
		l16.21-1.12c2.1-0.15,3.75,1.21,3.71,3.01l-0.29,12.79C138.26,83.88,136.64,85.37,134.66,85.59z"/>
	<path class="st0" d="M170.69,53.51l-14.32,0.71c-2,0.1-3.55-1.35-3.45-3.25l0.81-14.85c0.11-2.09,1.94-3.81,4.06-3.81h15.14
		c1.96,0,3.34,1.63,3.11,3.62l-1.64,14.14C174.2,51.89,172.54,53.42,170.69,53.51z"/>
	<path class="st0" d="M168.46,82.8l-13.28,1.47c-1.85,0.2-3.29-0.92-3.2-2.54l0.68-12.53c0.1-1.76,1.77-3.31,3.72-3.45l13.99-0.97
		c1.81-0.13,3.11,1.15,2.92,2.84l-1.39,12.03C171.72,81.21,170.18,82.61,168.46,82.8z"/>
</g>
</svg>
