<!-- Generator: Adobe Illustrator 24.0.1, SVG Export Plug-In  -->
<svg version="1.1" xmlns="http://www.w3.org/2000/svg" xmlns:xlink="http://www.w3.org/1999/xlink" x="0px" y="0px"
	 width="1324.8px" height="227.7px" viewBox="0 0 1324.8 227.7" style="enable-background:new 0 0 1324.8 227.7;"
	 xml:space="preserve">
<style type="text/css">
	.st0{fill:#49D6B1;}
	.st1{fill:#FFFFFF;}
</style>
<defs>
</defs>
<path class="st0" d="M1211,227.7H113.9C51,227.7,0,176.7,0,113.9v0C0,51,51,0,113.9,0H1211c62.9,0,113.9,51,113.9,113.9v0
	C1324.8,176.7,1273.9,227.7,1211,227.7z"/>
<g>
	<g>
		<path class="st1" d="M172.4,113.9c0,2.5-2,4.5-4.5,4.5h-41.4v41.4c0,2.5-2,4.5-4.5,4.5c-2.5,0-4.5-2-4.5-4.5v-41.4H76.2
			c-2.5,0-4.5-2-4.5-4.5c0-2.5,2-4.5,4.5-4.5h41.3V68c0-2.5,2-4.5,4.5-4.5c2.5,0,4.5,2,4.5,4.5v41.4h41.4
			C170.4,109.4,172.4,111.4,172.4,113.9z"/>
	</g>
</g>
<g>
	<path class="st1" d="M261.5,141.7h-35.7l-7.8,18.6h-18.7l38-88.4h13.5l37,88.4h-18.6L261.5,141.7z M256.5,127.7l-12.6-31.8
		l-12.6,31.8H256.5z"/>
	<path class="st1" d="M339.9,63.7H356v96.6h-16.2v-7.4c-5.8,8.3-13.5,9.3-17.6,9.3c-17.6,0-29.3-13.8-29.3-30.6
		c0-17,11.5-30.5,28.5-30.5c4.4,0,13,0.8,18.4,9.3V63.7z M309.6,131.5c0,9.1,6.6,16.3,15.9,16.3c9.3,0,15.9-7.2,15.9-16.3
		c0-9.1-6.6-16.2-15.9-16.2C316.3,115.4,309.6,122.4,309.6,131.5z"/>
	<path class="st1" d="M415.4,63.7h16.2v96.6h-16.2v-7.4c-5.8,8.3-13.5,9.3-17.6,9.3c-17.6,0-29.3-13.8-29.3-30.6
		c0-17,11.5-30.5,28.5-30.5c4.4,0,13,0.8,18.4,9.3V63.7z M385.2,131.5c0,9.1,6.6,16.3,15.9,16.3c9.3,0,15.9-7.2,15.9-16.3
		c0-9.1-6.6-16.2-15.9-16.2C391.8,115.4,385.2,122.4,385.2,131.5z"/>
	<path class="st1" d="M500.2,119.9l-30.4-48h20.4l19,30.7l19-30.7h20.4l-31.1,48v40.4h-17.2V119.9z"/>
	<path class="st1" d="M598.2,109.1c5.7,5.2,9.7,13.1,9.7,22.5c0,9.3-4,17.2-9.7,22.4c-4.9,4.5-12.3,8.1-23.2,8.1
		c-10.9,0-18.3-3.6-23.2-8.1c-5.7-5.2-9.7-13.1-9.7-22.4c0-9.4,4-17.4,9.7-22.5c4.9-4.5,12.3-8.1,23.2-8.1
		C585.8,101,593.3,104.6,598.2,109.1z M591.2,131.7c0-9-6.9-16.3-16.2-16.3c-9.3,0-16.2,7.3-16.2,16.3c0,8.7,6.8,16.2,16.2,16.2
		C584.4,147.8,591.2,140.4,591.2,131.7z"/>
	<path class="st1" d="M636.5,102.9v32.5c0,3,0.3,7.2,3.4,10.1c2,1.7,5.2,2.9,8.2,2.9c3,0,6.2-1.2,8.2-2.9c3.2-2.9,3.4-7,3.4-10.1
		v-32.5H676V138c0,5.2-0.7,12.1-7,17.6c-5.3,4.6-13.8,6.5-20.8,6.5c-7,0-15.5-1.9-20.8-6.5c-6.4-5.6-7-12.5-7-17.6v-35.1H636.5z"/>
	<path class="st1" d="M691.4,102.9h16.2v8.6c2.5-4.9,6-7.3,7.2-8c2.5-1.6,5.7-2.5,9.5-2.5c2.8,0,5,0.7,6.9,1.3l-2.1,15.1
		c-2.1-1.5-4.2-2.1-7.6-2.1c-3,0-7.6,0.7-10.7,4.6c-3,3.8-3.2,8.7-3.2,12.7v27.6h-16.2V102.9z"/>
	<path class="st1" d="M794.2,71.9c4.9,0,14.4,0,21.6,5.6c5.2,4,8.2,10.9,8.2,18.3c0,11.4-7.6,16-9.9,17.4c5.8,0.9,9.3,3.4,11.5,5.6
		c5.3,5,6.4,11.9,6.4,16.6c0,5.2-1.5,12.5-7.6,17.9c-6.6,5.8-14.7,7.2-22.4,7.2h-29.7V71.9H794.2z M789.6,108.6h4.9
		c2.7,0,13.4-0.3,13.4-11.5c0-8.1-6.2-11.1-13.3-11.1h-5V108.6z M789.6,146.2h7.4c3.2,0,8-0.1,11.8-2.4c4.2-2.5,5.4-6.8,5.4-10.2
		c0-2.8-0.9-7.6-6.5-10.1c-3.7-1.7-8.1-1.7-11.8-1.7h-6.4V146.2z"/>
	<path class="st1" d="M861.7,102.9v32.5c0,3,0.3,7.2,3.4,10.1c2,1.7,5.2,2.9,8.2,2.9c3,0,6.2-1.2,8.2-2.9c3.2-2.9,3.4-7,3.4-10.1
		v-32.5h16.2V138c0,5.2-0.7,12.1-7,17.6c-5.3,4.6-13.8,6.5-20.8,6.5c-7,0-15.5-1.9-20.8-6.5c-6.4-5.6-7-12.5-7-17.6v-35.1H861.7z"/>
	<path class="st1" d="M947.8,116.6c-3.8-3.6-7.7-3.8-9.4-3.8c-3.8,0-6.2,1.9-6.2,4.6c0,1.5,0.7,3.7,5.2,5.2l3.8,1.2
		c4.5,1.5,11.3,3.7,14.6,8.2c1.7,2.4,2.9,5.8,2.9,9.5c0,5.2-1.7,10.3-6.4,14.6c-4.6,4.2-10.2,6.1-17.2,6.1
		c-11.9,0-18.7-5.7-22.3-9.5l8.5-9.8c3.2,3.7,8,6.6,12.7,6.6c4.5,0,8-2.3,8-6.2c0-3.6-2.9-5-5-5.8l-3.7-1.3
		c-4.1-1.5-8.9-3.3-12.3-6.9c-2.7-2.8-4.4-6.4-4.4-11c0-5.6,2.7-10.2,6-13c4.5-3.6,10.3-4.1,15-4.1c4.2,0,11,0.5,18.3,6.1
		L947.8,116.6z"/>
	<path class="st1" d="M978.2,69c5.3,0,9.7,4.4,9.7,9.7c0,5.3-4.4,9.7-9.7,9.7s-9.7-4.4-9.7-9.7C968.5,73.3,972.9,69,978.2,69z
		 M986.2,102.9v57.4h-16.2v-57.4H986.2z"/>
	<path class="st1" d="M1001.6,102.9h16.2v7.4c3-4.2,8.5-9.3,17.8-9.3c5,0,12.5,1.5,17,7c4,4.9,4.5,10.6,4.5,16.2v36.1h-16.2V129
		c0-3.2-0.1-8.2-3-11.3c-2.5-2.7-6-2.9-7.6-2.9c-4.2,0-7.6,1.5-9.9,5c-2.4,3.7-2.5,7.8-2.5,11.1v29.3h-16.2V102.9z"/>
	<path class="st1" d="M1128.7,144.3c-1.7,4.2-8.2,17.9-28.2,17.9c-9.3,0-16.3-2.7-22-8.1c-6.4-6-9-13.4-9-22.4
		c0-11.4,4.6-18.4,8.7-22.5c6.8-6.6,14.7-8.1,21.6-8.1c11.7,0,18.4,4.6,22.4,9.4c6.1,7.3,6.9,16.3,6.9,22.5v1.3h-42.9
		c0,3.4,0.9,7.2,2.8,9.7c1.7,2.4,5.3,5.4,11.5,5.4c6.1,0,10.7-2.9,13.4-7.6L1128.7,144.3z M1113.9,124c-1.3-7.8-7.7-11.5-13.7-11.5
		s-12.2,3.8-13.5,11.5H1113.9z"/>
	<path class="st1" d="M1172.9,116.6c-3.8-3.6-7.7-3.8-9.4-3.8c-3.8,0-6.2,1.9-6.2,4.6c0,1.5,0.7,3.7,5.2,5.2l3.8,1.2
		c4.5,1.5,11.3,3.7,14.6,8.2c1.7,2.4,2.9,5.8,2.9,9.5c0,5.2-1.7,10.3-6.4,14.6c-4.6,4.2-10.2,6.1-17.2,6.1
		c-11.9,0-18.7-5.7-22.3-9.5l8.5-9.8c3.2,3.7,8,6.6,12.7,6.6c4.5,0,8-2.3,8-6.2c0-3.6-2.9-5-5-5.8l-3.7-1.3
		c-4.1-1.5-8.9-3.3-12.3-6.9c-2.7-2.8-4.4-6.4-4.4-11c0-5.6,2.7-10.2,6-13c4.5-3.6,10.3-4.1,15-4.1c4.2,0,11,0.5,18.3,6.1
		L1172.9,116.6z"/>
	<path class="st1" d="M1223.8,116.6c-3.8-3.6-7.7-3.8-9.4-3.8c-3.8,0-6.2,1.9-6.2,4.6c0,1.5,0.7,3.7,5.2,5.2l3.8,1.2
		c4.5,1.5,11.3,3.7,14.6,8.2c1.7,2.4,2.9,5.8,2.9,9.5c0,5.2-1.7,10.3-6.4,14.6c-4.6,4.2-10.2,6.1-17.2,6.1
		c-11.9,0-18.7-5.7-22.3-9.5l8.5-9.8c3.2,3.7,8,6.6,12.7,6.6c4.5,0,8-2.3,8-6.2c0-3.6-2.9-5-5-5.8l-3.7-1.3
		c-4.1-1.5-8.9-3.3-12.3-6.9c-2.7-2.8-4.4-6.4-4.4-11c0-5.6,2.7-10.2,6-13c4.5-3.6,10.3-4.1,15-4.1c4.2,0,11,0.5,18.3,6.1
		L1223.8,116.6z"/>
</g>
</svg>
