<!-- Generator: Adobe Illustrator 24.0.1, SVG Export Plug-In  -->
<svg version="1.1" xmlns="http://www.w3.org/2000/svg" xmlns:xlink="http://www.w3.org/1999/xlink" x="0px" y="0px"
	 width="3094.93px" height="2612.765px" viewBox="0 0 3094.93 2612.765" enable-background="new 0 0 3094.93 2612.765"
	 xml:space="preserve">
<defs>
</defs>
<linearGradient id="SVGID_1_" gradientUnits="userSpaceOnUse" x1="1343.465" y1="6278.7524" x2="1343.465" y2="7217.5464" gradientTransform="matrix(1 0 0 -1 204 8737.8066)">
	<stop  offset="0" style="stop-color:#FFFFFF;stop-opacity:0"/>
	<stop  offset="0.2012" style="stop-color:#F3FFFB;stop-opacity:0.2012"/>
	<stop  offset="0.7014" style="stop-color:#D9FFF1;stop-opacity:0.7014"/>
	<stop  offset="1" style="stop-color:#CFFFEE"/>
</linearGradient>
<path fill="url(#SVGID_1_)" d="M0,1698.515c1047.08-218.35,2063.07-256.24,3094.93,0v760.54H4.93L0,1698.515z"/>
<g>
	<polygon fill="#49D6B1" points="2213.92,2324.025 2018.79,2324.025 2051.52,2275.295 2181.19,2275.295 	"/>
	<polygon fill="#49D6B1" points="2196.63,2255.525 2036.09,2255.525 2067.73,2206.335 2164.98,2206.335 	"/>
	<polygon fill="#49D6B1" points="2179.33,2187.025 2053.38,2187.025 2083.94,2137.365 2148.77,2137.365 	"/>
	<polygon fill="#49D6B1" points="2162.03,2118.525 2070.68,2118.525 2100.15,2068.395 2132.57,2068.395 	"/>
	<polygon fill="#49D6B1" points="2144.74,2050.025 2087.97,2050.025 2116.36,1999.425 2116.36,1999.425 	"/>
	<rect x="2083.15" y="2343.535" width="68.27" height="49.22"/>
</g>
<g>
	<g>
		<g>
			<circle fill="#49D6B1" cx="1243.46" cy="2059.835" r="15.88"/>
			<path fill="#49D6B1" d="M1264.52,2105.475v40.79h-42.12v-40.79c0-11.53,9.36-21.06,21.06-21.06c5.77,0,11.03,2.34,14.85,6.14
				C1262.14,2094.355,1264.52,2099.625,1264.52,2105.475z"/>
		</g>
		<g>
			<path d="M1145.68,2198.205c0,19.54-15.85,35.39-35.39,35.39s-35.39-15.84-35.39-35.39c0-2.72,0.31-5.37,0.89-7.91
				c3.6-15.74,17.67-27.47,34.5-27.47s30.91,11.74,34.5,27.47C1145.37,2192.835,1145.68,2195.485,1145.68,2198.205z"/>
		</g>
		<circle cx="1285.35" cy="2218.005" r="15.59"/>
		<path d="M1308.56,2007.205l-0.29,183.09h-149.01c-3.8-23.61-24.31-41.68-48.97-41.68c-13.65,0-26.04,5.54-35.01,14.49
			l-0.38-155.89h21.78v102.49h190.1v-102.5L1308.56,2007.205L1308.56,2007.205z"/>
		<polygon points="1091.03,1931.225 1074.81,2007.205 1049.49,2007.205 1065.64,1931.225 		"/>
		<polygon points="1139.64,2007.205 1114.28,2007.205 1122.36,1931.225 1147.75,1931.225 		"/>
		<rect x="1179.08" y="1931.215" width="25.39" height="75.99"/>
		<polygon points="1292.51,1931.225 1308.74,2007.205 1334.05,2007.205 1317.91,1931.225 		"/>
		<polygon points="1243.91,2007.205 1269.26,2007.205 1261.19,1931.225 1235.79,1931.225 		"/>
	</g>
	<g>
		<circle fill="#49D6B1" cx="1026.91" cy="2151.715" r="17.02"/>
		<path fill="#49D6B1" d="M1049.31,2265.315h-44.98v-64.67c0-12.37,10.04-22.58,22.58-22.58l0,0c12.37,0,22.58,10.04,22.58,22.58
			v64.67H1049.31z"/>
	</g>
	<g>
		<circle fill="#49D6B1" cx="1204.75" cy="2159.795" r="13.54"/>
		<path fill="#49D6B1" d="M1222.57,2233.465h-35.77v-34.77c0-9.83,7.98-17.96,17.96-17.96l0,0c9.83,0,17.95,7.98,17.95,17.96v34.77
			H1222.57z"/>
	</g>
	<path d="M1355.82,2119.415h-62.99v-9.49h62.99c2.62,0,4.75,2.12,4.75,4.75l0,0C1360.57,2117.295,1358.44,2119.415,1355.82,2119.415
		z"/>
</g>
<g>
	<g>
		<polygon fill="#49D6B1" points="1082.44,1795.675 879.21,1795.675 901.84,1756.825 1059.81,1756.825 		"/>
		<polygon fill="#49D6B1" points="1066.64,1740.315 895.01,1740.315 917.63,1701.165 1044.02,1701.165 		"/>
		<polygon fill="#49D6B1" points="1050.85,1684.955 910.8,1684.955 933.43,1645.505 1028.22,1645.505 		"/>
		<polygon fill="#49D6B1" points="1035.05,1629.595 926.6,1629.595 949.23,1589.855 1012.42,1589.855 		"/>
		<polygon fill="#49D6B1" points="1019.25,1574.235 942.4,1574.235 965.03,1534.195 996.62,1534.195 		"/>
		<polygon fill="#49D6B1" points="1003.45,1518.875 958.2,1518.875 980.82,1478.535 980.82,1478.535 		"/>
	</g>
	<rect x="953.61" y="1813.925" width="54.43" height="39.24"/>
</g>
<g>
	<polygon fill="#49D6B1" points="1371.19,1672.765 1270.77,1672.765 1281.99,1647.685 1359.97,1647.685 	"/>
	<polygon fill="#49D6B1" points="1365.25,1639.445 1276.71,1639.445 1288.49,1614.215 1353.47,1614.215 	"/>
	<polygon fill="#49D6B1" points="1359.32,1606.135 1282.64,1606.135 1294.99,1580.735 1346.97,1580.735 	"/>
	<polygon fill="#49D6B1" points="1353.39,1572.815 1288.57,1572.815 1301.49,1547.255 1340.47,1547.255 	"/>
	<polygon fill="#49D6B1" points="1347.45,1539.495 1294.51,1539.495 1307.99,1513.775 1333.98,1513.775 	"/>
	<polygon fill="#49D6B1" points="1341.52,1506.185 1300.44,1506.185 1314.48,1480.305 1327.48,1480.305 	"/>
	<polygon fill="#49D6B1" points="1335.59,1472.865 1306.38,1472.865 1320.98,1446.825 1320.98,1446.825 	"/>
	<rect x="1303.41" y="1682.135" width="35.13" height="25.33"/>
</g>
<path fill="none" stroke="#000000" stroke-width="18" stroke-miterlimit="10" d="M2299.51,1507.425"/>
<g>
	<polygon points="2053.86,1601.575 2089.52,1601.575 2122.85,1458.215 2087.19,1458.215 	"/>
	<polygon points="2147.05,1601.575 2182.71,1601.575 2216.22,1458.215 2180.56,1458.215 	"/>
	<polygon points="2240.32,1601.575 2275.98,1601.575 2309.5,1458.215 2273.83,1458.215 	"/>
	<polygon points="2333.6,1601.575 2369.26,1601.575 2402.77,1458.215 2367.11,1458.215 	"/>
	<polygon points="2029.67,1458.215 1996.16,1601.575 1960.49,1601.575 1993.83,1458.215 	"/>
	<rect x="2097.43" y="1673.305" width="50.62" height="145.45"/>
	<rect x="1996.16" y="1601.575" width="35.66" height="218.21"/>
	<polygon points="2240.32,1673.295 2368.19,1673.495 2368.19,1769.395 2240.32,1769.205 	"/>
	<g>
		<circle fill="#49D6B1" cx="2335.23" cy="1726.525" r="15.85"/>
		<path fill="#49D6B1" d="M2355.91,1769.395h-41.53c1.33-10.34,10.18-18.35,20.85-18.35c5.84,0,11.01,2.34,14.85,6.17
			C2353.24,1760.385,2355.41,1764.725,2355.91,1769.395z"/>
	</g>
	<g>
		<circle fill="#49D6B1" cx="2148.14" cy="1760.955" r="15.59"/>
		<path fill="#49D6B1" d="M2168.65,1864.955h-41.18v-59.21c0-11.32,9.19-20.67,20.67-20.67l0,0c11.32,0,20.67,9.19,20.67,20.67
			v59.21H2168.65z"/>
	</g>
</g>
<g>
	<path fill="#49D6B1" d="M1817.6,2213.145c-16.2,66.63-45.95,129.67-89.69,184.53l-130.62,163.87
		c-26.21,32.88-57.33,51.22-86.91,51.22H1191.9c-14.63,0-15.93-30.54-1.86-43.65l432.25-402.81c32.13-29.95,50.72-72.88,52.28-115.9
		c1.44-39.4-11.74-72.6-35.15-92.87l-73.07-63.28c-23.77-20.59-39.19-45.14-46.36-72.17c-6.25-23.61-5.62-48.26,1.14-71.2
		c6.31-21.38,17.98-41.39,33.38-58.16c15.49-16.87,34.32-30.38,56.04-40.62l56.1-26.41c15.22-7.17,22.98-17.66,24.4-28.98
		c4.44-35.6-79.37-75.59-79.37-75.59c60.83-6.11,103.23,16.72,103.23,16.72c15.65,6.3,28.47,14.57,38.03,24.76
		c9.4,10,15.34,21.74,16.92,34.12c1.66,13.04-1.52,26.81-9.58,39.77c-9.05,14.54-23.57,27.51-43.32,38.2l-58.92,31.9
		c-18.32,9.92-30.44,25.86-32.85,44.3c-2.57,19.59,6.18,38.57,24.67,51.49l69.76,48.77c27.71,19.36,51.18,45.37,69.78,78.54
		c18.95,33.78,32.46,75.13,38.26,120.72C1834.15,2100.915,1831.2,2157.205,1817.6,2213.145z"/>
</g>
<g>
	<polygon fill="#49D6B1" points="2908.76,2396.525 2348.51,2396.525 2410.89,2289.435 2846.38,2289.435 	"/>
	<polygon fill="#49D6B1" points="2854.32,2245.975 2402.95,2245.975 2465.33,2137.845 2791.95,2137.845 	"/>
	<polygon fill="#49D6B1" points="2799.89,2095.425 2457.39,2095.425 2519.76,1986.265 2737.51,1986.265 	"/>
	<polygon fill="#49D6B1" points="2745.45,1944.875 2511.82,1944.875 2574.2,1834.685 2683.07,1834.685 	"/>
	<polygon fill="#49D6B1" points="2691.02,1794.325 2566.26,1794.325 2628.64,1683.105 2628.64,1683.105 	"/>
	<rect x="2553.61" y="2439.405" width="150.05" height="108.17"/>
</g>
<g>
	<polygon fill="#49D6B1" points="827.215,2392.405 400.715,2392.405 448.375,2285.905 779.555,2285.905 	"/>
	<polygon fill="#49D6B1" points="802.015,2250.895 425.915,2250.895 475.975,2143.715 751.955,2143.715 	"/>
	<polygon fill="#49D6B1" points="776.815,2109.395 451.125,2109.395 503.575,2001.525 724.355,2001.525 	"/>
	<polygon fill="#49D6B1" points="751.605,1967.885 476.325,1967.885 531.175,1859.335 696.755,1859.335 	"/>
	<polygon fill="#49D6B1" points="726.405,1826.385 501.525,1826.385 558.775,1717.145 669.165,1717.145 	"/>
	<polygon fill="#49D6B1" points="701.205,1684.875 526.735,1684.875 586.365,1574.955 641.565,1574.955 	"/>
	<polygon fill="#49D6B1" points="676.005,1543.365 551.935,1543.365 613.965,1432.765 613.965,1432.765 	"/>
	<rect x="539.355" y="2432.195" width="149.22" height="107.57"/>
</g>
<linearGradient id="SVGID_2_" gradientUnits="userSpaceOnUse" x1="3715.9001" y1="-5237.5327" x2="3715.9001" y2="-5021.2769" gradientTransform="matrix(-1 0 0 -1 4493.8921 -4861.2876)">
	<stop  offset="0" style="stop-color:#FFFFFF;stop-opacity:0"/>
	<stop  offset="0.0716" style="stop-color:#EDFCFF;stop-opacity:0.0287"/>
	<stop  offset="0.2007" style="stop-color:#D2F9FF;stop-opacity:0.0804"/>
	<stop  offset="0.3425" style="stop-color:#BEF6FF;stop-opacity:0.1373"/>
	<stop  offset="0.5017" style="stop-color:#AFF4FF;stop-opacity:0.2011"/>
	<stop  offset="0.6924" style="stop-color:#A7F2FF;stop-opacity:0.2775"/>
	<stop  offset="0.9981" style="stop-color:#A4F2FF;stop-opacity:0.4"/>
</linearGradient>
<path fill="url(#SVGID_2_)" d="M290.089,297.478c0,40.621,101.128,73.55,225.875,73.55c31.479,0,61.452-2.098,88.677-5.886
	c21.948,18.822,77.819,32.198,143.276,32.198c49.63,0,93.749-7.69,121.749-19.613c35.938,7.855,79.185,12.438,125.72,12.438
	c124.747,0,225.875-32.93,225.875-73.55c0-7.902-3.829-15.513-10.912-22.647c33.931-9.159,55.546-22.992,55.546-38.472
	c0-27.576-68.599-49.931-153.22-49.931c-0.574,0-1.147,0.001-1.72,0.004c-13.784-36.321-108.884-64.438-224.155-64.438
	c-90.614,0-168.766,17.375-204.749,42.451c-23.817-4.97-52.133-7.852-82.513-7.852c-84.621,0-153.22,22.355-153.22,49.931
	c0,0.609,0.035,1.215,0.102,1.819C355.701,237.03,290.089,264.759,290.089,297.478z"/>
<linearGradient id="SVGID_3_" gradientUnits="userSpaceOnUse" x1="2092.8772" y1="-5634.9219" x2="2092.8772" y2="-5387.7939" gradientTransform="matrix(-1 0 0 -1 4493.8921 -4861.2876)">
	<stop  offset="0" style="stop-color:#FFFFFF;stop-opacity:0"/>
	<stop  offset="0.0716" style="stop-color:#EDFCFF;stop-opacity:0.0287"/>
	<stop  offset="0.2007" style="stop-color:#D2F9FF;stop-opacity:0.0804"/>
	<stop  offset="0.3425" style="stop-color:#BEF6FF;stop-opacity:0.1373"/>
	<stop  offset="0.5017" style="stop-color:#AFF4FF;stop-opacity:0.2011"/>
	<stop  offset="0.6924" style="stop-color:#A7F2FF;stop-opacity:0.2775"/>
	<stop  offset="0.9981" style="stop-color:#A4F2FF;stop-opacity:0.4"/>
</linearGradient>
<path fill="url(#SVGID_3_)" d="M1843.46,683.623c0,46.42,115.564,84.05,258.12,84.05c35.972,0,70.225-2.397,101.336-6.726
	c25.082,21.509,88.928,36.795,163.729,36.795c56.716,0,107.132-8.788,139.13-22.413c41.069,8.976,90.489,14.213,143.667,14.213
	c142.556,0,258.12-37.631,258.12-84.05c0-9.03-4.375-17.728-12.47-25.88c38.774-10.466,63.476-26.275,63.476-43.964
	c0-31.513-78.392-57.059-175.094-57.059c-0.656,0-1.311,0.002-1.966,0.004c-15.751-41.506-124.427-73.637-256.154-73.637
	c-103.55,0-192.859,19.855-233.979,48.512c-27.218-5.68-59.575-8.973-94.293-8.973c-96.701,0-175.093,25.546-175.093,57.059
	c0,0.696,0.04,1.389,0.116,2.079C1918.439,614.546,1843.46,646.233,1843.46,683.623z"/>
<linearGradient id="SVGID_4_" gradientUnits="userSpaceOnUse" x1="4244.2358" y1="1315.4033" x2="4244.2358" y2="1099.1476" gradientTransform="matrix(1 0 0 1 -3092.5911 -1080.2887)">
	<stop  offset="0" style="stop-color:#FFFFFF;stop-opacity:0"/>
	<stop  offset="0.0716" style="stop-color:#EDFCFF;stop-opacity:0.0287"/>
	<stop  offset="0.2007" style="stop-color:#D2F9FF;stop-opacity:0.0804"/>
	<stop  offset="0.3425" style="stop-color:#BEF6FF;stop-opacity:0.1373"/>
	<stop  offset="0.5017" style="stop-color:#AFF4FF;stop-opacity:0.2011"/>
	<stop  offset="0.6924" style="stop-color:#A7F2FF;stop-opacity:0.2775"/>
	<stop  offset="0.9981" style="stop-color:#A4F2FF;stop-opacity:0.4"/>
</linearGradient>
<path fill="url(#SVGID_4_)" d="M1639.548,99.863c0-40.621-101.128-73.55-225.875-73.55c-31.479,0-61.452,2.098-88.677,5.886
	C1303.047,13.376,1247.177,0,1181.72,0c-49.63,0-93.749,7.69-121.749,19.613c-35.938-7.855-79.185-12.438-125.72-12.438
	c-124.747,0-225.875,32.93-225.875,73.55c0,7.902,3.829,15.513,10.912,22.647c-33.931,9.159-55.546,22.992-55.546,38.472
	c0,27.576,68.599,49.931,153.22,49.931c0.574,0,1.147-0.001,1.72-0.004c13.784,36.321,108.884,64.438,224.155,64.438
	c90.615,0,168.766-17.375,204.749-42.451c23.817,4.97,52.133,7.852,82.513,7.852c84.621,0,153.22-22.355,153.22-49.931
	c0-0.609-0.035-1.215-0.102-1.819C1573.936,160.311,1639.548,132.582,1639.548,99.863z"/>
<linearGradient id="SVGID_5_" gradientUnits="userSpaceOnUse" x1="5084.8359" y1="2195.4924" x2="5084.8359" y2="1948.3646" gradientTransform="matrix(1 0 0 1 -3092.5911 -1080.2887)">
	<stop  offset="0" style="stop-color:#FFFFFF;stop-opacity:0"/>
	<stop  offset="0.0716" style="stop-color:#EDFCFF;stop-opacity:0.0287"/>
	<stop  offset="0.2007" style="stop-color:#D2F9FF;stop-opacity:0.0804"/>
	<stop  offset="0.3425" style="stop-color:#BEF6FF;stop-opacity:0.1373"/>
	<stop  offset="0.5017" style="stop-color:#AFF4FF;stop-opacity:0.2011"/>
	<stop  offset="0.6924" style="stop-color:#A7F2FF;stop-opacity:0.2775"/>
	<stop  offset="0.9981" style="stop-color:#A4F2FF;stop-opacity:0.4"/>
</linearGradient>
<path fill="url(#SVGID_5_)" d="M2549.8,960.644c0-46.42-115.564-84.05-258.12-84.05c-35.972,0-70.225,2.397-101.336,6.726
	c-25.082-21.509-88.928-36.795-163.729-36.795c-56.716,0-107.132,8.788-139.13,22.413c-41.069-8.976-90.489-14.213-143.667-14.213
	c-142.556,0-258.12,37.63-258.12,84.05c0,9.03,4.375,17.728,12.47,25.88c-38.774,10.466-63.476,26.275-63.476,43.964
	c0,31.513,78.392,57.059,175.094,57.059c0.656,0,1.311-0.002,1.966-0.004c15.751,41.506,124.428,73.637,256.154,73.637
	c103.55,0,192.859-19.855,233.979-48.512c27.218,5.68,59.575,8.973,94.293,8.973c96.701,0,175.093-25.546,175.093-57.059
	c0-0.696-0.04-1.389-0.116-2.078C2474.821,1029.721,2549.8,998.034,2549.8,960.644z"/>
</svg>
