<!-- Generator: Adobe Illustrator 24.0.1, SVG Export Plug-In  -->
<svg version="1.1" xmlns="http://www.w3.org/2000/svg" xmlns:xlink="http://www.w3.org/1999/xlink" x="0px" y="0px"
	 width="3094.93px" height="1180px" viewBox="0 0 3094.93 1180" enable-background="new 0 0 3094.93 1180" xml:space="preserve">
<defs>
</defs>
<linearGradient id="SVGID_1_" gradientUnits="userSpaceOnUse" x1="1343.465" y1="-5770.3066" x2="1343.465" y2="-4831.5127" gradientTransform="matrix(1 0 0 -1 204 -4744.0166)">
	<stop  offset="0" style="stop-color:#FFFFFF;stop-opacity:0"/>
	<stop  offset="0.2012" style="stop-color:#F3FFFB;stop-opacity:0.2012"/>
	<stop  offset="0.7014" style="stop-color:#D9FFF1;stop-opacity:0.7014"/>
	<stop  offset="1" style="stop-color:#CFFFEE"/>
</linearGradient>
<path fill="url(#SVGID_1_)" d="M0,265.75c1047.08-218.35,2063.07-256.24,3094.93,0v760.54H4.93L0,265.75z"/>
<g>
	<polygon fill="#49D6B1" points="2213.92,891.26 2018.79,891.26 2051.52,842.53 2181.19,842.53 	"/>
	<polygon fill="#49D6B1" points="2196.63,822.76 2036.09,822.76 2067.73,773.57 2164.98,773.57 	"/>
	<polygon fill="#49D6B1" points="2179.33,754.26 2053.38,754.26 2083.94,704.6 2148.77,704.6 	"/>
	<polygon fill="#49D6B1" points="2162.03,685.76 2070.68,685.76 2100.15,635.63 2132.57,635.63 	"/>
	<polygon fill="#49D6B1" points="2144.74,617.26 2087.97,617.26 2116.36,566.66 2116.36,566.66 	"/>
	<rect x="2083.15" y="910.77" width="68.27" height="49.22"/>
</g>
<g>
	<g>
		<g>
			<circle fill="#49D6B1" cx="1243.46" cy="627.07" r="15.88"/>
			<path fill="#49D6B1" d="M1264.52,672.71v40.79h-42.12v-40.79c0-11.53,9.36-21.06,21.06-21.06c5.77,0,11.03,2.34,14.85,6.14
				C1262.14,661.59,1264.52,666.86,1264.52,672.71z"/>
		</g>
		<g>
			<path d="M1145.68,765.44c0,19.54-15.85,35.39-35.39,35.39s-35.39-15.84-35.39-35.39c0-2.72,0.31-5.37,0.89-7.91
				c3.6-15.74,17.67-27.47,34.5-27.47s30.91,11.74,34.5,27.47C1145.37,760.07,1145.68,762.72,1145.68,765.44z"/>
		</g>
		<circle cx="1285.35" cy="785.24" r="15.59"/>
		<path d="M1308.56,574.44l-0.29,183.09h-149.01c-3.8-23.61-24.31-41.68-48.97-41.68c-13.65,0-26.04,5.54-35.01,14.49l-0.38-155.89
			h21.78v102.49h190.1v-102.5L1308.56,574.44L1308.56,574.44z"/>
		<polygon points="1091.03,498.46 1074.81,574.44 1049.49,574.44 1065.64,498.46 		"/>
		<polygon points="1139.64,574.44 1114.28,574.44 1122.36,498.46 1147.75,498.46 		"/>
		<rect x="1179.08" y="498.45" width="25.39" height="75.99"/>
		<polygon points="1292.51,498.46 1308.74,574.44 1334.05,574.44 1317.91,498.46 		"/>
		<polygon points="1243.91,574.44 1269.26,574.44 1261.19,498.46 1235.79,498.46 		"/>
	</g>
	<g>
		<circle fill="#49D6B1" cx="1026.91" cy="718.95" r="17.02"/>
		<path fill="#49D6B1" d="M1049.31,832.55h-44.98v-64.67c0-12.37,10.04-22.58,22.58-22.58l0,0c12.37,0,22.58,10.04,22.58,22.58
			v64.67H1049.31z"/>
	</g>
	<g>
		<circle fill="#49D6B1" cx="1204.75" cy="727.03" r="13.54"/>
		<path fill="#49D6B1" d="M1222.57,800.7h-35.77v-34.77c0-9.83,7.98-17.96,17.96-17.96l0,0c9.83,0,17.95,7.98,17.95,17.96v34.77
			H1222.57z"/>
	</g>
	<path d="M1355.82,686.65h-62.99v-9.49h62.99c2.62,0,4.75,2.12,4.75,4.75l0,0C1360.57,684.53,1358.44,686.65,1355.82,686.65z"/>
</g>
<g>
	<g>
		<polygon fill="#49D6B1" points="1082.44,362.91 879.21,362.91 901.84,324.06 1059.81,324.06 		"/>
		<polygon fill="#49D6B1" points="1066.64,307.55 895.01,307.55 917.63,268.4 1044.02,268.4 		"/>
		<polygon fill="#49D6B1" points="1050.85,252.19 910.8,252.19 933.43,212.74 1028.22,212.74 		"/>
		<polygon fill="#49D6B1" points="1035.05,196.83 926.6,196.83 949.23,157.09 1012.42,157.09 		"/>
		<polygon fill="#49D6B1" points="1019.25,141.47 942.4,141.47 965.03,101.43 996.62,101.43 		"/>
		<polygon fill="#49D6B1" points="1003.45,86.11 958.2,86.11 980.82,45.77 980.82,45.77 		"/>
	</g>
	<rect x="953.61" y="381.16" width="54.43" height="39.24"/>
</g>
<g>
	<polygon fill="#49D6B1" points="1371.19,240 1270.77,240 1281.99,214.92 1359.97,214.92 	"/>
	<polygon fill="#49D6B1" points="1365.25,206.68 1276.71,206.68 1288.49,181.45 1353.47,181.45 	"/>
	<polygon fill="#49D6B1" points="1359.32,173.37 1282.64,173.37 1294.99,147.97 1346.97,147.97 	"/>
	<polygon fill="#49D6B1" points="1353.39,140.05 1288.57,140.05 1301.49,114.49 1340.47,114.49 	"/>
	<polygon fill="#49D6B1" points="1347.45,106.73 1294.51,106.73 1307.99,81.01 1333.98,81.01 	"/>
	<polygon fill="#49D6B1" points="1341.52,73.42 1300.44,73.42 1314.48,47.54 1327.48,47.54 	"/>
	<polygon fill="#49D6B1" points="1335.59,40.1 1306.38,40.1 1320.98,14.06 1320.98,14.06 	"/>
	<rect x="1303.41" y="249.37" width="35.13" height="25.33"/>
</g>
<path fill="none" stroke="#000000" stroke-width="18" stroke-miterlimit="10" d="M2299.51,74.66"/>
<g>
	<polygon points="2053.86,168.81 2089.52,168.81 2122.85,25.45 2087.19,25.45 	"/>
	<polygon points="2147.05,168.81 2182.71,168.81 2216.22,25.45 2180.56,25.45 	"/>
	<polygon points="2240.32,168.81 2275.98,168.81 2309.5,25.45 2273.83,25.45 	"/>
	<polygon points="2333.6,168.81 2369.26,168.81 2402.77,25.45 2367.11,25.45 	"/>
	<polygon points="2029.67,25.45 1996.16,168.81 1960.49,168.81 1993.83,25.45 	"/>
	<rect x="2097.43" y="240.54" width="50.62" height="145.45"/>
	<rect x="1996.16" y="168.81" width="35.66" height="218.21"/>
	<polygon points="2240.32,240.53 2368.19,240.73 2368.19,336.63 2240.32,336.44 	"/>
	<g>
		<circle fill="#49D6B1" cx="2335.23" cy="293.76" r="15.85"/>
		<path fill="#49D6B1" d="M2355.91,336.63h-41.53c1.33-10.34,10.18-18.35,20.85-18.35c5.84,0,11.01,2.34,14.85,6.17
			C2353.24,327.62,2355.41,331.96,2355.91,336.63z"/>
	</g>
	<g>
		<circle fill="#49D6B1" cx="2148.14" cy="328.19" r="15.59"/>
		<path fill="#49D6B1" d="M2168.65,432.19h-41.18v-59.21c0-11.32,9.19-20.67,20.67-20.67l0,0c11.32,0,20.67,9.19,20.67,20.67v59.21
			H2168.65z"/>
	</g>
</g>
<g>
	<path fill="#49D6B1" d="M1817.6,780.38c-16.2,66.63-45.95,129.67-89.69,184.53l-130.62,163.87
		c-26.21,32.88-57.33,51.22-86.91,51.22H1191.9c-14.63,0-15.93-30.54-1.86-43.65l432.25-402.81c32.13-29.95,50.72-72.88,52.28-115.9
		c1.44-39.4-11.74-72.6-35.15-92.87l-73.07-63.28c-23.77-20.59-39.19-45.14-46.36-72.17c-6.25-23.61-5.62-48.26,1.14-71.2
		c6.31-21.38,17.98-41.39,33.38-58.16c15.49-16.87,34.32-30.38,56.04-40.62l56.1-26.41c15.22-7.17,22.98-17.66,24.4-28.98
		c4.44-35.6-79.37-75.59-79.37-75.59c60.83-6.11,103.23,16.72,103.23,16.72c15.65,6.3,28.47,14.57,38.03,24.76
		c9.4,10,15.34,21.74,16.92,34.12c1.66,13.04-1.52,26.81-9.58,39.77c-9.05,14.54-23.57,27.51-43.32,38.2l-58.92,31.9
		c-18.32,9.92-30.44,25.86-32.85,44.3c-2.57,19.59,6.18,38.57,24.67,51.49l69.76,48.77c27.71,19.36,51.18,45.37,69.78,78.54
		c18.95,33.78,32.46,75.13,38.26,120.72C1834.15,668.15,1831.2,724.44,1817.6,780.38z"/>
</g>
<g>
	<polygon fill="#49D6B1" points="2908.76,963.76 2348.51,963.76 2410.89,856.67 2846.38,856.67 	"/>
	<polygon fill="#49D6B1" points="2854.32,813.21 2402.95,813.21 2465.33,705.08 2791.95,705.08 	"/>
	<polygon fill="#49D6B1" points="2799.89,662.66 2457.39,662.66 2519.76,553.5 2737.51,553.5 	"/>
	<polygon fill="#49D6B1" points="2745.45,512.11 2511.82,512.11 2574.2,401.92 2683.07,401.92 	"/>
	<polygon fill="#49D6B1" points="2691.02,361.56 2566.26,361.56 2628.64,250.34 2628.64,250.34 	"/>
	<rect x="2553.61" y="1006.64" width="150.05" height="108.17"/>
</g>
<g>
	<polygon fill="#49D6B1" points="827.215,959.64 400.715,959.64 448.375,853.14 779.555,853.14 	"/>
	<polygon fill="#49D6B1" points="802.015,818.13 425.915,818.13 475.975,710.95 751.955,710.95 	"/>
	<polygon fill="#49D6B1" points="776.815,676.63 451.125,676.63 503.575,568.76 724.355,568.76 	"/>
	<polygon fill="#49D6B1" points="751.605,535.12 476.325,535.12 531.175,426.57 696.755,426.57 	"/>
	<polygon fill="#49D6B1" points="726.405,393.62 501.525,393.62 558.775,284.38 669.165,284.38 	"/>
	<polygon fill="#49D6B1" points="701.205,252.11 526.735,252.11 586.365,142.19 641.565,142.19 	"/>
	<polygon fill="#49D6B1" points="676.005,110.6 551.935,110.6 613.965,0 613.965,0 	"/>
	<rect x="539.355" y="999.43" width="149.22" height="107.57"/>
</g>
</svg>
