<!-- Generator: Adobe Illustrator 24.0.1, SVG Export Plug-In  -->
<svg version="1.1" xmlns="http://www.w3.org/2000/svg" xmlns:xlink="http://www.w3.org/1999/xlink" x="0px" y="0px"
	 width="3316.95px" height="1277.79px" viewBox="0 0 3316.95 1277.79" style="enable-background:new 0 0 3316.95 1277.79;"
	 xml:space="preserve">
<style type="text/css">
	.st0{fill:url(#SVGID_1_);}
	.st1{fill:#49D6B1;}
	.st2{fill:none;stroke:#000000;stroke-width:18;stroke-miterlimit:10;}
	.st3{fill:url(#SVGID_2_);}
</style>
<defs>
</defs>
<linearGradient id="SVGID_1_" gradientUnits="userSpaceOnUse" x1="1622.8849" y1="1277.7893" x2="1622.8849" y2="338.9955">
	<stop  offset="0" style="stop-color:#FFFFFF;stop-opacity:0"/>
	<stop  offset="0.2012" style="stop-color:#F3FFFB;stop-opacity:0.2012"/>
	<stop  offset="0.7014" style="stop-color:#D9FFF1;stop-opacity:0.7014"/>
	<stop  offset="1" style="stop-color:#CFFFEE"/>
</linearGradient>
<path class="st0" d="M75.42,517.25c1047.08-218.35,2063.07-256.24,3094.93,0v760.54h-3090L75.42,517.25z"/>
<g>
	<g>
		<g>
			<circle class="st1" cx="2239.95" cy="473.06" r="15.88"/>
			<path class="st1" d="M2261.01,518.7v40.79h-42.12V518.7c0-11.53,9.36-21.06,21.06-21.06c5.77,0,11.03,2.34,14.85,6.14
				C2258.63,507.58,2261.01,512.85,2261.01,518.7z"/>
		</g>
		<g>
			<path d="M2142.17,611.43c0,19.54-15.85,35.39-35.39,35.39s-35.39-15.84-35.39-35.39c0-2.72,0.31-5.37,0.89-7.91
				c3.6-15.74,17.67-27.47,34.5-27.47c16.82,0,30.91,11.74,34.5,27.47C2141.87,606.06,2142.17,608.71,2142.17,611.43z"/>
		</g>
		<circle cx="2281.84" cy="631.23" r="15.59"/>
		<path d="M2305.05,420.43l-0.29,183.09h-149.01c-3.8-23.61-24.31-41.68-48.97-41.68c-13.65,0-26.04,5.54-35.01,14.49l-0.38-155.89
			h21.78v102.49h190.1v-102.5H2305.05z"/>
		<polygon points="2087.52,344.45 2071.3,420.43 2045.98,420.43 2062.13,344.45 		"/>
		<polygon points="2136.13,420.43 2110.78,420.43 2118.85,344.44 2144.24,344.44 		"/>
		<rect x="2175.57" y="344.44" width="25.39" height="75.99"/>
		<polygon points="2289.01,344.45 2305.23,420.43 2330.55,420.43 2314.4,344.45 		"/>
		<polygon points="2240.4,420.43 2265.75,420.43 2257.68,344.44 2232.29,344.44 		"/>
	</g>
	<g>
		<circle class="st1" cx="2023.4" cy="564.94" r="17.02"/>
		<path class="st1" d="M2045.8,678.54h-44.98v-64.67c0-12.37,10.04-22.58,22.58-22.58l0,0c12.37,0,22.58,10.04,22.58,22.58v64.67
			H2045.8z"/>
	</g>
	<g>
		<circle class="st1" cx="2201.25" cy="573.02" r="13.54"/>
		<path class="st1" d="M2219.06,646.69h-35.77v-34.77c0-9.83,7.98-17.96,17.96-17.96l0,0c9.83,0,17.95,7.98,17.95,17.96v34.77
			H2219.06z"/>
	</g>
	<path d="M2352.32,532.64h-62.99v-9.49h62.99c2.62,0,4.75,2.12,4.75,4.75l0,0C2357.06,530.52,2354.94,532.64,2352.32,532.64z"/>
</g>
<g>
	<g>
		<polygon class="st1" points="968.46,675.96 765.23,675.96 787.86,637.11 945.83,637.11 		"/>
		<polygon class="st1" points="952.66,620.6 781.03,620.6 803.65,581.46 930.03,581.46 		"/>
		<polygon class="st1" points="936.87,565.24 796.82,565.24 819.45,525.8 914.24,525.8 		"/>
		<polygon class="st1" points="921.07,509.89 812.62,509.89 835.25,470.14 898.44,470.14 		"/>
		<polygon class="st1" points="905.27,454.53 828.42,454.53 851.05,414.48 882.64,414.48 		"/>
		<polygon class="st1" points="889.47,399.17 844.22,399.17 866.84,358.82 866.84,358.82 		"/>
	</g>
	<rect x="839.63" y="694.21" width="54.43" height="39.24"/>
</g>
<g>
	<polygon class="st1" points="739.07,469.36 622.57,469.36 635.54,447.09 726.1,447.09 	"/>
	<polygon class="st1" points="727.75,438.06 633.89,438.06 646.86,415.57 714.78,415.57 	"/>
	<polygon class="st1" points="716.43,406.75 645.21,406.75 658.18,384.05 703.46,384.05 	"/>
	<polygon class="st1" points="705.11,375.44 656.53,375.44 669.5,352.53 692.14,352.53 	"/>
	<polygon class="st1" points="693.79,344.14 667.85,344.14 680.82,321.01 680.82,321.01 	"/>
	<rect x="665.22" y="478.28" width="31.2" height="22.49"/>
</g>
<g>
	<polygon class="st1" points="2592.37,664.05 2436.8,664.05 2462.89,625.2 2566.28,625.2 	"/>
	<polygon class="st1" points="2578.58,609.44 2450.59,609.44 2475.82,570.21 2553.36,570.21 	"/>
	<polygon class="st1" points="2564.79,554.82 2464.38,554.82 2488.74,515.23 2540.43,515.23 	"/>
	<polygon class="st1" points="2551,500.21 2478.17,500.21 2501.66,460.24 2527.51,460.24 	"/>
	<polygon class="st1" points="2537.21,445.6 2491.96,445.6 2514.59,405.25 2514.59,405.25 	"/>
	<rect x="2488.11" y="679.6" width="54.43" height="39.24"/>
</g>
<g>
	<polygon class="st1" points="1970.6,436.51 1870.18,436.51 1881.41,411.44 1959.38,411.44 	"/>
	<polygon class="st1" points="1964.67,403.19 1876.12,403.19 1887.9,377.96 1952.88,377.96 	"/>
	<polygon class="st1" points="1958.73,369.88 1882.05,369.88 1894.4,344.48 1946.38,344.48 	"/>
	<polygon class="st1" points="1952.8,336.56 1887.99,336.56 1900.9,311 1939.88,311 	"/>
	<polygon class="st1" points="1946.86,303.25 1893.92,303.25 1907.4,277.53 1933.39,277.53 	"/>
	<polygon class="st1" points="1940.93,269.93 1899.85,269.93 1913.89,244.05 1926.89,244.05 	"/>
	<polygon class="st1" points="1935,236.61 1905.79,236.61 1920.39,210.57 1920.39,210.57 	"/>
	<rect x="1902.83" y="445.88" width="35.13" height="25.33"/>
</g>
<path class="st2" d="M2244.93,326.15"/>
<g>
	<polygon points="1144.11,405.6 1179.77,405.6 1213.1,262.23 1177.44,262.23 	"/>
	<polygon points="1237.3,405.6 1272.96,405.6 1306.47,262.23 1270.81,262.23 	"/>
	<polygon points="1330.57,405.6 1366.24,405.6 1399.75,262.23 1364.08,262.23 	"/>
	<polygon points="1423.85,405.6 1459.51,405.6 1493.02,262.23 1457.36,262.23 	"/>
	<polygon points="1119.92,262.23 1086.41,405.6 1050.74,405.6 1084.08,262.23 	"/>
	<rect x="1187.68" y="477.33" width="50.62" height="145.45"/>
	<rect x="1086.41" y="405.6" width="35.66" height="218.21"/>
	<polygon points="1330.57,477.32 1458.44,477.51 1458.44,573.42 1330.57,573.23 	"/>
	<g>
		<circle class="st1" cx="1423.94" cy="527.36" r="17.02"/>
		<path class="st1" d="M1446.16,573.42h-44.62c1.43-11.11,10.93-19.71,22.4-19.71c6.27,0,11.83,2.51,15.95,6.63
			C1443.29,563.74,1445.62,568.4,1446.16,573.42z"/>
	</g>
	<g>
		<circle class="st1" cx="1238.39" cy="560.9" r="17.02"/>
		<path class="st1" d="M1260.79,674.49h-44.98v-64.67c0-12.37,10.04-22.58,22.58-22.58l0,0c12.37,0,22.58,10.04,22.58,22.58v64.67
			H1260.79z"/>
	</g>
</g>
<g>
	<path class="st1" d="M1839.67,652.37c-4.67,29.89-19.52,58.17-45.33,82.78l-77.1,73.51c-15.47,14.75-36.02,22.98-57.39,22.98
		H1429.7c-10.57,0-14.73-13.7-5.95-19.58l269.85-180.69c20.06-13.43,28.96-32.69,25.55-51.99c-3.12-17.67-16.15-32.57-35.2-41.66
		l-59.48-28.39c-19.35-9.24-33.08-20.25-41.12-32.37c-7.01-10.59-9.16-21.65-6.69-31.94c2.3-9.59,8.62-18.56,17.98-26.09
		c9.41-7.57,21.59-13.63,36.21-18.22l37.75-11.85c10.24-3.22,14.75-7.92,14.57-13c-0.55-15.97-65.33-33.91-65.33-33.91
		c43.31-2.74,76.36,7.5,76.36,7.5c11.98,2.83,22.11,6.54,30.1,11.11c7.85,4.49,13.38,9.75,15.83,15.3
		c2.57,5.85,1.73,12.03-2.72,17.84c-5,6.52-14.13,12.34-27.27,17.14l-39.21,14.31c-12.19,4.45-19.27,11.6-19.07,19.87
		c0.21,8.79,8.53,17.3,23.26,23.1l55.56,21.88c22.07,8.68,41.77,20.35,58.72,35.23c17.26,15.15,31.39,33.7,40.39,54.15
		C1839.78,602.02,1843.59,627.28,1839.67,652.37z"/>
</g>
<g>
	<polygon class="st1" points="3316.95,940.3 2756.7,940.3 2819.08,833.21 3254.57,833.21 	"/>
	<polygon class="st1" points="3262.52,789.75 2811.14,789.75 2873.52,681.63 3200.14,681.63 	"/>
	<polygon class="st1" points="3208.08,639.2 2865.58,639.2 2927.96,530.05 3145.7,530.05 	"/>
	<polygon class="st1" points="3153.64,488.65 2920.01,488.65 2982.39,378.47 3091.26,378.47 	"/>
	<polygon class="st1" points="3099.21,338.1 2974.45,338.1 3036.83,226.88 3036.83,226.88 	"/>
	<rect x="2961.8" y="983.19" width="150.05" height="108.17"/>
</g>
<g>
	<polygon class="st1" points="426.5,959.64 0,959.64 47.66,853.14 378.84,853.14 	"/>
	<polygon class="st1" points="401.3,818.13 25.2,818.13 75.26,710.95 351.24,710.95 	"/>
	<polygon class="st1" points="376.09,676.62 50.41,676.62 102.86,568.76 323.64,568.76 	"/>
	<polygon class="st1" points="350.89,535.12 75.61,535.12 130.46,426.57 296.04,426.57 	"/>
	<polygon class="st1" points="325.69,393.61 100.81,393.61 158.05,284.38 268.44,284.38 	"/>
	<polygon class="st1" points="300.49,252.11 126.01,252.11 185.65,142.19 240.85,142.19 	"/>
	<polygon class="st1" points="275.28,110.6 151.22,110.6 213.25,0 213.25,0 	"/>
	<rect x="138.64" y="999.42" width="149.22" height="107.57"/>
</g>
</svg>
