<!-- Generator: Adobe Illustrator 24.0.1, SVG Export Plug-In  -->
<svg version="1.1" xmlns="http://www.w3.org/2000/svg" xmlns:xlink="http://www.w3.org/1999/xlink" x="0px" y="0px" width="363.5px"
	 height="311.8px" viewBox="0 0 363.5 311.8" style="enable-background:new 0 0 363.5 311.8;" xml:space="preserve">
<style type="text/css">
	.st0{fill:#49D6B1;}
</style>
<defs>
</defs>
<g>
	<polygon points="131.9,0 106.9,72.3 106.9,90.3 88.8,90.3 88.8,72.3 114,0 	"/>
	<polygon points="179,0 153.9,72.3 153.9,90.3 135.9,90.3 135.9,72.3 161,0 	"/>
	<polygon points="59.8,72.3 59.9,72.3 59.9,230.8 41.8,230.8 41.8,72.3 66.9,0 84.9,0 	"/>
	<polygon points="200.9,72.3 201,72.3 201,90.3 183,90.3 183,72.3 208,0 226.1,0 	"/>
	<polygon points="269.3,0 244.2,72.3 244.2,90.3 226.2,90.3 226.2,72.3 251.3,0 	"/>
	<polygon points="316.3,0 291.2,72.3 291.2,90.3 273.2,90.3 273.2,72.3 298.3,0 	"/>
	<polygon points="363.5,0 338.5,72.3 338.5,90.3 320.4,90.3 320.4,72.3 345.6,0 	"/>
	<rect x="89.1" y="115.1" width="65.1" height="47"/>
	<rect x="183.6" y="115.1" width="65.1" height="47"/>
	<rect x="183.6" y="184.5" width="25.7" height="47"/>
	<rect x="222.9" y="184.5" width="25.7" height="47"/>
	<rect x="273.6" y="115.1" width="65.1" height="47"/>
	<rect x="273.6" y="184.5" width="65.1" height="47"/>
</g>
<g>
	<circle class="st0" cx="12.6" cy="260" r="9.5"/>
	<path class="st0" d="M25.1,311.8H0l0-24.4c0-6.9,5.6-12.6,12.6-12.6h0c6.9,0,12.6,5.6,12.6,12.6V311.8z"/>
</g>
<g>
	<circle class="st0" cx="41.8" cy="201.3" r="9.5"/>
	<path class="st0" d="M54.4,253.1H29.3v-24.4c0-6.9,5.6-12.6,12.6-12.6h0c6.9,0,12.6,5.6,12.6,12.6V253.1z"/>
</g>
<g>
	<circle class="st0" cx="122.8" cy="246.3" r="10.4"/>
	<path class="st0" d="M136.5,302.8h-27.4V275c0-6.9,5.6-12.6,12.6-12.6h2.3c6.9,0,12.6,5.6,12.6,12.6V302.8z"/>
</g>
<g>
	<circle class="st0" cx="183.6" cy="197.3" r="8.4"/>
	<path class="st0" d="M194.7,243h-22.2v-21.6c0-6.1,5-11.1,11.1-11.1h0c6.1,0,11.1,5,11.1,11.1V243z"/>
</g>
<g>
	<circle class="st0" cx="222.9" cy="217.5" r="10.3"/>
	<path class="st0" d="M236.5,273.6h-27.2V246c0-6.9,5.6-12.6,12.6-12.6h2.1c6.9,0,12.6,5.6,12.6,12.6V273.6z"/>
</g>
<g>
	<circle class="st0" cx="319.4" cy="141.8" r="7.1"/>
	<path class="st0" d="M328.7,162.1L328.7,162.1l-18.6,0.1v-0.1c0-5.1,4.2-9.3,9.3-9.3c2.6,0,4.9,1,6.6,2.7
		C327.7,157.2,328.7,159.5,328.7,162.1z"/>
</g>
<g>
	<circle class="st0" cx="293.4" cy="207.1" r="8.5"/>
	<path class="st0" d="M304.5,231.4v0.1h-22.3v-0.1c0-6.2,5-11.1,11.1-11.1c3.1,0,5.9,1.2,7.9,3.3
		C303.3,225.5,304.5,228.3,304.5,231.4z"/>
</g>
<g>
	<path class="st0" d="M154.1,125.2v19.1c-5.3,0-9.5-4.3-9.5-9.5C144.6,129.4,148.9,125.2,154.1,125.2z"/>
	<path class="st0" d="M154.1,149.5v12.7h-12.6V162C141.6,155.1,147.2,149.5,154.1,149.5z"/>
</g>
<rect x="89.1" y="184.5" width="65.1" height="47"/>
<g>
	<circle class="st0" cx="88.8" cy="216.5" r="9.5"/>
	<path class="st0" d="M101.4,268.2H76.3v-24.4c0-6.9,5.6-12.6,12.6-12.6h0c6.9,0,12.6,5.6,12.6,12.6V268.2z"/>
</g>
<g>
	<circle class="st0" cx="154.1" cy="215.6" r="9.5"/>
	<path class="st0" d="M166.7,267.4h-25.1v-24.4c0-6.9,5.6-12.6,12.6-12.6h0c6.9,0,12.6,5.6,12.6,12.6V267.4z"/>
</g>
</svg>
