<!-- Generator: Adobe Illustrator 24.0.1, SVG Export Plug-In  -->
<svg version="1.1" xmlns="http://www.w3.org/2000/svg" xmlns:xlink="http://www.w3.org/1999/xlink" x="0px" y="0px" width="407.3px"
	 height="59.5px" viewBox="0 0 407.3 59.5" style="enable-background:new 0 0 407.3 59.5;" xml:space="preserve">
<style type="text/css">
	.st0{fill:#FFFFFF;}
</style>
<defs>
</defs>
<g>
	<rect x="190.6" y="51.5" class="st0" width="7.2" height="7.2"/>
	<rect x="291.6" y="33" class="st0" width="7.2" height="25.6"/>
	<rect x="291.6" y="18.6" class="st0" width="7.2" height="7.2"/>
	<path class="st0" d="M112,58.7h-5.8L92.4,19.2h8.2l8.8,26.9l9.7-27.2h4.3l9.1,27.2l9.5-26.9h8.2l-14.6,39.5h-5.8l-8.6-25L112,58.7z
		"/>
	<path class="st0" d="M172.5,50.4h-15.9l-3.5,8.3h-8.3l17-39.5h6l16.5,39.5H176L172.5,50.4z M170.2,44.1l-5.6-14.2L159,44.1H170.2z"
		/>
	<path class="st0" d="M212.3,36.3c2.5-3.6,6.2-4.1,8.3-4.1c7.6,0,12.6,5.9,12.6,13.6c0,7.8-5.2,13.7-12.8,13.7
		c-1.7,0-5.4-0.3-8.2-4.1v3.3H205V15.5h7.2V36.3z M211.6,45.8c0,4.1,3,7.3,7.1,7.3c4.1,0,7.1-3.2,7.1-7.3c0-4.1-3-7.2-7.1-7.2
		C214.5,38.6,211.6,41.7,211.6,45.8z"/>
	<path class="st0" d="M245.2,33v14.5c0,1.4,0.1,3.2,1.5,4.5c0.9,0.8,2.3,1.3,3.7,1.3c1.4,0,2.8-0.5,3.7-1.3c1.4-1.3,1.5-3.1,1.5-4.5
		V33h7.2v15.7c0,2.3-0.3,5.4-3.1,7.9c-2.4,2.1-6.2,2.9-9.3,2.9c-3.1,0-6.9-0.8-9.3-2.9c-2.8-2.5-3.1-5.6-3.1-7.9V33H245.2z"/>
	<path class="st0" d="M282,39.1c-1.7-1.6-3.4-1.7-4.2-1.7c-1.7,0-2.8,0.8-2.8,2.1c0,0.7,0.3,1.7,2.3,2.3l1.7,0.5
		c2,0.7,5,1.7,6.5,3.7c0.8,1.1,1.3,2.6,1.3,4.3c0,2.3-0.8,4.6-2.8,6.5c-2.1,1.9-4.6,2.7-7.7,2.7c-5.3,0-8.3-2.5-9.9-4.3l3.8-4.4
		c1.4,1.7,3.6,3,5.7,3c2,0,3.6-1,3.6-2.8c0-1.6-1.3-2.2-2.2-2.6l-1.7-0.6c-1.8-0.7-4-1.5-5.5-3.1c-1.2-1.2-2-2.8-2-4.9
		c0-2.5,1.2-4.6,2.7-5.8c2-1.6,4.6-1.8,6.7-1.8c1.9,0,4.9,0.2,8.2,2.7L282,39.1z"/>
	<path class="st0" d="M304.8,33h7.2v3.3c1.4-1.9,3.8-4.1,7.9-4.1c2.2,0,5.6,0.7,7.6,3.1c1.8,2.2,2,4.7,2,7.2v16.1h-7.2v-14
		c0-1.4-0.1-3.7-1.4-5c-1.1-1.2-2.7-1.3-3.4-1.3c-1.9,0-3.4,0.7-4.4,2.2c-1.1,1.7-1.1,3.5-1.1,5v13.1h-7.2V33z"/>
	<path class="st0" d="M360.8,51.5c-0.8,1.9-3.7,8-12.6,8c-4.1,0-7.3-1.2-9.8-3.6c-2.8-2.7-4-6-4-10c0-5.1,2.1-8.2,3.9-10.1
		c3-3,6.6-3.6,9.7-3.6c5.2,0,8.2,2.1,10,4.2c2.7,3.3,3.1,7.3,3.1,10.1V47h-19.2c0,1.5,0.4,3.2,1.2,4.3c0.8,1.1,2.4,2.4,5.2,2.4
		c2.7,0,4.8-1.3,6-3.4L360.8,51.5z M354.1,42.4c-0.6-3.5-3.4-5.2-6.1-5.2c-2.7,0-5.4,1.7-6,5.2H354.1z"/>
	<path class="st0" d="M379.7,39.1c-1.7-1.6-3.4-1.7-4.2-1.7c-1.7,0-2.8,0.8-2.8,2.1c0,0.7,0.3,1.7,2.3,2.3l1.7,0.5
		c2,0.7,5,1.7,6.5,3.7c0.8,1.1,1.3,2.6,1.3,4.3c0,2.3-0.8,4.6-2.8,6.5c-2.1,1.9-4.6,2.7-7.7,2.7c-5.3,0-8.3-2.5-9.9-4.3l3.8-4.4
		c1.4,1.7,3.6,3,5.7,3c2,0,3.6-1,3.6-2.8c0-1.6-1.3-2.2-2.2-2.6l-1.7-0.6c-1.8-0.7-4-1.5-5.5-3.1c-1.2-1.2-2-2.8-2-4.9
		c0-2.5,1.2-4.6,2.7-5.8c2-1.6,4.6-1.8,6.7-1.8c1.9,0,4.9,0.2,8.2,2.7L379.7,39.1z"/>
	<path class="st0" d="M402.4,39.1c-1.7-1.6-3.4-1.7-4.2-1.7c-1.7,0-2.8,0.8-2.8,2.1c0,0.7,0.3,1.7,2.3,2.3l1.7,0.5
		c2,0.7,5,1.7,6.5,3.7c0.8,1.1,1.3,2.6,1.3,4.3c0,2.3-0.8,4.6-2.8,6.5c-2.1,1.9-4.6,2.7-7.7,2.7c-5.3,0-8.3-2.5-9.9-4.3l3.8-4.4
		c1.4,1.7,3.6,3,5.7,3c2,0,3.6-1,3.6-2.8c0-1.6-1.3-2.2-2.2-2.6l-1.7-0.6c-1.8-0.7-4-1.5-5.5-3.1c-1.2-1.2-2-2.8-2-4.9
		c0-2.5,1.2-4.6,2.7-5.8c2-1.6,4.6-1.8,6.7-1.8c1.9,0,4.9,0.2,8.2,2.7L402.4,39.1z"/>
</g>
<g>
	<polygon class="st0" points="18.8,28.9 26,28.9 32.8,0 25.6,0 	"/>
	<polygon class="st0" points="37.6,28.9 44.8,28.9 51.6,0 44.4,0 	"/>
	<polygon class="st0" points="13.9,0 7.2,28.9 0,28.9 6.7,0 	"/>
	<polygon class="st0" points="70.4,0 63.6,28.9 56.4,28.9 63.2,0 	"/>
	<rect x="26" y="40.5" class="st0" width="7.2" height="18.8"/>
	<rect x="7.2" y="28.9" class="st0" width="7.2" height="30.4"/>
	<rect x="44.8" y="40.5" class="st0" width="18.8" height="18.8"/>
</g>
</svg>
