<!-- Generator: Adobe Illustrator 24.0.1, SVG Export Plug-In  -->
<svg version="1.1" xmlns="http://www.w3.org/2000/svg" xmlns:xlink="http://www.w3.org/1999/xlink" x="0px" y="0px"
	 width="1054.8px" height="227.7px" viewBox="0 0 1054.8 227.7" style="enable-background:new 0 0 1054.8 227.7;"
	 xml:space="preserve">
<style type="text/css">
	.st0{fill:#49D6B1;}
	.st1{fill:#FFFFFF;}
</style>
<defs>
</defs>
<path class="st0" d="M941,227.7H113.9C51,227.7,0,176.7,0,113.9v0C0,51,51,0,113.9,0H941c62.9,0,113.9,51,113.9,113.9v0
	C1054.8,176.7,1003.9,227.7,941,227.7z"/>
<g>
	<path class="st1" d="M236.5,117.3l-29.8-47.1h20l18.6,30.2l18.6-30.2h20l-30.5,47.1v39.6h-16.9V117.3z"/>
	<path class="st1" d="M332.5,106.7c5.6,5.1,9.5,12.9,9.5,22.1c0,9.1-3.9,16.9-9.5,22c-4.8,4.4-12.1,7.9-22.7,7.9s-17.9-3.5-22.7-7.9
		c-5.6-5.1-9.5-12.9-9.5-22c0-9.2,3.9-17,9.5-22.1c4.8-4.4,12.1-7.9,22.7-7.9S327.7,102.3,332.5,106.7z M325.6,128.8
		c0-8.8-6.8-16-15.9-16s-15.9,7.1-15.9,16c0,8.6,6.6,15.9,15.9,15.9S325.6,137.4,325.6,128.8z"/>
	<path class="st1" d="M370.1,100.6v31.8c0,3,0.3,7,3.4,9.9c1.9,1.7,5.1,2.9,8.1,2.9c3,0,6.1-1.2,8.1-2.9c3.1-2.9,3.4-6.9,3.4-9.9
		v-31.8h15.9v34.4c0,5.1-0.6,11.8-6.9,17.3c-5.2,4.5-13.5,6.4-20.4,6.4c-6.9,0-15.2-1.8-20.4-6.4c-6.2-5.5-6.9-12.2-6.9-17.3v-34.4
		H370.1z"/>
	<path class="st1" d="M423.9,100.6h15.9v8.4c2.5-4.8,5.8-7.1,7-7.8c2.5-1.6,5.6-2.5,9.4-2.5c2.7,0,4.9,0.7,6.8,1.3l-2.1,14.8
		c-2.1-1.4-4.2-2.1-7.4-2.1c-3,0-7.4,0.6-10.5,4.5c-3,3.8-3.1,8.6-3.1,12.5v27h-15.9V100.6z"/>
	<path class="st1" d="M524.8,70.2c4.8,0,14.2,0,21.2,5.5c5.1,3.9,8.1,10.7,8.1,17.9c0,11.2-7.4,15.7-9.7,17
		c5.7,0.9,9.1,3.4,11.3,5.5c5.2,4.9,6.2,11.7,6.2,16.2c0,5.1-1.4,12.2-7.4,17.5c-6.5,5.7-14.4,7-22,7h-29.1V70.2H524.8z
		 M520.2,106.2h4.8c2.6,0,13.1-0.3,13.1-11.3c0-7.9-6.1-10.9-13-10.9h-4.9V106.2z M520.2,143.1h7.3c3.1,0,7.8-0.1,11.6-2.3
		c4.2-2.5,5.3-6.6,5.3-10c0-2.7-0.9-7.4-6.4-9.9c-3.6-1.7-7.9-1.7-11.6-1.7h-6.2V143.1z"/>
	<path class="st1" d="M591,100.6v31.8c0,3,0.3,7,3.4,9.9c1.9,1.7,5.1,2.9,8.1,2.9c3,0,6.1-1.2,8.1-2.9c3.1-2.9,3.4-6.9,3.4-9.9
		v-31.8h15.9v34.4c0,5.1-0.6,11.8-6.9,17.3c-5.2,4.5-13.5,6.4-20.4,6.4c-6.9,0-15.2-1.8-20.4-6.4c-6.2-5.5-6.9-12.2-6.9-17.3v-34.4
		H591z"/>
	<path class="st1" d="M675.5,114c-3.8-3.5-7.5-3.8-9.2-3.8c-3.8,0-6.1,1.8-6.1,4.5c0,1.4,0.7,3.6,5.1,5.1l3.8,1.2
		c4.4,1.4,11,3.6,14.3,8.1c1.7,2.3,2.9,5.7,2.9,9.4c0,5.1-1.7,10.1-6.2,14.3c-4.5,4.2-10,6-16.9,6c-11.7,0-18.3-5.6-21.8-9.4
		l8.3-9.6c3.1,3.6,7.8,6.5,12.5,6.5c4.4,0,7.8-2.2,7.8-6.1c0-3.5-2.9-4.9-4.9-5.7l-3.6-1.3c-4-1.4-8.7-3.2-12.1-6.8
		c-2.6-2.7-4.3-6.2-4.3-10.8c0-5.5,2.6-10,5.8-12.7c4.4-3.5,10.1-4,14.7-4c4.2,0,10.8,0.5,17.9,6L675.5,114z"/>
	<path class="st1" d="M705.2,67.4c5.2,0,9.5,4.3,9.5,9.5c0,5.2-4.3,9.5-9.5,9.5s-9.5-4.3-9.5-9.5C695.7,71.6,700,67.4,705.2,67.4z
		 M713.2,100.6v56.3h-15.9v-56.3H713.2z"/>
	<path class="st1" d="M728.2,100.6h15.9v7.3c3-4.2,8.3-9.1,17.4-9.1c4.9,0,12.2,1.4,16.6,6.9c3.9,4.8,4.4,10.4,4.4,15.9v35.4h-15.9
		v-30.7c0-3.1-0.1-8.1-3-11c-2.5-2.6-5.8-2.9-7.4-2.9c-4.2,0-7.4,1.4-9.7,4.9c-2.3,3.6-2.5,7.7-2.5,10.9v28.7h-15.9V100.6z"/>
	<path class="st1" d="M852.9,141.2c-1.7,4.2-8.1,17.5-27.7,17.5c-9.1,0-16-2.6-21.6-7.9c-6.2-5.8-8.8-13.1-8.8-22
		c0-11.2,4.5-18.1,8.6-22.1c6.6-6.5,14.4-7.9,21.2-7.9c11.4,0,18.1,4.5,22,9.2c6,7.1,6.8,16,6.8,22.1v1.3h-42.1c0,3.4,0.9,7,2.7,9.5
		c1.7,2.3,5.2,5.3,11.3,5.3c6,0,10.5-2.9,13.1-7.4L852.9,141.2z M838.3,121.3c-1.3-7.7-7.5-11.3-13.4-11.3s-12,3.8-13.3,11.3H838.3z
		"/>
	<path class="st1" d="M896.2,114c-3.8-3.5-7.5-3.8-9.2-3.8c-3.8,0-6.1,1.8-6.1,4.5c0,1.4,0.7,3.6,5.1,5.1l3.8,1.2
		c4.4,1.4,11,3.6,14.3,8.1c1.7,2.3,2.9,5.7,2.9,9.4c0,5.1-1.7,10.1-6.2,14.3c-4.5,4.2-10,6-16.9,6c-11.7,0-18.3-5.6-21.8-9.4
		l8.3-9.6c3.1,3.6,7.8,6.5,12.5,6.5c4.4,0,7.8-2.2,7.8-6.1c0-3.5-2.9-4.9-4.9-5.7l-3.6-1.3c-4-1.4-8.7-3.2-12.1-6.8
		c-2.6-2.7-4.3-6.2-4.3-10.8c0-5.5,2.6-10,5.8-12.7c4.4-3.5,10.1-4,14.7-4c4.2,0,10.8,0.5,17.9,6L896.2,114z"/>
	<path class="st1" d="M946.1,114c-3.8-3.5-7.5-3.8-9.2-3.8c-3.8,0-6.1,1.8-6.1,4.5c0,1.4,0.7,3.6,5.1,5.1l3.8,1.2
		c4.4,1.4,11,3.6,14.3,8.1c1.7,2.3,2.9,5.7,2.9,9.4c0,5.1-1.7,10.1-6.2,14.3c-4.5,4.2-10,6-16.9,6c-11.7,0-18.3-5.6-21.8-9.4
		l8.3-9.6c3.1,3.6,7.8,6.5,12.5,6.5c4.4,0,7.8-2.2,7.8-6.1c0-3.5-2.9-4.9-4.9-5.7l-3.6-1.3c-4-1.4-8.7-3.2-12.1-6.8
		c-2.6-2.7-4.3-6.2-4.3-10.8c0-5.5,2.6-10,5.8-12.7c4.4-3.5,10.1-4,14.7-4c4.2,0,10.8,0.5,17.9,6L946.1,114z"/>
</g>
<g>
	<g>
		<path class="st1" d="M172.4,113.9c0,2.5-2,4.5-4.5,4.5h-41.4v41.4c0,2.5-2,4.5-4.5,4.5c-2.5,0-4.5-2-4.5-4.5v-41.4H76.2
			c-2.5,0-4.5-2-4.5-4.5c0-2.5,2-4.5,4.5-4.5h41.3V68c0-2.5,2-4.5,4.5-4.5c2.5,0,4.5,2,4.5,4.5v41.4h41.4
			C170.4,109.4,172.4,111.4,172.4,113.9z"/>
	</g>
</g>
</svg>
