<!-- Generator: Adobe Illustrator 24.0.1, SVG Export Plug-In  -->
<svg version="1.1" xmlns="http://www.w3.org/2000/svg" xmlns:xlink="http://www.w3.org/1999/xlink" x="0px" y="0px"
	 width="182.908px" height="74.118px" viewBox="0 0 182.908 74.118" enable-background="new 0 0 182.908 74.118"
	 xml:space="preserve">
<defs>
</defs>
<g>
	<polygon fill="#FFFFFF" points="120.729,37.486 129.405,37.486 137.599,2.661 128.923,2.661 	"/>
	<polygon fill="#FFFFFF" points="143.383,37.486 152.059,37.486 160.254,2.661 151.577,2.661 	"/>
	<polygon fill="#FFFFFF" points="114.824,2.661 106.751,37.486 98.075,37.486 106.148,2.661 	"/>
	<polygon fill="#FFFFFF" points="182.908,2.661 174.714,37.486 166.038,37.486 174.232,2.661 	"/>
	<rect x="129.405" y="51.464" fill="#FFFFFF" width="8.676" height="22.654"/>
	<rect x="106.751" y="37.486" fill="#FFFFFF" width="8.676" height="36.632"/>
	<rect x="152.059" y="51.464" fill="#FFFFFF" width="22.654" height="22.654"/>
</g>
<g>

		<rect x="14.703" y="32.685" transform="matrix(0.7071 0.7071 -0.7071 0.7071 44.5804 2.8073)" fill="#FFFFFF" width="8.398" height="45.064"/>
	<g>
		<path fill="#FFFFFF" d="M49.687,48.863c-13.471,0-24.431-10.96-24.431-24.431S36.216,0,49.687,0s24.431,10.96,24.431,24.431
			S63.159,48.863,49.687,48.863z M49.687,9.536c-8.213,0-14.895,6.682-14.895,14.895s6.682,14.895,14.895,14.895
			s14.895-6.682,14.895-14.895S57.9,9.536,49.687,9.536z"/>
	</g>
</g>
</svg>
