<!-- Generator: Adobe Illustrator 24.0.1, SVG Export Plug-In  -->
<svg version="1.1" xmlns="http://www.w3.org/2000/svg" xmlns:xlink="http://www.w3.org/1999/xlink" x="0px" y="0px" width="191px"
	 height="198.3px" viewBox="0 0 191 198.3" style="enable-background:new 0 0 191 198.3;" xml:space="preserve">
<style type="text/css">
	.st0{fill:#49D6B1;}
</style>
<defs>
</defs>
<g>
	<rect x="48.7" y="123.5" width="18.7" height="48.7"/>
	<rect x="97.5" y="123.5" width="67.4" height="48.7"/>
	<polygon points="93.4,0 67.4,74.9 67.4,93.6 48.7,93.6 48.7,74.9 74.8,0 	"/>
	<polygon points="142.1,0 116.2,74.9 116.2,93.6 97.5,93.6 97.5,74.9 123.5,0 	"/>
	<polygon points="18.6,74.9 18.7,74.9 18.7,172.4 0,172.4 0,74.9 26,0 44.7,0 	"/>
	<polygon points="164.9,74.9 165,74.9 165,93.6 146.3,93.6 146.3,74.9 172.3,0 191,0 	"/>
</g>
<g>
	<circle class="st0" cx="67.4" cy="146.5" r="9.5"/>
	<path class="st0" d="M80,198.3H54.9v-24.4c0-6.9,5.6-12.6,12.6-12.6h0c6.9,0,12.6,5.6,12.6,12.6V198.3z"/>
</g>
<g>
	<circle class="st0" cx="132.1" cy="146.5" r="9.5"/>
	<path class="st0" d="M144.6,172.3h-24.9c0.8-6.2,6.1-11,12.5-11c3.5,0,6.6,1.4,8.9,3.7C142.9,166.9,144.2,169.4,144.6,172.3z"/>
</g>
</svg>
