<!-- Generator: Adobe Illustrator 24.0.1, SVG Export Plug-In  -->
<svg version="1.1" xmlns="http://www.w3.org/2000/svg" xmlns:xlink="http://www.w3.org/1999/xlink" x="0px" y="0px"
	 width="944.46px" height="132.01px" viewBox="0 0 944.46 132.01" style="enable-background:new 0 0 944.46 132.01;"
	 xml:space="preserve">
<defs>
</defs>
<g>
	<rect x="294.62" y="108.01" width="21.6" height="21.6"/>
	<rect x="597.64" y="52.5" width="21.6" height="76.8"/>
	<rect x="597.64" y="9.3" width="21.6" height="21.6"/>
	<path d="M58.8,129.61H41.4L0,11.1h24.6L51,91.81l29.1-81.61h12.9l27.3,81.61l28.5-80.71h24.6l-43.8,118.51h-17.4l-25.8-75
		L58.8,129.61z"/>
	<path d="M226.21,11.1h-18l-51,118.51h24.9l10.5-24.9h47.7l10.51,24.9h24.9L226.21,11.1z M199.81,85.81l16.8-42.61l16.8,42.61
		H199.81z"/>
	<path d="M384.62,50.1c-6.3,0-17.4,1.5-24.9,12.3h-0.3V0h-21.6v129.61h21.6v-9.9c8.4,11.4,19.5,12.3,24.6,12.3
		c22.81,0,38.41-17.7,38.41-41.1C422.43,67.8,407.43,50.1,384.62,50.1z M378.92,112.81c-12.3,0-21.3-9.6-21.3-21.9
		c0-12.31,8.7-21.61,21.3-21.61c12.3,0,21.3,9.3,21.3,21.61C400.22,103.21,391.22,112.81,378.92,112.81z"/>
	<path d="M458.43,52.5v43.5c0,4.2,0.3,9.6,4.5,13.5c2.7,2.4,6.9,3.9,11.1,3.9c4.2,0,8.4-1.5,11.1-3.9c4.2-3.9,4.5-9.3,4.5-13.5V52.5
		h21.6v47.1c0,6.9-0.9,16.2-9.3,23.7c-7.2,6.3-18.6,8.7-27.9,8.7s-20.7-2.4-27.9-8.7c-8.4-7.5-9.3-16.8-9.3-23.7V52.5H458.43z"/>
	<path d="M568.84,70.8c-5.1-4.8-10.2-5.1-12.6-5.1c-5.1,0-8.4,2.4-8.4,6.3c0,2.1,0.9,5.1,6.9,6.9l5.1,1.5c6,2.1,15,5.1,19.5,11.1
		c2.4,3.3,3.9,7.8,3.9,12.9c0,6.9-2.4,13.8-8.4,19.5c-6.3,5.7-13.8,8.1-23.1,8.1c-15.9,0-24.9-7.5-29.7-12.9l11.4-13.2
		c4.2,5.1,10.8,9,17.1,9c6,0,10.8-3,10.8-8.4c0-4.8-3.9-6.6-6.6-7.8l-5.1-1.8c-5.4-2.1-12-4.5-16.5-9.3c-3.6-3.6-6-8.4-6-14.7
		c0-7.5,3.6-13.8,8.1-17.4c6-4.8,13.8-5.4,20.1-5.4c5.7,0,14.7,0.6,24.6,8.1L568.84,70.8z"/>
	<path d="M637.24,52.5h21.6v9.9c4.2-5.7,11.4-12.3,23.7-12.3c6.6,0,16.8,2.1,22.8,9.3c5.4,6.6,6,14.1,6,21.6v48.3h-21.6v-42
		c0-4.2-0.3-11.1-4.2-15c-3.3-3.6-8.1-3.9-10.2-3.9c-5.7,0-10.2,2.1-13.2,6.6c-3.3,5.1-3.3,10.5-3.3,15v39.3h-21.6V52.5z"/>
	<path d="M806.15,93.01c0-8.4-1.2-20.41-9.3-30.31c-5.4-6.3-14.4-12.6-30-12.6c-9.3,0-20.1,1.8-29.1,10.8
		c-5.4,5.7-11.7,15-11.7,30.31c0,12,3.6,21.9,12,30c7.5,7.2,17.1,10.8,29.4,10.8c26.7,0,35.4-18.3,37.8-24l-19.5-3.6
		c-3.6,6.3-9.9,10.2-18,10.2c-8.4,0-13.2-3.9-15.6-7.2c-2.4-3.3-3.6-8.4-3.6-12.9h57.6V93.01z M748.85,80.7
		c1.8-10.5,9.9-15.6,18-15.6s16.5,5.1,18.3,15.6H748.85z"/>
	<path d="M861.95,70.8c-5.1-4.8-10.2-5.1-12.6-5.1c-5.1,0-8.4,2.4-8.4,6.3c0,2.1,0.9,5.1,6.9,6.9l5.1,1.5c6,2.1,15,5.1,19.5,11.1
		c2.4,3.3,3.9,7.8,3.9,12.9c0,6.9-2.4,13.8-8.4,19.5c-6.3,5.7-13.8,8.1-23.1,8.1c-15.9,0-24.9-7.5-29.7-12.9l11.4-13.2
		c4.2,5.1,10.8,9,17.1,9c6,0,10.8-3,10.8-8.4c0-4.8-3.9-6.6-6.6-7.8l-5.1-1.8c-5.4-2.1-12-4.5-16.5-9.3c-3.6-3.6-6-8.4-6-14.7
		c0-7.5,3.6-13.8,8.1-17.4c6-4.8,13.8-5.4,20.1-5.4c5.7,0,14.7,0.6,24.6,8.1L861.95,70.8z"/>
	<path d="M930.06,70.8c-5.1-4.8-10.2-5.1-12.6-5.1c-5.1,0-8.4,2.4-8.4,6.3c0,2.1,0.9,5.1,6.9,6.9l5.1,1.5c6,2.1,15,5.1,19.5,11.1
		c2.4,3.3,3.9,7.8,3.9,12.9c0,6.9-2.4,13.8-8.4,19.5c-6.3,5.7-13.8,8.1-23.1,8.1c-15.9,0-24.9-7.5-29.7-12.9l11.4-13.2
		c4.2,5.1,10.8,9,17.1,9c6,0,10.8-3,10.8-8.4c0-4.8-3.9-6.6-6.6-7.8l-5.1-1.8c-5.4-2.1-12-4.5-16.5-9.3c-3.6-3.6-6-8.4-6-14.7
		c0-7.5,3.6-13.8,8.1-17.4c6-4.8,13.8-5.4,20.1-5.4c5.7,0,14.7,0.6,24.6,8.1L930.06,70.8z"/>
</g>
</svg>
